<?xml version="1.0" encoding="utf-8"?>
<!-- Generator: Adobe Illustrator 25.4.1, SVG Export Plug-In . SVG Version: 6.00 Build 0)  -->
<svg version="1.1" id="Слой_1" xmlns="http://www.w3.org/2000/svg" xmlns:xlink="http://www.w3.org/1999/xlink" x="0px" y="0px"
	 viewBox="0 0 500 500" style="enable-background:new 0 0 500 500;" xml:space="preserve">
<style type="text/css">
	.st0{fill:#80BD00;}
	.st1{font-family:'ArialMT';}
	.st2{font-size:12px;}
	.st3{fill:none;stroke:#FF0000;stroke-miterlimit:10;}
	.st4{fill:#BEBEBE;}
	.st5{fill:#00038A;}
	.st6{fill:#FFFFDC;}
	.st7{fill:#FF3535;}
	.st8{fill:#009F31;}
	.st9{fill:#FFFFE4;}
</style>
<g>
	<path class="st0" d="M42.87,222.5c-11.23,0-20.37-9.14-20.37-20.37v-44.27c0-11.23,9.14-20.37,20.37-20.37h44.27
		c11.23,0,20.37,9.14,20.37,20.37v44.27c0,11.23-9.14,20.37-20.37,20.37H42.87z"/>
	<path d="M87.13,138c10.95,0,19.87,8.91,19.87,19.87v44.27c0,10.95-8.91,19.87-19.87,19.87H42.87C31.91,222,23,213.09,23,202.13
		v-44.27C23,146.91,31.91,138,42.87,138H87.13 M87.13,137H42.87C31.34,137,22,146.34,22,157.87v44.27C22,213.66,31.34,223,42.87,223
		h44.27c11.52,0,20.87-9.34,20.87-20.87v-44.27C108,146.34,98.66,137,87.13,137L87.13,137z"/>
</g>
<text transform="matrix(1 0 0 1 51.6741 183.522)" class="st1 st2">DATA</text>
<line class="st3" x1="117.5" y1="179.5" x2="186.5" y2="179.5"/>
<line class="st3" x1="186.5" y1="179.5" x2="180.5" y2="177.5"/>
<line class="st3" x1="186.5" y1="179.5" x2="180.5" y2="181.5"/>
<g>
	<path class="st4" d="M393.87,223.5c-11.23,0-20.37-9.14-20.37-20.37v-44.27c0-11.23,9.14-20.37,20.37-20.37h44.27
		c11.23,0,20.37,9.14,20.37,20.37v44.27c0,11.23-9.14,20.37-20.37,20.37H393.87z"/>
	<path d="M438.13,139c10.95,0,19.87,8.91,19.87,19.87v44.27c0,10.95-8.91,19.87-19.87,19.87h-44.27c-10.95,0-19.87-8.91-19.87-19.87
		v-44.27c0-10.95,8.91-19.87,19.87-19.87H438.13 M438.13,138h-44.27c-11.52,0-20.87,9.34-20.87,20.87v44.27
		c0,11.52,9.34,20.87,20.87,20.87h44.27c11.52,0,20.87-9.34,20.87-20.87v-44.27C459,147.34,449.66,138,438.13,138L438.13,138z"/>
</g>
<text transform="matrix(1 0 0 1 402.6741 184.522)" class="st1 st2">HASH</text>
<line class="st3" x1="296" y1="179.5" x2="365" y2="179.5"/>
<line class="st3" x1="365" y1="179.5" x2="359" y2="177.5"/>
<line class="st3" x1="365" y1="179.5" x2="359" y2="181.5"/>
<g>
	<path class="st5" d="M194.55,222.5c-1.13,0-2.05-0.92-2.05-2.05v-80.89c0-1.13,0.92-2.05,2.05-2.05h96.89
		c1.13,0,2.05,0.92,2.05,2.05v80.89c0,1.13-0.92,2.05-2.05,2.05H194.55z"/>
	<path d="M291.45,138c0.86,0,1.55,0.7,1.55,1.55v80.89c0,0.86-0.7,1.55-1.55,1.55h-96.89c-0.86,0-1.55-0.7-1.55-1.55v-80.89
		c0-0.86,0.7-1.55,1.55-1.55H291.45 M291.45,137h-96.89c-1.41,0-2.55,1.14-2.55,2.55v80.89c0,1.41,1.14,2.55,2.55,2.55h96.89
		c1.41,0,2.55-1.14,2.55-2.55v-80.89C294,138.14,292.86,137,291.45,137L291.45,137z"/>
</g>
<g>
	<rect x="196.5" y="148.5" class="st6" width="91" height="70"/>
	<path d="M287,149v69h-90v-69H287 M288,148h-92v71h92V148L288,148z"/>
</g>
<g>
	<circle class="st7" cx="285" cy="143" r="2"/>
</g>
<g>
	<circle class="st8" cx="280.04" cy="143" r="2"/>
</g>
<g>
	<circle class="st9" cx="275.04" cy="143" r="2"/>
</g>
<text transform="matrix(1 0 0 1 210.6484 179.1704)" class="st1 st2">Some hash</text>
<text transform="matrix(1 0 0 1 217.6982 193.5704)" class="st1 st2">Algorithm</text>
</svg>
