<?xml version="1.0" encoding="utf-8"?>
<!-- Generator: Adobe Illustrator 25.4.1, SVG Export Plug-In . SVG Version: 6.00 Build 0)  -->
<svg version="1.1" id="Слой_1" xmlns="http://www.w3.org/2000/svg" xmlns:xlink="http://www.w3.org/1999/xlink" x="0px" y="0px"
	 viewBox="0 0 462 202" style="enable-background:new 0 0 462 202;" xml:space="preserve">
<style type="text/css">
	.st0{fill:#FFFFC8;}
	.st1{fill:#808080;}
	.st2{fill:none;stroke:#FFFFC8;stroke-width:2;stroke-miterlimit:10;}
	.st3{fill:#0005BF;}
	.st4{fill:none;stroke:#0000FF;stroke-miterlimit:10;}
	.st5{fill:#10BF00;}
	.st6{fill:#BCBF00;}
	.st7{fill:#AAACFF;}
	.st8{fill:#004000;}
	.st9{fill:#004100;}
	.st10{fill:#FFFFE4;}
	.st11{fill:#272A00;}
	.st12{font-family:'ArialMT';}
	.st13{font-size:12px;}
	.st14{fill:#DF2500;}
	.st15{fill:#2A4D5E;}
	.st16{fill:#FAE0C1;}
	.st17{fill:none;stroke:#000000;stroke-width:2;stroke-miterlimit:10;}
	.st18{fill:#007F64;stroke:#080099;stroke-miterlimit:10;}
	.st19{fill:none;stroke:#080099;stroke-miterlimit:10;}
	.st20{fill:#080099;}
	.st21{fill:#FAE0C1;stroke:#000000;stroke-width:0.5;stroke-miterlimit:10;}
	.st22{fill:#E6C92D;}
	.st23{stroke:#000000;stroke-miterlimit:10;}
	.st24{font-family:'HACKED';}
	.st25{font-size:8.8595px;}
</style>
<g>
	<path class="st0" d="M173.8,153.5c-0.7,0-1.3-0.6-1.3-1.3v-10.5c0-0.7,0.6-1.3,1.3-1.3h74.5c0.7,0,1.3,0.6,1.3,1.3v10.5
		c0,0.7-0.6,1.3-1.3,1.3H173.8z"/>
	<path d="M248.2,141c0.4,0,0.8,0.3,0.8,0.8v10.5c0,0.4-0.3,0.8-0.8,0.8h-74.5c-0.4,0-0.8-0.3-0.8-0.8v-10.5c0-0.4,0.3-0.8,0.8-0.8
		H248.2 M248.2,140h-74.5c-1,0-1.8,0.8-1.8,1.8v10.5c0,1,0.8,1.8,1.8,1.8h74.5c1,0,1.8-0.8,1.8-1.8v-10.5
		C250,140.8,249.2,140,248.2,140L248.2,140z"/>
</g>
<g>
	<rect x="177.5" y="154" class="st1" width="18" height="2"/>
</g>
<g>
	<rect x="226.5" y="154" class="st1" width="18" height="2"/>
</g>
<line class="st2" x1="235" y1="141" x2="235" y2="112"/>
<circle class="st3" cx="235" cy="113.9" r="2.9"/>
<circle class="st4" cx="235" cy="113.9" r="8"/>
<circle class="st4" cx="235" cy="113.9" r="17.8"/>
<path class="st1" d="M201.8,147H177c-0.7,0-1.2-0.6-1.2-1.2v-1.9c0-0.7,0.6-1.2,1.2-1.2h24.8c0.7,0,1.2,0.6,1.2,1.2v1.9
	C203,146.4,202.4,147,201.8,147z"/>
<circle class="st5" cx="179" cy="145" r="1"/>
<circle class="st5" cx="183" cy="145" r="1"/>
<circle class="st5" cx="187" cy="145" r="1"/>
<circle class="st5" cx="191" cy="145" r="1"/>
<circle class="st5" cx="195" cy="145" r="1"/>
<circle class="st5" cx="199" cy="145" r="1"/>
<path class="st6" d="M57.3,164H34.6c-1.5,0-2.6-1.2-2.6-2.6v-44.7c0-1.5,1.2-2.7,2.6-2.7h22.7c1.5,0,2.7,1.2,2.7,2.7v44.7
	C60,162.8,58.8,164,57.3,164z"/>
<path class="st7" d="M59,161H33v-43.4c0-1.5,1.2-2.6,2.6-2.6h20.7c1.5,0,2.7,1.2,2.7,2.7L59,161L59,161z"/>
<circle cx="46" cy="117" r="1"/>
<circle class="st8" cx="46" cy="117" r="0.5"/>
<path class="st9" d="M414.3,143h-78.6c-1.5,0-2.7-1.2-2.7-2.7v-38.6c0-1.5,1.2-2.7,2.7-2.7h78.6c1.5,0,2.7,1.2,2.7,2.7v38.6
	C417,141.8,415.8,143,414.3,143z"/>
<rect x="335" y="101" class="st7" width="80" height="40"/>
<rect x="371.5" y="143" class="st9" width="7" height="8"/>
<rect x="367.5" y="150" class="st9" width="15" height="2"/>
<path class="st9" d="M384.6,180.8h-44.3c-1.9,0-3.4-1.5-3.4-3.4v-18.1c0-1.9,1.5-3.4,3.4-3.4h44.3c1.9,0,3.4,1.5,3.4,3.4v18.1
	C388,179.3,386.5,180.8,384.6,180.8z"/>
<path class="st10" d="M372.5,179.3h-14.1c-0.5,0-1-0.4-1-1v-2.4c0-0.5,0.4-1,1-1h14.1c0.5,0,1,0.4,1,1v2.4
	C373.4,178.9,373,179.3,372.5,179.3z"/>
<path class="st10" d="M349.1,173.5h-8.2c-0.5,0-1-0.4-1-1v-2.4c0-0.5,0.4-1,1-1h8.2c0.5,0,1,0.4,1,1v2.4
	C350.1,173.1,349.7,173.5,349.1,173.5z"/>
<path class="st10" d="M384.1,173.5h-8.2c-0.5,0-1-0.4-1-1v-2.4c0-0.5,0.4-1,1-1h8.2c0.5,0,1,0.4,1,1v2.4
	C385.1,173.1,384.6,173.5,384.1,173.5z"/>
<circle class="st10" cx="342.1" cy="177.1" r="2.2"/>
<circle class="st10" cx="347.9" cy="177.1" r="2.2"/>
<circle class="st10" cx="353.8" cy="177.1" r="2.2"/>
<circle class="st10" cx="359.6" cy="171.3" r="2.2"/>
<circle class="st10" cx="365.4" cy="171.3" r="2.2"/>
<circle class="st10" cx="371.2" cy="171.3" r="2.2"/>
<circle class="st10" cx="377.1" cy="177.1" r="2.2"/>
<circle class="st10" cx="382.9" cy="177.1" r="2.2"/>
<circle class="st10" cx="342.1" cy="165.5" r="2.2"/>
<circle class="st10" cx="347.9" cy="165.5" r="2.2"/>
<circle class="st10" cx="353.8" cy="165.5" r="2.2"/>
<circle class="st10" cx="359.6" cy="165.5" r="2.2"/>
<circle class="st10" cx="365.4" cy="165.5" r="2.2"/>
<circle class="st10" cx="371.2" cy="165.5" r="2.2"/>
<circle class="st10" cx="377.1" cy="165.5" r="2.2"/>
<circle class="st10" cx="382.9" cy="165.5" r="2.2"/>
<circle class="st10" cx="342" cy="160.3" r="2.2"/>
<circle class="st10" cx="347.8" cy="160.3" r="2.2"/>
<circle class="st10" cx="353.7" cy="160.3" r="2.2"/>
<circle class="st10" cx="359.5" cy="160.3" r="2.2"/>
<circle class="st10" cx="365.3" cy="160.3" r="2.2"/>
<circle class="st10" cx="371.2" cy="160.3" r="2.2"/>
<circle class="st10" cx="377" cy="160.3" r="2.2"/>
<circle class="st10" cx="382.8" cy="160.3" r="2.2"/>
<circle class="st10" cx="353.8" cy="171.3" r="2.2"/>
<ellipse class="st11" cx="406.5" cy="168" rx="5.5" ry="8"/>
<ellipse class="st10" cx="406.5" cy="163" rx="0.5" ry="2"/>
<text transform="matrix(1 0 0 1 86.7236 132.0425)" class="st10 st12 st13">some data</text>
<text transform="matrix(1 0 0 1 268.1255 132.0423)" class="st10 st12 st13">some data</text>
<g>
	<g>
		<path class="st14" d="M72.8,148.6c21.6,0,43.3,0,64.9,0c6.2,0,12.3,0,18.5,0c1.9,0,1.9-3,0-3c-21.6,0-43.3,0-64.9,0
			c-6.2,0-12.3,0-18.5,0C70.9,145.6,70.9,148.6,72.8,148.6L72.8,148.6z"/>
	</g>
</g>
<g>
	<g>
		<path class="st14" d="M155.4,145.8c-3.9,1.3-7.4,3.2-10.6,5.7c-0.6,0.5-0.5,1.6,0,2.1c0.6,0.6,1.5,0.5,2.1,0
			c2.7-2.1,6-3.8,9.3-4.9c0.8-0.2,1.3-1,1.1-1.9C157,146.1,156.2,145.5,155.4,145.8L155.4,145.8z"/>
	</g>
</g>
<g>
	<g>
		<path class="st14" d="M145.3,143.5c0.8,0.2,1.6,0.5,2.4,0.8c0,0,0.4,0.2,0.2,0.1c-0.1-0.1,0.1,0.1,0.2,0.1
			c0.2,0.1,0.4,0.2,0.5,0.2c0.4,0.2,0.8,0.4,1.2,0.6c0.7,0.4,1.4,0.9,2.1,1.4c0.2,0.1-0.1-0.1,0.1,0c0.1,0.1,0.2,0.1,0.2,0.2
			c0.2,0.1,0.3,0.3,0.5,0.4c0.3,0.3,0.7,0.6,1,0.9c0.6,0.6,1.6,0.6,2.1,0c0.6-0.6,0.6-1.5,0-2.1c-2.7-2.7-6.1-4.6-9.8-5.6
			c-0.8-0.2-1.7,0.2-1.9,1.1C144,142.4,144.4,143.3,145.3,143.5L145.3,143.5z"/>
	</g>
</g>
<g>
	<g>
		<path class="st14" d="M73.5,148.1c4.9-0.5,9.7-2,14-4.5c1.7-1,0.2-3.6-1.5-2.6c-3.8,2.2-8.1,3.6-12.5,4.1
			c-0.8,0.1-1.5,0.6-1.5,1.5C72,147.4,72.7,148.2,73.5,148.1L73.5,148.1z"/>
	</g>
</g>
<g>
	<g>
		<path class="st14" d="M73.5,147.6c4.1,2.1,8.4,3.8,12.8,5.3c1.8,0.6,2.6-2.3,0.8-2.9c-4.2-1.4-8.2-3-12.1-5
			c-0.7-0.4-1.6-0.2-2.1,0.5C72.6,146.2,72.8,147.2,73.5,147.6L73.5,147.6z"/>
	</g>
</g>
<g>
	<g>
		<path class="st14" d="M258.3,148.6c19.3,0,38.6,0,57.9,0c1.9,0,1.9-3,0-3c-19.3,0-38.6,0-57.9,0
			C256.4,145.6,256.4,148.6,258.3,148.6L258.3,148.6z"/>
	</g>
</g>
<g>
	<g>
		<path class="st14" d="M258.5,148.6c0.8,0.1,1.7-0.2,2.4-0.7c0.3-0.2,0.7-0.5,1-0.8c0.1-0.1,0.3-0.2,0.4-0.4
			c0.1-0.1,0.1-0.1,0.2-0.2c0,0,0.3-0.2,0,0c1.2-0.9,2.4-1.7,3.8-2.4c0.7-0.4,1-1.4,0.5-2.1c-0.5-0.7-1.3-0.9-2-0.5
			c-1.2,0.7-2.4,1.4-3.5,2.3c-0.6,0.4-1.2,0.9-1.8,1.4c-0.1,0.1,0,0.1,0,0c0,0.1-0.1,0.1-0.2,0.1c-0.1,0.1-0.3,0.2-0.5,0.3
			c-0.2,0.1,0.2-0.1,0,0c-0.1,0-0.1,0-0.2,0.1c-0.2,0.1,0.2,0,0.1,0c-0.1,0-0.2,0-0.3,0c-0.8-0.1-1.5,0.8-1.5,1.5
			C257,148.1,257.6,148.6,258.5,148.6L258.5,148.6z"/>
	</g>
</g>
<g>
	<g>
		<path class="st14" d="M258.5,149.1c0.3,0.1,0.6,0.2,1,0.3c0.2,0.1,0.3,0.1,0.5,0.2c0.1,0,0.2,0.1,0.2,0.1c-0.2-0.1-0.2-0.1,0,0
			c0.6,0.3,1.1,0.5,1.7,0.8c1.2,0.6,2.2,1.3,3.3,2.1c0.6,0.4,1.7,0.1,2-0.5c0.4-0.8,0.1-1.6-0.5-2.1c-2.3-1.6-4.7-2.9-7.4-3.8
			c-0.7-0.2-1.7,0.3-1.9,1.1C257.3,148.1,257.8,148.8,258.5,149.1L258.5,149.1z"/>
	</g>
</g>
<g>
	<g>
		<path class="st14" d="M316.4,145.7c-2.7-1.2-5.3-2.4-8-3.7c-0.7-0.3-1.6-0.2-2,0.5c-0.4,0.7-0.2,1.7,0.5,2.1
			c2.7,1.2,5.3,2.4,8,3.7c0.7,0.3,1.6,0.2,2-0.5C317.3,147.1,317.1,146,316.4,145.7L316.4,145.7z"/>
	</g>
</g>
<g>
	<g>
		<path class="st14" d="M316,145.9c-1.8-0.1-3.4,0.9-4.8,1.7c-1.5,0.8-2.9,1.7-4.4,2.5c-0.7,0.4-1,1.4-0.5,2.1c0.4,0.7,1.3,1,2,0.5
			c1.4-0.8,2.8-1.6,4.1-2.4c0.6-0.4,1.2-0.7,1.9-1c0.1,0,0.2-0.1,0.3-0.1c-0.1,0.1-0.1,0,0.1,0c0.1-0.1,0.3-0.1,0.4-0.1
			c0.2-0.1,0.4-0.1,0.6-0.1c-0.3,0,0.3,0,0.4,0c0.8,0,1.5-0.7,1.5-1.5C317.5,146.6,316.9,145.9,316,145.9L316,145.9z"/>
	</g>
</g>
<g id="Слой_2_00000133521054083138404290000006745651768255820445_">
	<g>
		<g>
			<path class="st15" d="M223.1,24c0.1,0,0.1,0.1,0.2,0.2C223.2,24.1,223.1,24,223.1,24c1.2,1,2.4,2.1,3.5,3.5
				c0.2,0.3,0.7,0.4,1.1,0.4c0.4,0,0.8-0.2,1.1-0.4c0.3-0.3,0.5-0.7,0.4-1.1c0-0.1,0-0.3-0.1-0.4c-0.1-0.2-0.2-0.5-0.4-0.7
				c-1.2-1.5-2.6-2.8-4.1-3.9c-0.3-0.2-0.8-0.2-1.2-0.1c-0.4,0.1-0.7,0.4-0.9,0.7c-0.2,0.4-0.3,0.8-0.1,1.2c0.1,0.1,0.1,0.2,0.1,0.4
				C222.7,23.7,222.8,23.8,223.1,24L223.1,24z"/>
		</g>
	</g>
	<g>
		<g>
			<path class="st15" d="M217.8,29.6c-1.8,1.8-3.4,3.9-4.6,6.2c0.9,0.1,1.8,0.2,2.7,0.4c-0.2-1,0.2-1.9,0.6-2.8
				c0.4-0.9,0.8-1.8,1.3-2.6c1-1.8,2.9-2.6,4.5-3.9c2.4-2,6-6.2,9.5-4.1c1.7,1,3.2-1.6,1.5-2.6c-2.2-1.3-4.8-1-7,0
				c-2.3,1-4,2.9-5.9,4.5c-1,0.8-2.1,1.4-3.1,2.2c-1,0.8-1.8,1.8-2.4,2.9c-1.2,2.2-2.4,4.8-1.9,7.4c0.2,1.3,2.2,1.5,2.7,0.4
				c1.1-2.1,2.5-3.9,4.1-5.6C221.3,30.3,219.2,28.2,217.8,29.6L217.8,29.6z"/>
		</g>
	</g>
	<g>
		<g>
			<path class="st15" d="M216.4,37.6c4.1-1.7,8.3-2.9,12.7-3.2c2.1-0.2,4.3-0.1,6.4,0.2c1,0.2,2.1,0.4,3.1,0.6
				c0.8,0.2,2.6,0.5,3.1,1.2c1,1.7,3.6,0.2,2.6-1.5c-0.8-1.5-1.6-3-2.3-4.5c-0.6-1.4-1.1-3-1.8-4.4c-1.3-2.6-4.1-4.8-6.9-5.5
				c-3.4-0.8-5.9,1.6-8.5,3.3c-2.7,1.9-5.8,3.6-8.2,6c0.8,0.6,1.6,1.2,2.4,1.8c0.9-1.4,1.9-2.7,3.3-3.7c-0.7-0.6-1.5-1.1-2.2-1.7
				c-1,2.8-3.2,4.9-4.3,7.7c-0.7,1.7,1.8,2.4,2.7,1.2c1.7-2.5,3.4-4.9,5.2-7.4c-0.9-0.4-1.8-0.8-2.7-1.2c-0.4,1.7-0.9,3.3-1.7,4.9
				c-0.8,1.7,1.6,3.2,2.6,1.5c0.8-1.4,1.4-2.9,1.9-4.4c0.5-1.6-1.9-2.7-2.7-1.2c-0.8,1.5-1.5,3.1-2.1,4.8c-0.7,1.8,2.2,2.6,2.9,0.8
				c0.6-1.6,1.3-3.1,1.9-4.7c-1-0.3-1.9-0.5-2.9-0.8c-0.5,1.6-0.8,3.3-1.1,5c-0.3,1.9,2.4,2.7,2.9,0.8c0.4-1.8,1-3.5,1.8-5.2
				c-0.9-0.4-1.8-0.8-2.7-1.2c-0.4,2.1-0.7,4.2-1,6.4c-0.2,1.3,1.4,2.7,2.5,1.5c1.8-1.9,1.4-4.4,2.6-6.6c-0.9-0.4-1.8-0.8-2.7-1.2
				c-0.3,1.1-0.6,2.2-0.9,3.2c-0.5,1.9,2.2,2.5,2.9,0.8c0.5-1.3,0.9-2.6,1.1-3.9c-1-0.1-2-0.3-2.9-0.4c-0.1,1.8-0.2,3.6-0.2,5.4
				c-0.1,1.5-0.4,2.9,0.7,4.1c0.3,0.4,1,0.6,1.5,0.4c1.4-0.6,2-1.7,2.3-3.2c0.4-1.9,0.8-3.8,1-5.7c0.3-1.9-2.4-2.7-2.9-0.8
				c-0.1,0.5-0.2,0.9-0.3,1.4c-0.5,1.9,2.4,2.7,2.9,0.8c0.1-0.5,0.2-0.9,0.3-1.4c-1-0.3-1.9-0.5-2.9-0.8c-0.2,1.3-0.4,2.6-0.7,3.9
				c-0.1,0.4-0.3,2.8-0.6,2.9c0.5,0.1,1,0.3,1.5,0.4c0.2,0.3,0,0.3,0.1,0c0.1-0.3,0-0.7,0-1c0-0.7,0.1-1.5,0.1-2.2
				c0.1-1.4,0.1-2.8,0.2-4.2c0.1-1.7-2.6-2.1-2.9-0.4c-0.2,1.4-0.6,2.6-1.1,3.9c1,0.3,1.9,0.5,2.9,0.8c0.3-1.1,0.6-2.2,0.9-3.2
				c0.4-1.6-1.9-2.7-2.7-1.2c-0.5,1-0.8,2-1.1,3.1c-0.2,1-0.4,2.1-1.1,2.8c0.8,0.5,1.7,1,2.5,1.5c0.3-2.1,0.6-4.2,1-6.4
				c0.3-1.5-2-2.8-2.7-1.2c-0.9,1.9-1.6,3.9-2.1,5.9c1,0.3,1.9,0.5,2.9,0.8c0.3-1.7,0.6-3.3,1.1-5c0.6-1.9-2.2-2.5-2.9-0.8
				c-0.6,1.6-1.3,3.1-1.9,4.7c1,0.3,1.9,0.5,2.9,0.8c0.5-1.4,1.1-2.8,1.8-4.1c-0.9-0.4-1.8-0.8-2.7-1.2c-0.4,1.3-0.9,2.5-1.6,3.7
				c0.9,0.5,1.7,1,2.6,1.5c0.9-1.8,1.5-3.7,2-5.6c0.4-1.7-1.8-2.5-2.7-1.2c-1.7,2.5-3.4,4.9-5.2,7.4c0.9,0.4,1.8,0.8,2.7,1.2
				c1.1-2.7,3.3-4.8,4.3-7.7c0.4-1.2-1.2-2.5-2.2-1.7c-1.8,1.3-3.2,2.9-4.4,4.8c-0.9,1.5,1.1,3,2.4,1.8c2-2,4.5-3.4,6.8-4.9
				c1.3-0.9,2.5-1.7,3.8-2.6c1.2-0.8,2.2-1.4,3.6-0.9c2.5,0.8,4.2,2.7,5.1,5.1c1,2.7,2.1,5.3,3.6,7.8c0.9-0.5,1.7-1,2.6-1.5
				c-1.1-1.9-4.1-2.5-6.2-2.9c-2.5-0.5-5.1-0.8-7.6-0.7c-5.1,0.2-10.1,1.5-14.9,3.4C213.8,35.4,214.6,38.3,216.4,37.6L216.4,37.6z"
				/>
		</g>
	</g>
	<g>
		<g>
			<path class="st15" d="M229,24.1c-0.3,1.9-0.6,3.7-1.1,5.6c1,0.1,2,0.3,2.9,0.4c0-1.7,0-3.5,0-5.2c0-0.7-0.5-1.3-1.1-1.5
				c-0.6-0.2-1.4,0.1-1.7,0.7c-0.9,1.9-1.5,3.9-1.8,6.1c1,0.1,2,0.3,2.9,0.4c0.1-2,0.1-3.9,0.2-5.9c0.1-1.7-2.6-2-2.9-0.4
				c-0.3,1.3-0.5,2.7-0.5,4.1c0,0.7,0,1.4,0.2,2.1c0.4,0.8,1.2,1.4,2.2,1.2c1.5-0.4,1.6-2.3,1.9-3.6c0.3-1.4,0.6-2.7,0.9-4
				c-1,0-1.9,0-2.9,0c0.2,1.1,0,2.4-0.1,3.5c-0.1,1.3-0.1,2.6,0.3,3.9c0.3,0.9,1.4,1.4,2.2,0.9c1.3-0.8,1.4-2.2,1.5-3.6
				c0.1-1.4,0.1-2.7,0.1-4.1c0-0.8-0.7-1.5-1.5-1.5c-0.9,0-1.4,0.7-1.5,1.5c-0.1,2.6-0.2,5.3,1.1,7.6c0.3,0.6,1.1,0.9,1.7,0.7
				c0.7-0.2,1-0.8,1.1-1.5c0.3-2.4,0.4-4.8,0.3-7.2c0-0.8-0.7-1.5-1.5-1.5c-0.8,0-1.5,0.7-1.5,1.5c0.1,2.5,0.3,5,1.4,7.3
				c0.5,1.1,2,0.8,2.6,0c0.8-1.1,0.6-2.7,0.5-4c-0.1-1.5-0.3-2.9-0.6-4.3c-0.1-0.8-1.1-1.2-1.9-1c-0.9,0.2-1.2,1-1.1,1.9
				c0.3,2.5,1.1,4.9,2.2,7.1c0.6,1.2,2.4,0.8,2.7-0.4c0.7-2.3,0-4.6-0.7-6.8c-0.2-0.6-0.8-1.1-1.4-1.1c-0.6,0-1.3,0.5-1.4,1.1
				c-0.6,3-0.2,6,1.1,8.7c0.4,0.9,1.7,0.9,2.4,0.3c1-0.9,0.9-2.4,0.9-3.6c0-1.3,0-2.7,0.1-4c-1,0.1-2,0.3-2.9,0.4
				c0.9,2.4,1.9,4.7,2.8,7.1c0.3,0.8,1,1.3,1.9,1c0.8-0.2,1.2-1,1.1-1.8c-0.2-0.9-0.4-1.9-0.7-2.8c-0.2-0.8-1.1-1.3-1.9-1
				c-0.8,0.2-1.2,1-1.1,1.9c0.2,0.9,0.4,1.9,0.7,2.8c1-0.3,1.9-0.5,2.9-0.8c-0.9-2.4-1.9-4.7-2.8-7c-0.3-0.7-0.9-1.2-1.6-1.1
				c-0.7,0.1-1.3,0.7-1.3,1.5c0,1.1,0,2.2-0.1,3.4c0,0.6,0,1.1,0,1.7c0,0.1,0,0.6,0,0.4c-0.1,0.2-0.1,0.2,0,0.1c0.1-0.1,0.1-0.1,0,0
				c0.8,0.1,1.6,0.2,2.4,0.3c-0.9-2-1.2-4.3-0.8-6.4c-1,0-1.9,0-2.9,0c0.6,1.7,1.2,3.5,0.7,5.2c0.9-0.1,1.8-0.2,2.7-0.4
				c-1-2-1.6-4.2-1.9-6.4c-1,0.3-1.9,0.5-2.9,0.8c0.2,1.1,0.4,2.2,0.5,3.3c0.1,0.5,0.1,1.1,0.1,1.7c0,0.6,0.1,0.7-0.2,1
				c0.9,0,1.7,0,2.6,0c-0.9-1.8-0.9-3.8-0.9-5.8c-1,0-2,0-3,0c0.1,2.4,0,4.8-0.3,7.2c0.9-0.2,1.9-0.5,2.8-0.8c-1-1.8-0.8-4-0.7-6.1
				c-1,0-2,0-3,0c0,1.1,0,2.2,0,3.2c0,0.5-0.1,1-0.1,1.6c0,0.2,0,0.2,0,0c0,0.1,0,0.2-0.1,0.3c-0.1,0.3,0,0,0.1-0.1
				c0.7,0.3,1.5,0.6,2.2,0.9c-0.3-1.1-0.2-2.3-0.1-3.5c0.1-1.3,0.2-2.6,0-3.9c-0.1-0.6-0.9-1.1-1.4-1.1c-0.6,0-1.3,0.5-1.4,1.1
				c-0.2,1.1-0.5,2.1-0.7,3.2c-0.1,0.5-0.2,1-0.4,1.5c-0.1,0.3-0.1,0.5-0.2,0.8c0,0.1-0.1,0.3-0.1,0.4c-0.1,0.2-0.1,0.3,0,0.1
				c0.2-0.2,0.4-0.4,0.5-0.5c0.1,0,0.1,0,0.1-0.1c0.3,0,0.5,0,0.8,0c0.4,0.1,0.6,0.4,0.6,0.7c0-0.1,0-0.1,0-0.2c0-0.2,0-0.4,0-0.6
				c0-0.4,0-0.8,0.1-1.2c0.1-0.8,0.2-1.5,0.4-2.3c-1-0.1-2-0.3-2.9-0.4c-0.1,2-0.1,3.9-0.2,5.9c0,0.7,0.6,1.4,1.3,1.5
				c0.7,0.1,1.5-0.3,1.6-1.1c0.3-1.8,0.8-3.6,1.5-5.3c-0.9-0.2-1.9-0.5-2.8-0.8c0,1.7,0,3.5,0,5.2c0,1.7,2.5,2,2.9,0.4
				c0.5-1.8,0.9-3.7,1.1-5.6c0.1-0.8-0.2-1.6-1.1-1.9C230.2,22.9,229.1,23.3,229,24.1L229,24.1z"/>
		</g>
	</g>
	<g>
		<g>
			<path class="st15" d="M224,62.6c-1.4,0.1-3,0.5-3.4,2.1c-0.2,0.8,0.2,1.6,1,1.9c0.3,0.1,0.6,0.2,1,0.3c0.6,0.1,1.3,0.2,2,0.1
				c0.7-0.1,1.4-0.2,2.1-0.4c0.7-0.2,1.4-0.5,2-0.9c0.5-0.4,0.7-1.1,0.6-1.8c-0.1-0.5-0.5-0.9-0.9-1.2c-0.5-0.3-1.2-0.5-1.8-0.6
				c-1.4-0.3-2.9-0.4-4.4-0.4c-0.8,0-1.5,0.7-1.5,1.5c0,0.8,0.7,1.5,1.5,1.5c1,0,1.9,0,2.9,0.1c0.3,0-0.3-0.1,0,0
				c0.1,0,0.2,0,0.4,0.1c0.2,0,0.4,0.1,0.6,0.1c0.2,0.1,0.5,0.1,0.7,0.2c0.1,0,0.5,0.1,0.2,0.1c-0.1-0.1-0.1-0.1,0,0
				c0.3,0.2,0.1,0-0.4-0.6c-0.1-0.6,0.1-1,0.5-1.3c0,0,0,0-0.1,0c-0.1,0-0.2,0.2-0.3,0.2c0.2-0.1,0.2-0.1,0.1,0
				c-0.1,0-0.1,0-0.1,0.1c-0.1,0-0.2,0.1-0.3,0.1c-0.4,0.2-0.9,0.3-1.3,0.4c-0.1,0-0.1,0-0.2,0c-0.2,0-0.1,0,0.1,0c0,0-0.3,0-0.3,0
				c-0.2,0-0.5,0-0.7,0c-0.1,0-0.2,0-0.3,0c0.2,0,0.3,0,0.1,0c-0.1,0-0.1,0-0.2,0c-0.1,0-0.2,0-0.3-0.1c-0.1,0-0.1,0-0.2-0.1
				c-0.3-0.1-0.1,0,0.4,0.2c0.1,0.2,0.3,0.4,0.4,0.7c0,0,0-0.1,0-0.1c0,0.3,0,0.5,0,0.8c0-0.3-0.2,0.3,0,0.1
				c-0.2,0.2-0.2,0.2-0.1,0.1c0,0,0,0,0.1-0.1c-0.2,0.2-0.2,0.2-0.1,0.1c0,0,0,0,0.1,0c0.2-0.2-0.4,0.1,0,0c0.1-0.1,0.3-0.1,0.5-0.1
				s-0.4,0.1-0.1,0c0.1,0,0.2,0,0.3,0c0.8-0.1,1.5-0.7,1.5-1.5C225.5,63.3,224.9,62.5,224,62.6L224,62.6z"/>
		</g>
	</g>
	<g>
		<g>
			<path class="st15" d="M218.7,59.1c-0.1,2.5,0.7,5.3,2.9,6.7c1,0.7,2.4,1,3.5,0.3c1.3-0.9,1-2.5,0.4-3.7c-0.6-1.1-1.6-2.4-2.9-2.6
				c-1.6-0.2-2.4,1.2-2.7,2.5c-0.4,1.4-0.2,3,0.9,4c0.9,0.9,2.4,1.2,3.6,0.5c2.2-1.2,3.5-4.9,1.4-6.7c-2.2-1.8-5.8,1.1-5.3,3.6
				c0.6,3,4.9,2,6-0.1c1.5-2.8-1.6-5.3-4-5.9c-1.4-0.4-3.4,0-3.7,1.6c-0.3,1.5,1.3,2.7,2.7,2c3.2-1.5-0.7-6.2-2.6-7.1
				c-0.4,0.9-0.8,1.8-1.2,2.7c2.4,0.6,3.2-2,2.1-3.7c-0.4-0.6-1-0.9-1.7-0.7c-1.3,0.3-2.1,1.8-1.5,3.1c0.7,1.4,2.5,1.4,3.4,0.3
				c0.4-0.5,0.6-1.1,0.4-1.7c-0.1-0.2-0.8-1.3-0.9-1.2c-0.2,0.7,2.9,1.9,3.5,2.1c1.5,0.5,3.1,0.8,4.7,1.1c2,0.3,4,0.5,6,0.1
				c3.1-0.7,6.1-1.4,9.2-0.2c3.1,1.2,4.6,4,5.7,6.9c0.5,1.4,1,2.8,1.6,4.2c0.3,0.8,0.7,1.6,0.8,2.5c0.1,1.1-0.3,2.1-0.9,3
				c-0.3,0.5-0.6,1.3-1.1,1.7c-0.6,0.5-1.5,0.5-2.3,0.6c-2.1,0.2-4.2,0.5-6.4,0.6c-3.9,0.2-7.9-0.3-11.8-0.1
				c-4.4,0.2-8.7,0.6-13.1,0.1c-2.1-0.2-4.1-0.5-6.2-0.9c-0.9-0.2-1.2-0.4-1.6-1.3c-0.4-1-0.8-2.1-1.2-3.1c-0.7-1.8-3.6-1-2.9,0.8
				c0.6,1.6,1.1,3.6,2.2,5c1.1,1.4,2.9,1.5,4.5,1.8c4.1,0.6,8.3,1.2,12.4,1c4.3-0.2,8.5-0.6,12.8-0.3c4.1,0.2,8.3-0.1,12.4-0.6
				c1.8-0.2,3.2-0.9,4.2-2.4c1-1.5,1.9-3.3,2-5.1c0.1-1.9-0.8-3.6-1.4-5.3c-0.6-1.6-1.1-3.3-1.8-4.9c-1.4-3.2-3.5-5.6-6.8-6.9
				c-3.2-1.2-6.6-1-9.9-0.2c-2.3,0.6-4.4,0.4-6.8,0c-2-0.4-3.9-0.9-5.6-2c-1.4-1-3.1-1.4-4.4,0c-0.5,0.5-0.8,1.3-0.8,2.1
				c0,1.1,0.9,2.7,2.3,2.3c-0.6-0.2-1.1-0.5-1.7-0.7c0.3,0.7,0.8,0.5,1.3-0.7c-1.6-0.4-2.7,2-1.2,2.7c0.6,0.3,1.1,0.7,1.5,1.3
				c0.2,0.2,0.3,0.5,0.5,0.8c0.1,0.1,0.1,0.2,0.2,0.3c0.3,0.8,1,0.7,2-0.3c0.1,0.4,0.1,0.8,0.1,1.2c-0.4,0.3-0.4,0.5,0,0.5
				c0.2,0,0.4,0.1,0.6,0.2c0.4,0.2,0.9,0.4,1.2,0.8c0.2,0.2,0.3,0.3,0.3,0.6c-0.1,0.2-0.2,0.3-0.3,0.3c-0.1,0.1-0.3,0.1-0.5,0.1
				c0.3,0.6,0.5,0.7,0.7,0.3c0.1-0.2,0.3-0.3,0.5-0.5c-0.4-0.2-0.5-0.2-0.3,0.1c-0.3,0.3-0.4,1-0.7,1.3c-0.3,0.4-0.2,0.5-0.4,0.1
				c-0.1-0.2,0-1.4,0.2-1.5c-0.4,0-0.8,0.1-1.2,0.2c0.3,0,0.6,0.3,0.8,0.6c0.1,0.1,0.4,0.9,0.5,0.9c0.2-0.2,0.4-0.5,0.7-0.7
				c-0.1,0-0.2-0.1-0.4-0.2c-0.1-0.2-0.5-0.4-0.6-0.6c-0.8-1-0.9-2.4-0.9-3.6C221.8,57.1,218.8,57.1,218.7,59.1L218.7,59.1z"/>
		</g>
	</g>
	<g>
		<g>
			<path class="st15" d="M205.8,70.7c-0.2-1.2-0.3-2.2,0.6-3.1c0.9-0.8,1.9-1.4,2.7-2.3c1.6-1.8,2.6-4,3.5-6.1
				c0.5-1.2-0.3-2.5-1.7-2.2c-3,0.7-4.3,4.5-5.2,7c1,0.1,2,0.3,2.9,0.4c-0.3-2.5,1.9-4.1,3.4-5.7c1.5-1.6,3-3.8,5.4-3.6
				c-0.5-0.6-1-1.3-1.4-1.9c-0.5,2.1-1.1,4.2-1.6,6.3c1,0.1,2,0.3,2.9,0.4c-0.1-1.5-0.3-2.9-0.6-4.3c-0.4-1.6-2.4-1.2-2.9,0
				c-0.9,2.1-1.5,4.3-1.9,6.6c1,0.1,2,0.3,2.9,0.4c0.1-2.3,0.1-4.6,0-6.9c-0.1-1.7-2.4-2-2.9-0.4c-0.9,2.7-1.4,5.4-1.7,8.1
				c-0.1,1.7,2.5,2,2.9,0.4c0.3-1.3,0.5-2.6,0.6-3.9c0.1-1.5-2.1-2-2.8-0.8c-0.6,1.1-1.2,2.2-1.6,3.4c-0.2,0.5-0.3,1.1-0.5,1.6
				c-0.1,0.3-0.1,0.7-0.2,1c0,0.1,0,0.3-0.1,0.4c-0.1,0.3,0,0.3,0.3-0.1c0.4-0.1,0.8-0.1,1.2-0.2c-2.9-0.8-4.4,3.5-4.9,5.8
				c1,0,1.9,0,2.9,0c-0.4-1.1-0.9-2.2-1.3-3.4c-0.5-1.3-1.9-1.4-2.7-0.4c-1.3,1.7,0.9,4.3,1.7,5.8c0.5,0.8,0.9,1.9,1.5,2.6
				c0.7,0.8,1.7,0.7,2.7,0.7c5,0.2,10,0.2,15,0.2s10-0.2,15-0.3c3.5-0.1,10.4,0.6,10.7-4.4c0-0.7-0.5-1.3-1.1-1.4
				c-5-1.4-10.2-0.6-15.3-0.3c-5.3,0.2-10.7,0.1-16-0.1c-1.2-0.1-2.5-0.1-3.7-0.2c-0.7,0-1.3-0.1-2-0.1c-0.7,0-1.8,0.1-2.4-0.2
				c-0.8-0.4-1.1-1.8-1.1-2.6c-0.1-1.2,0.4-1.6,1.6-1.7c2.4,0,3.9,1.9,5.6,3.3s3.7,2.5,5.8,3.3c2,0.8,4.2,1.2,6.3,1.2
				c2,0.1,4.4-0.1,6.1-1.2c3.9-2.6,1.2-7.8-2.2-9.3c-4.2-1.9-8.6-0.2-12.3,2c-0.9,0.5-1.7,1.2-2.7,1.6c-0.3,0.1-1,0.4-1.4,0.2
				c-0.4-0.2-0.4-0.9-0.4-1.3c0-0.9,0.4-1.8,0.9-2.6c0.3-0.4,0.6-0.7,1-1c0.5-0.3,0.7-0.5,1.1-0.2c0.8,0.6,1.4,1.9,1.9,2.8
				c0.6,1,1.1,1.9,1.9,2.8c1.5,1.9,3.8,3.2,5.8,1.1c1.4-1.5,2.9-4.3,2.3-6.3c-0.7-2.5-3.4-2.5-5.4-1.8c-1.8,0.7-1,3.6,0.8,2.9
				c0.4-0.1,0.8-0.3,1.2-0.3c0.5,0,0.4-0.1,0.5,0.3c0,0.9-0.8,2.2-1.3,2.8c-0.4,0.6-0.4,0.6-0.9,0.2c-0.4-0.4-0.7-0.7-1-1.1
				c-0.6-0.9-1.1-1.8-1.7-2.7c-0.9-1.6-2.2-3.8-4.2-3.8c-1.9,0-3.6,1.6-4.6,3c-1.1,1.6-1.6,3.9-1,5.8c0.6,2.1,2.8,2.8,4.8,2.3
				c2.1-0.5,3.9-2.2,5.8-3.2c1.9-1,4-1.7,6.1-1.3c1.7,0.3,3.8,1.3,3.9,3.2c0.2,2.2-3.4,2.1-4.8,2.1c-4.6-0.1-8.5-2.1-11.9-5.1
				c-1.6-1.5-3.4-2.6-5.7-2.7c-2-0.1-4.1,0.6-4.8,2.6c-0.7,1.9-0.1,4.4,1,6c1.4,2,4,1.7,6.2,1.8c6,0.3,12,0.6,18,0.5
				c5.6-0.1,11.6-1.4,17.2,0.1c-0.4-0.5-0.7-1-1.1-1.4c-0.1,1.4-3.3,1.2-4.2,1.2c-2,0.1-4,0.2-6,0.2c-4,0.1-8,0.2-12,0.2
				c-4,0-8,0-12-0.1c-1,0-2-0.1-3-0.1c-0.4,0-0.9-0.2-1.2,0c-0.5-0.1-0.4,0.1,0.3,0.3c-0.1-0.2-0.2-0.4-0.4-0.6
				c-0.5-0.8-0.9-1.7-1.4-2.5c-0.2-0.4-0.5-0.8-0.7-1.3c-0.1-0.2-0.2-0.4-0.4-0.6c-0.1-0.3-0.1-0.3-0.1,0.2
				c-0.9-0.1-1.8-0.2-2.7-0.4c0.4,1.1,0.9,2.2,1.3,3.4c0.5,1.2,2.6,1.6,2.9,0c0.1-0.6,0.3-1.2,0.5-1.8c0.2-0.6,0.7-1.1,0.9-1.7
				c0.1-0.1,0.2-0.2,0.2-0.3c-0.2,0-0.5,0.1-0.7,0.1c0,0.1,0.7,0.1,0.8,0.1c0.5-0.1,1-0.4,1.3-0.8c0.6-0.8,0.5-2.1,0.8-3.1
				c0.4-1.3,0.9-2.5,1.6-3.7c-0.9-0.2-1.9-0.5-2.8-0.8c-0.1,1.1-0.2,2.1-0.5,3.1c1,0.1,2,0.3,2.9,0.4c0.2-2.5,0.8-5,1.6-7.4
				c-1-0.1-2-0.3-2.9-0.4c0.1,2.3,0.1,4.6,0,6.9c-0.1,1.7,2.7,2.1,2.9,0.4c0.4-2.3,1-4.5,1.9-6.6c-1,0-1.9,0-2.9,0
				c0.3,1.2,0.4,2.3,0.5,3.5c0.1,1.6,2.5,2.1,2.9,0.4c0.5-2.1,1.1-4.2,1.6-6.3c0.3-1-0.5-1.8-1.4-1.9c-3.3-0.2-5.5,2.2-7.5,4.5
				c-2.1,2.2-4.7,4.5-4.3,7.8c0.2,1.7,2.3,2,2.9,0.4c0.5-1.4,1.5-4.5,3.1-4.9c-0.6-0.7-1.1-1.5-1.7-2.2c-1.1,2.6-2.2,5.1-4.5,6.9
				c-1,0.8-2,1.6-2.5,2.9c-0.5,1.3-0.3,2.8-0.1,4.2C203.2,73.3,206.1,72.5,205.8,70.7L205.8,70.7z"/>
		</g>
	</g>
	<g>
		<g>
			<path class="st15" d="M209.5,62.2c-1,2.6-2.1,5.2-3,7.7c-0.2,0.6,0.2,1.4,0.7,1.7c3.3,2,4.1-4.9,4.4-6.7c0.3-1.9-2.4-2.7-2.9-0.8
				c-0.8,3.4-1.1,6.8-1,10.2c1-0.1,2-0.3,2.9-0.4c-0.4-2.7-0.1-5.3,0.6-7.9c-1-0.1-2-0.3-2.9-0.4c0.2,2.7,0.5,5.3,0.8,8
				c0.2,1.7,2.3,2,2.9,0.4c1.2-3.2,0.5-6.6,1.4-9.8c-1-0.3-1.9-0.5-2.9-0.8c-0.5,3.3-0.8,6.6-0.7,10c0,1.3,1.6,1.9,2.6,1.1
				c1.3-1.2,1.3-3.3,1.6-4.9c0.3-2,0.6-4.1,0.9-6.1c-1,0-2,0-3,0c-0.2,3.4-0.4,6.7-0.2,10.1c0.1,1.6,2.6,2.2,2.9,0.4
				c0.6-2.9,1-5.8,1.3-8.8c0.1-1.7-2.5-2-2.9-0.4c-0.7,2.7-0.7,5.4-0.1,8.2c0.3,1.4,2.6,1.4,2.9,0c0.7-3,1-6.1,1.1-9.2
				c0.1-1.9-2.9-1.9-3,0c-0.1,1.9-0.2,3.8-0.4,5.7c-0.1,1.7-0.3,3.2,0.4,4.7c0.6,1.2,2.4,0.8,2.7-0.4c0.9-3.1,1.4-6.3,1.5-9.5
				c0.1-2-2.8-1.9-3,0c-0.2,2.3-0.3,4.6-0.3,6.9c0,1.7,2.5,2.1,2.9,0.4c1-3.5,0.9-7.2,0.8-10.8c-0.1-1.9-3-1.9-3,0
				c0,1.1,0.3,2.1,0.7,3.1c0.5,1.2,2.5,0.8,2.7-0.4c0.3-1.2,0.4-2.4,0.2-3.6c-0.2-1.9-2.9-2-3,0c-0.1,1.7-0.6,6.3,2.3,5.8
				c2.5-0.4,2-4.1,1.3-5.7c-0.5-1.2-2.5-0.8-2.7,0.4c-0.3,1.5-0.3,2.9,0.1,4.3c0.4,1.4,2.5,1.4,2.9,0c0.5-2-0.5-3.5-0.8-5.4
				c-0.2-1,0.4-1.6,0.9-2.4c0.7-1,1.3-2,2-3.1c-0.9-0.2-1.9-0.5-2.8-0.8c0,2.5,0.4,4.9,1.1,7.2c0.4,1.3,2.6,1.6,2.9,0
				c0.3-1.8,0.5-3.6,0.7-5.4c-1,0-2,0-3,0c0,1,0.2,1.8,0.7,2.6c0.5,1,2.1,1,2.6,0c0.4-0.8,0.6-1.6,0.7-2.6c0.1-1.4-2.2-2.1-2.8-0.8
				c-1,2.1-0.4,4.3,1.5,5.7c0.7,0.5,2.1,0,2.2-0.9c0.2-1,0.3-2,0.5-3c-1-0.1-2-0.3-2.9-0.4c-0.1,1.6-0.2,3.3-0.1,4.9
				c0.1,1.4,1.5,1.9,2.6,1.1c1.8-1.4,2-3.7,2.1-5.8c-1,0-2,0-3,0c0,1.8-0.8,5.9,2,6.1c2.6,0.2,3.2-4.1,3.3-5.9c-1,0-2,0-3,0
				c-0.1,1.8-0.2,3.6-0.3,5.4c-0.1,1.2,1.3,1.8,2.3,1.3c2.3-1.2,2.9-4.8,3.4-7.1c-1-0.3-1.9-0.5-2.9-0.8c-0.3,1.7-0.4,3.5-0.3,5.2
				c0.1,1.5,2,2,2.8,0.8c1-1.6,1.6-3.4,2-5.2c-1-0.1-2-0.3-2.9-0.4c0,1.4,0,2.7,0,4.1c0,1.1,0.1,2.2,1.2,2.7c2.5,1,3.3-3.3,3.4-4.8
				c0.2-1.7-2.7-2.1-2.9-0.4c-0.3,1.7-0.6,5.5,2.3,4.7c2.1-0.6,2.9-3.7,1.8-5.4c-0.6,0.7-1.1,1.5-1.7,2.2c0.9,0.1,1.6,0.6,2.5,0.4
				c0.8-0.2,1.4-0.8,1.6-1.6c0.4-1.8-1.8-3.1-3.2-1.8c-1.3,1.2-0.6,3.3,0.8,4.1c1.4,0.8,3.2,0.2,4-1.2c0.8-1.3,0.3-3.5-1.4-3.8
				c-1.9-0.4-3.1,1.7-2.8,3.3c0.8,3.9,6.2,3.1,6.3-0.6c0.1-1.6-2-1.9-2.8-0.8c-0.6,0.8-0.5,1.9,0.1,2.7c0.6,0.9,1.7,1.1,2.7,1.2
				c1.1,0.1,1.6-1,1.4-1.9c-0.2-1.2-0.9-2-1.8-2.7c-0.6-0.4-1.8-0.2-2.1,0.5c-1.5,3.5,2.6,6.7,5.9,5.8c1.5-0.4,2.6-2,2.1-3.5
				c-0.5-1.6-2.4-2.1-3.8-1.2c-3.4,2.1,1.4,7.2,3.4,3.9c0.8-1.4-0.1-3.2-1.5-3.6c-1.7-0.5-3.2,1-3.2,2.6c1-0.1,2-0.3,2.9-0.4
				c-0.1-0.7-0.4-1.2-0.9-1.7c-0.7-0.9-2.3-0.4-2.5,0.7c-0.3,1.3-0.1,2.5,0.6,3.7c0.4,0.5,0.8,1,1.3,1.3c0.4,0.3,1.2,0.4,1.6,0.8
				c0.7,0.8,0.1,2.7,0,3.6c-0.1,1.4,0.2,2.6,1.1,3.8c1,1.2,2.8-0.1,2.5-1.5c-0.3-1.3-0.6-2.7-1-4c-1,0.3-1.9,0.5-2.9,0.8
				c0.6,2.4,1.8,4.6,3.5,6.5c1,1.1,3-0.1,2.5-1.5c-1-2.9-2.1-5.8-3.1-8.7c-0.4-1.1-2.1-1.6-2.7-0.4c-1.2,2.4-1.8,5-1.7,7.6
				c0,0.8,0.7,1.5,1.5,1.5c1.9,0.1,2.2-1.9,2.3-3.3c0.2-2,0-3.9-0.3-5.8c-0.3-1.4-2.6-1.4-2.9,0c-0.5,2.4-0.9,4.8-1.3,7.3
				c-0.3,1.9,2.5,2.7,2.9,0.8c0.5-2.6,0.3-5.3-0.7-7.7c-0.6-1.3-2.4-1.5-2.9,0c-0.6,1.6-1,3.3-1.2,5c-0.2,1.3-0.1,2.6,1.4,3.1
				c0.7,0.2,1.7-0.3,1.9-1.1c0.5-2.5,0.4-5.1-0.4-7.5c-0.5-1.5-2.4-1.4-2.9,0c-0.6,1.8-0.9,3.7-0.7,5.6c0.2,1.6,2.4,2.1,2.9,0.4
				c0.7-2.4,0.7-4.9-0.2-7.3c-0.3-0.9-1.3-1.4-2.2-0.9c-1.3,0.7-1.3,2.2-1.5,3.5c-0.3,1.7-0.5,3.4-0.8,5.1c-0.3,1.9,2.1,2.6,2.9,0.8
				c1.1-2.8,1.3-5.8,0.6-8.7c-0.4-1.4-2.5-1.4-2.9,0c-0.7,2.8-1.2,5.5-1.6,8.3c1,0,2,0,3,0c0.2-2.6,0.1-5.2-0.3-7.8
				c-0.2-1.5-2.5-1.3-2.9,0c-0.7,2.3-1.2,4.7-1.5,7.1c-0.1,1,1.1,1.7,1.9,1.4c1.7-0.5,2.3-2.1,2.6-3.7c0.4-2,0.3-4,0-6.1
				c-0.3-1.4-2.7-1.5-2.9,0c-0.3,2-0.6,4-0.8,6c-0.1,0.6,0.5,1.4,1.1,1.4c3.4,0.5,3.3-5,3-7.2c-0.1-0.9-0.6-1.4-1.5-1.5
				c-0.7-0.1-1.7,0.4-2,1.1c0,0-0.2,0.2-0.2,0.3c-0.1-0.2,1.4,0.5,1-0.2c-0.2-0.4-0.9-0.7-1.3-0.9c-1.8-0.8-3.8-0.4-5.2,0.9
				c-1.3,1.2,0.4,3.1,1.8,2.4c0.9-0.5,1.8-0.9,2.7-1.4c1.5-0.8,0.5-3.1-1.2-2.7c-3.2,0.8-6.3,1.9-9.2,3.4c-1.5,0.8-0.4,3.4,1.2,2.7
				c2.5-1,5.1-1.7,7.7-2.2c-0.6-0.7-1.1-1.5-1.7-2.2c-1.2,2.2-1.9,4.6-1.7,7.1c0.1,1.7,2.5,2.1,2.9,0.4c0.6-2,0.9-4,1-6.1
				c0.1-1.7-2.7-2.1-2.9-0.4c-0.4,2.5-0.7,5,0,7.4c0.4,1.3,2.6,1.5,2.9,0c0.4-2.2,0.8-4.4,1.2-6.7c0.3-1.9-2.4-2.7-2.9-0.8
				c-0.6,2.2-0.8,4.5-0.8,6.8c0,0.7,0.5,1.3,1.1,1.4c2.8,0.8,2.9-3.3,3.1-5.1c-1-0.1-2-0.3-2.9-0.4c-0.1,1.9,0.2,3.9,0.8,5.7
				c0.5,1.4,2.4,1.4,2.9,0c0.7-2,1-4,1-6.1c0-1.7-2.5-2-2.9-0.4c-0.8,2.6-1.1,5.2-0.9,7.9c0.1,1.9,3,2,3,0c0-2.6-1.6-5.3-4.4-5.6
				c-1.6-0.2-3.1,0.5-4.6,0.8c-1.7,0.4-3.4,0.3-5.1-0.2c-0.1,1-0.3,2-0.4,2.9c2.4,0.3,3.6-2.8,1.9-4.3c-0.9-0.7-2.1-0.8-3-0.2
				c-1.1,0.6-1.4,1.7-2.2,2.5c0.8,0.2,1.7,0.4,2.5,0.7c-0.2-1.3-1.3-2.8-2.9-2.3c-1.6,0.5-2,2.5-1.9,3.9c0.1,1.1,1.2,2,2.3,1.3
				c1.3-0.9,2.2-2.1,2.4-3.6c-1,0-1.9,0-2.9,0c0.6,3.2,4.9,3.7,6.4,1c0.7-1.2-0.4-2.5-1.7-2.2c-1.9,0.4-3.1,2.1-3.1,4
				c0,1.1,0.9,1.6,1.9,1.4c2-0.3,3.5-2.2,3.4-4.2c-0.1-1.4-1.6-1.9-2.6-1.1c-1.1,0.9-1.7,2.4-1.6,3.8c0.1,0.7,0.6,1.6,1.5,1.5
				c2.4-0.3,4.4-2.2,4.2-4.8c-0.1-1.2-1.6-2.2-2.6-1.1c-1.6,1.8-1.3,4.9,1.3,5.7c2.6,0.7,4.3-2,3.3-4.2c-0.5-1.1-2.5-0.9-2.7,0.4
				c-0.3,1.6,0.7,3.8,2.8,3.3c1.9-0.5,1.6-2.9,0-3.5c-0.6-0.2-1.4,0.1-1.7,0.7c-0.5,1-0.4,2.2,0.6,2.9c1,0.8,2.2,0.4,3.2-0.1
				c-0.7-0.6-1.5-1.1-2.2-1.7c0,0.1,0,0.1,0,0.2c0.2-0.3,0.5-0.6,0.7-0.9c1.3,0.6,1.7,0.6,1.2-0.1c-0.2-0.2-0.3-0.5-0.5-0.7
				c-0.2-0.3-0.5-0.6-0.8-0.9c-0.7-0.7-1.4-1.3-2.2-1.9c0,0.9,0,1.7,0,2.6c0.8-0.5,1.6-0.9,2.5-1.2c-0.3-1-0.5-1.9-0.8-2.9
				c-3.1,1.1-5.3,3.3-7.7,5.4c-0.5,0.4-1.1,1.1-1.8,1.4c-0.7,0.3-1.8,0-2.6,0.1c-1.7,0.2-3.3,1.1-4.8,1.9c-1.1,0.6-0.9,2.4,0.4,2.7
				c2.5,0.6,5.2-0.1,7.8-0.2c2.7-0.1,5.4-0.1,8.1-0.1c5.5,0,10.9,0,16.4,0c1.9,0,1.9-3,0-3c-5.3,0-10.6,0-15.9,0c-2.6,0-5.2,0-7.9,0
				c-1.3,0-2.6,0.1-3.9,0.2c-1.3,0.1-2.6,0.4-3.8,0.1c0.1,0.9,0.2,1.8,0.4,2.7c1.5-0.9,2.9-1.6,4.7-1.5c1.7,0,2.8-0.5,4.1-1.6
				c2.3-1.9,4.4-4.3,7.3-5.4c1.8-0.7,1.1-3.5-0.8-2.9c-1.1,0.4-2.2,0.8-3.2,1.5c-1,0.6-0.9,1.9,0,2.6c0.7,0.5,1.3,1.1,1.9,1.7
				c0.4,0.5,0.8,1.2,1.3,1.7c0.9,0.8,2.7,0.5,2.9-0.9c0.2-1.3-0.9-2.3-2.2-1.7c-0.6,0.2-0.5,0.7,0.3,1.4c-0.6,0.2-1.1,0.5-1.7,0.7
				c0.1,0,0.1,0,0.2,0.1c-0.3-0.2-0.6-0.5-0.9-0.7c0-0.3,0-0.7,0-1c0.3-0.2,0.6-0.5,0.9-0.7c0.3,0.2,0.6,0.3,0.8,0.4
				c-0.9,0.1-1.8,0.2-2.7,0.4c0-0.1,0-0.3,0-0.3c0-0.2-0.1-0.4,0.1-0.6c-0.9-0.3-1.7-0.7-2.6-1.1c0.1,0.8-0.3,1.7-1.2,1.8
				c0.5,0.5,1,1,1.5,1.5c-0.1-0.8,0.1-1.2,0.7-1.7c-0.9-0.3-1.7-0.7-2.6-1.1c0,0.8-0.4,1.2-1.1,1.3c0.6,0.5,1.3,1,1.9,1.4
				c0-0.6,0.2-1,0.9-1.1c-0.6-0.7-1.1-1.5-1.7-2.2c-0.4,0.7-0.8,0.4-0.9-0.2c-0.3-1.4-2.7-1.4-2.9,0c-0.1,0.8-0.4,1.4-1.1,1.8
				c0.8,0.4,1.5,0.9,2.3,1.3c0,0,0.1-1.2,0.1-1.1c-0.4,0-0.9-0.1-1.3-0.1c0,0.2,0.1,0.3,0.1,0.5c0.2,1.1,1.8,1.4,2.5,0.7
				c0.3-0.4,0.6-0.7,0.9-1.1c0.2-0.3,1.4-1.9,0.4-2c-1.7-0.2-2,2.5-0.4,2.9c2.5,0.7,5.1,0.7,7.5-0.1c0.9-0.3,2.2-0.9,3.1-0.3
				c0.9,0.5,1.2,1.6,1.2,2.5c1,0,2,0,3,0c-0.2-2.4,0.1-4.8,0.7-7.1c-1-0.1-2-0.3-2.9-0.4c0,1.8-0.3,3.6-0.9,5.3c1,0,1.9,0,2.9,0
				c-0.6-1.6-0.8-3.2-0.7-4.9c0.1-1.7-2.7-2.1-2.9-0.4c-0.1,0.6-0.2,1.2-0.3,1.8c0,0.2-0.3,1.4-0.1,1.3c0.4-0.1,0.8-0.1,1.2-0.2
				c-0.1,0-0.1,0-0.2-0.1c0.4,0.5,0.7,1,1.1,1.4c0-2,0.2-4,0.7-6c-1-0.3-1.9-0.5-2.9-0.8c-0.4,2.2-0.8,4.4-1.2,6.6c1,0,1.9,0,2.9,0
				c-0.5-1.9-0.3-3.9,0-5.8c-1-0.1-2-0.3-2.9-0.4c-0.1,1.8-0.4,3.6-0.9,5.3c1,0.1,2,0.3,2.9,0.4c-0.1-2,0.3-3.8,1.3-5.6
				c0.7-1.2-0.4-2.5-1.7-2.2c-2.6,0.5-5.2,1.3-7.7,2.2c0.4,0.9,0.8,1.8,1.2,2.7c2.7-1.4,5.6-2.4,8.5-3.1c-0.4-0.9-0.8-1.8-1.2-2.7
				c-0.9,0.5-1.8,0.9-2.7,1.4c0.6,0.8,1.2,1.6,1.8,2.4c1.3-1.2,2.1,0.3,3.3,0.7c0.6,0.2,1.2,0.2,1.8-0.2c0.2-0.2,0.4-0.3,0.6-0.6
				c0.1-0.2,0.3-0.3,0.4-0.5c0.2-0.2,0.1-0.1-0.5,0.2c-0.5-0.5-1-1-1.5-1.5c0.1,0.9,0.2,1.7,0.1,2.6c0,0.5-0.1,0.9-0.2,1.3
				c0,0.1-0.1,0.3-0.1,0.4c-0.1,0.4-0.1,0.4,0.1,0.1c0.4-0.1,0.8-0.1,1.2-0.2c-0.1,0-0.1,0-0.2,0c0.4,0.5,0.7,1,1.1,1.4
				c0.1-1.8,0.4-3.5,0.6-5.2c-1,0-1.9,0-2.9,0c0.2,1.2,0.3,2.3,0.2,3.5c0,0.4-0.2,2.5-0.6,2.6c0.6,0.5,1.3,1,1.9,1.4
				c0.3-2.1,0.7-4.2,1.4-6.3c-1,0-1.9,0-2.9,0c0.4,2.3,0.4,4.6,0.2,7c-0.1,0.8,0.7,1.5,1.5,1.5c0.9,0,1.4-0.7,1.5-1.5
				c0.3-2.5,0.9-5.1,1.5-7.5c-1,0-1.9,0-2.9,0c0.6,2.4,0.3,4.8-0.6,7.1c1,0.3,1.9,0.5,2.9,0.8c0.2-1.3,0.4-2.6,0.6-3.9
				c0.1-0.6,0.2-1.3,0.3-1.9c0.1-0.3,0.1-0.6,0.1-1c0.1-0.4,0.1-0.4-0.2,0c-0.7-0.3-1.5-0.6-2.2-0.9c0.7,1.9,0.7,3.8,0.2,5.7
				c1,0.1,2,0.3,2.9,0.4c-0.2-1.7,0-3.2,0.6-4.8c-1,0-1.9,0-2.9,0c0.6,2,0.8,3.9,0.4,6c0.6-0.3,1.2-0.7,1.9-1.1
				c-0.1,0-0.1-0.1-0.2-0.1c0.3,0.2,0.6,0.5,0.9,0.7c-0.2-0.3,0.3-1.9,0.4-2.4c0.2-0.9,0.5-1.8,0.8-2.7c-1,0-1.9,0-2.9,0
				c0.8,2,1.1,4,0.7,6.2c1,0.3,1.9,0.5,2.9,0.8c0.4-2.4,0.8-4.9,1.3-7.3c-1,0-1.9,0-2.9,0c0.2,1.1,0.3,2.1,0.3,3.2
				c0,0.4,0.1,2.4-0.2,2.7c0.4-0.2,0.7-0.3,1.1-0.4c-0.1,0-0.1,0-0.2,0c0.5,0.5,1,1,1.5,1.5c-0.1-2.1,0.3-4.2,1.3-6.1
				c-0.9-0.1-1.8-0.2-2.7-0.4c1,2.9,2.1,5.8,3.1,8.7c0.8-0.5,1.7-1,2.5-1.5c-1.4-1.5-2.2-3.2-2.8-5.2c-0.5-1.9-3.3-1.1-2.9,0.8
				c0.3,1.3,0.6,2.7,1,4c0.8-0.5,1.7-1,2.5-1.5c-0.6-0.7-0.1-2.2,0-3.1c0.1-1,0.1-2.1-0.3-3s-1.1-1.6-2-2.1
				c-0.9-0.4-1.7-0.9-1.4-2.1c-0.8,0.2-1.7,0.4-2.5,0.7c0,0.1,0.1,0.3,0.1,0.4c0.3,1.7,3,1.3,2.9-0.4c0.3-0.8,0.3-1,0.1-0.6
				c-0.2,0.5-0.5,0.3-0.9-0.5c-0.2-0.1-0.8-0.1-1-0.2c-0.3-0.1-1.8-0.6-1.5-1.2c-0.7,0.2-1.4,0.4-2.1,0.5c0.3,0.2,0.4,0.6,0.4,0.9
				c0.5-0.6,1-1.3,1.4-1.9c-0.5-0.1-0.5,0.1-0.2,0.7c-0.9-0.2-1.9-0.5-2.8-0.8c0,0.3-0.2,0.2-0.3,0.2c0,0-0.1-0.1-0.1-0.1
				c-0.1-0.3-0.3-0.3-0.7-0.2c-0.7-0.2-0.9-0.3-0.6-0.2c0.4,0.2,0.2,0.5-0.7,1c-0.4-0.2-0.7-0.3-1.1-0.4c0.8-1,0.9-1.6,0.1-1.8
				c-0.2-0.1-0.4-0.2-0.7-0.2c-1.2-0.2-2.5,1-1.7,2.2c0.6,0.9-1.1,0.8,0.5,1.5c1,0.4,0.7,0.4,0.8-0.3c0-0.4,0.1-0.7,0.1-1.1
				c-1-0.1-2-0.3-2.9-0.4c-0.1,0.9-0.4,1.9-0.9,2.6c0.3-0.2,0.6-0.5,0.9-0.7c-0.1,0-0.2,0.1-0.3,0.1c0.4,0,0.8,0.1,1.2,0.2
				c-0.1,0-0.1-0.1-0.2-0.1c0.2,0.3,0.5,0.6,0.7,0.9c-0.2-0.6-0.1-1.6-0.1-2.2c0-0.9,0-1.8,0-2.7c0-1.7-2.5-2-2.9-0.4
				c-0.4,1.6-0.9,3.1-1.7,4.5c0.9,0.2,1.9,0.5,2.8,0.8c-0.1-1.5,0-3,0.2-4.4c0.3-1.9-2.5-2.7-2.9-0.8c-0.2,1-0.4,2-0.8,3
				c-0.2,0.8-0.5,2-1.2,2.3c0.8,0.4,1.5,0.9,2.3,1.3c0.1-1.8,0.2-3.6,0.3-5.4c0.1-1.9-2.9-1.9-3,0c0,0.6-0.1,1.2-0.3,1.8
				c-0.1,0.3-0.2,0.6-0.3,0.9c-0.5,0.7-0.1,0.9,1.2,0.5c0.2-0.3,0-1.2,0-1.6c0-0.6,0-1.3,0.1-1.9c0.1-1.9-2.9-1.9-3,0
				c-0.1,1.4-0.1,2.8-1.3,3.7c0.9,0.3,1.7,0.7,2.6,1.1c-0.1-1.7-0.1-3.3,0.1-4.9c0.2-1.7-2.7-2.1-2.9-0.4c-0.2,1-0.3,2-0.5,3
				c0.7-0.3,1.5-0.6,2.2-0.9c-0.5-0.3-0.7-1.1-0.5-1.6c-0.9-0.2-1.9-0.5-2.8-0.8c0,0.4-0.1,0.7-0.3,1.1c0.9,0,1.7,0,2.6,0
				c-0.2-0.4-0.2-0.7-0.2-1.1c-0.1-2-2.9-1.9-3,0c-0.1,1.6-0.3,3.1-0.6,4.7c1,0,1.9,0,2.9,0c-0.7-2.1-1.1-4.2-1-6.4
				c0-1.5-2-2-2.8-0.8c-1.1,1.8-3,3.8-3.3,6c-0.1,1,0.1,1.9,0.4,2.8c0.3,0.9,0.8,1.8,0.5,2.8c1,0,1.9,0,2.9,0
				c-0.2-0.9-0.3-1.8-0.1-2.7c-0.9,0.1-1.8,0.2-2.7,0.4c0.1,0.3,0.4,1.4,0.1,1.7c0.4-0.2,0.7-0.3,1.1-0.4c-0.1,0-0.2,0-0.3,0
				c0.4,0.2,0.7,0.3,1.1,0.4c0.2,0.2,0.1-1.2,0.1-1.4c0-0.6,0-1.3,0-1.9c-1,0-2,0-3,0c0.1,1,0.1,1.8-0.1,2.8
				c0.9-0.1,1.8-0.2,2.7-0.4c-0.2-0.5-0.3-1-0.3-1.5c-1,0-2,0-3,0c0.1,3.4,0.2,6.8-0.7,10c1,0.1,2,0.3,2.9,0.4
				c-0.1-2.3,0-4.6,0.3-6.9c-1,0-2,0-3,0c-0.1,3-0.6,5.9-1.4,8.7c0.9-0.1,1.8-0.2,2.7-0.4c-0.5-1.1-0.1-3,0-4.2
				c0.1-1.6,0.2-3.2,0.3-4.8c-1,0-2,0-3,0c-0.1,2.8-0.4,5.7-1,8.4c1,0,1.9,0,2.9,0c-0.5-2.2-0.5-4.4,0.1-6.6c-1-0.1-2-0.3-2.9-0.4
				c-0.2,2.7-0.6,5.3-1.1,8c1,0.1,2,0.3,2.9,0.4c-0.2-3.4,0-6.7,0.2-10.1c0.1-2-2.8-1.9-3,0c-0.2,1.6-0.4,3.2-0.7,4.8
				c-0.1,0.7-0.2,1.4-0.4,2.1c-0.1,0.5-0.1,1.6-0.5,1.9c0.9,0.3,1.7,0.7,2.6,1.1c0-3.1,0.1-6.2,0.6-9.2c0.3-1.9-2.4-2.7-2.9-0.8
				c-0.9,3.2-0.1,6.7-1.4,9.8c1,0.1,2,0.3,2.9,0.4c-0.2-2.7-0.5-5.3-0.8-8c-0.1-1.6-2.4-2.1-2.9-0.4c-0.9,3.1-1.1,6.3-0.6,9.5
				c0.2,1.7,3,1.3,2.9-0.4c-0.1-3.2,0.2-6.3,0.9-9.4c-1-0.3-1.9-0.5-2.9-0.8c-0.1,0.9-0.3,1.8-0.5,2.7c-0.1,0.4-0.2,0.9-0.4,1.3
				c-0.1,0.2-0.5,1-0.1,0.9c0.4,0.1,0.8,0.1,1.2,0.2c-0.1,0-0.1-0.1-0.2-0.1c0.2,0.6,0.5,1.1,0.7,1.7c1-2.6,2-5.2,3-7.7
				C213.1,61.2,210.2,60.4,209.5,62.2L209.5,62.2z"/>
		</g>
	</g>
	<g>
		<g>
			<path class="st15" d="M213.2,38.3c-0.2,0.8-0.4,1.7-0.6,2.5c1,0.1,2,0.3,2.9,0.4c-0.1-0.7-0.1-1.4-0.2-2.1
				c-0.6,0.5-1.3,1-1.9,1.5c0.3,0.1,0.4,0.6,0.5,0.8c0.4,0.7,1.1,1,1.9,1c1.7-0.1,2.3-1.7,2.3-3.1c-1,0-2,0-3,0
				c0,0.9,0.1,1.8,0.2,2.6c0.1,1.4,2,2.1,2.8,0.8c0.7-1.2,0.7-2.5,0.1-3.8c-0.5-1.1-2-0.9-2.6,0c-0.7,1.1-0.9,2.5-0.5,3.7
				c0.3,1,1.7,1.6,2.5,0.7c0.7-0.8,0.9-1.7,0.8-2.7c-0.1-0.5-0.2-0.9-0.2-1.3c0-0.1,0.1-0.4,0-0.3c-0.8-0.2-1.7-0.4-2.5-0.7
				c0.3,1.5,0.3,3.1,0.2,4.7c-0.1,1.5-0.2,3,0.6,4.5c0.4,0.7,1.2,0.9,1.9,0.6c0.7-0.3,1-1,0.9-1.8c-0.2-1-0.4-2-0.5-2.9
				c-0.9,0.4-1.8,0.8-2.7,1.2c1.2,2.6,2.4,5.1,3.7,7.6c0.6,1.1,2.5,0.9,2.7-0.4c0.2-1.3,0.3-2.6,0.2-4c-1,0.1-2,0.3-2.9,0.4
				c0,0.2,0.1,0.4,0.1,0.6c0.2,0.8,1.1,1.2,1.9,1c0.8-0.2,1.2-1,1.1-1.8c-0.2-1.2-0.7-2.3-1.8-3c-0.6-0.4-1.5-0.2-1.9,0.4
				c-0.5,0.6-0.4,1.4,0.1,2c1,1.2,1.5,2.7,1.8,4.2c0.1,0.8,1.1,1.2,1.9,1c0.9-0.2,1.2-1,1.1-1.8c-0.4-2.1-1.3-3.9-2.6-5.5
				c-0.6,0.8-1.2,1.6-1.8,2.4c0.2,0.2,0.3,0.8,0.4,1.2c1-0.3,1.9-0.5,2.9-0.8c0-0.2-0.1-0.4-0.1-0.6c-0.3-1.6-3.1-1.3-2.9,0.4
				c0.1,1.1,0.1,2.1-0.1,3.2c0.9-0.1,1.8-0.2,2.7-0.4c-1.3-2.5-2.6-5.1-3.7-7.6c-0.3-0.7-1.2-0.9-1.9-0.6c-0.7,0.3-1,1-0.9,1.8
				c0.2,1,0.4,2,0.5,2.9c0.9-0.4,1.8-0.8,2.7-1.2c-0.6-1-0.2-2.5-0.1-3.6c0.1-1.6-0.1-3.2-0.4-4.8c-0.2-1.1-1.8-1.4-2.5-0.7
				c-0.7,0.7-0.9,1.7-0.8,2.6c0.1,0.5,0.2,0.9,0.2,1.3c0,0,0,0.5,0.1,0.3c0.8,0.2,1.7,0.4,2.5,0.7c-0.2-0.5-0.1-0.9,0.2-1.4
				c-0.9,0-1.7,0-2.6,0c0.1,0.3,0,0.5-0.1,0.8c0.9,0.2,1.9,0.5,2.8,0.8c-0.1-0.9-0.1-1.7-0.2-2.6c-0.1-1.9-3-1.9-3,0
				c0,0.1-0.1,0.3,0,0.4c-0.1-0.3,1.1,0,0.7-0.1c0.7,0.1,0.7,0.2,0.5-0.2c-0.1-0.2-0.1-0.3-0.2-0.4c-0.5-0.7-1.1-1.1-1.9-1.4
				c-0.9-0.3-2,0.5-1.9,1.5c0.1,0.7,0.1,1.4,0.2,2.1c0.1,0.7,0.5,1.4,1.3,1.5c0.7,0.1,1.5-0.3,1.6-1.1c0.2-0.8,0.4-1.7,0.6-2.5
				c0.2-0.8-0.2-1.6-1.1-1.8C214.3,37.1,213.4,37.5,213.2,38.3L213.2,38.3z"/>
		</g>
	</g>
	<g>
		<g>
			<path class="st15" d="M234,48.2c0.1,0.7,0.3,1.4,0.5,2c0.2,0.7,0.3,1.6,0.8,2.1c1.2,1.2,2.8,0.2,3.8-0.8c1.7-1.7,2.4-4.1,3.1-6.3
				c0.4-1.4,0.8-2.8,1.2-4.1c0.4-1.3,1.4-3.3,0.3-4.5c-0.8-0.9-2.4-1.2-3.5-0.8c-0.7,0.2-1.3,0.8-1.5,1.5c-0.2,0.7-0.1,1.5-0.2,2.2
				c-0.2,3-1.4,5.9-2.6,8.6c-0.3,0.7-0.2,1.6,0.5,2c0.6,0.4,1.7,0.2,2.1-0.5c0.9-2.2,1.9-4.4,2.5-6.7c0.3-1.2,0.5-2.3,0.6-3.5
				c0-0.2,0-0.5,0-0.8c0-0.2,0-0.3,0-0.5c-0.1,0.2-0.2,0.4-0.4,0.5c-0.1,0-0.1,0,0,0c0.1,0,0.1,0,0.1,0c0.1,0,0.2,0,0.4,0.1
				c0.2,0.1,0.2,0.1,0,0c-0.1-0.2-0.3-0.4-0.4-0.7c0-0.2,0-0.2-0.1,0.1c-0.1,0.2-0.1,0.3-0.2,0.5c-0.1,0.3-0.2,0.7-0.3,1
				c-0.2,0.6-0.4,1.2-0.6,1.8c-0.4,1.3-0.8,2.6-1.2,3.9c-0.3,0.9-0.6,1.8-1.1,2.7c-0.2,0.4-0.4,0.7-0.7,1c-0.1,0.1-0.3,0.3-0.4,0.4
				c-0.1,0.1-0.2,0.2-0.3,0.2c-0.2,0.1-0.2,0.1,0.1,0c0.4,0.2,0.7,0.3,1.1,0.4c0,0-0.1-0.1-0.1-0.1c0.1,0.2,0.3,0.4,0.4,0.7
				c-0.4-1.1-0.7-2.3-0.9-3.5c-0.2-0.8-1.1-1.2-1.9-1C234.2,46.5,233.8,47.3,234,48.2L234,48.2z"/>
		</g>
	</g>
	<g>
		<g>
			<path class="st16" d="M221,36.8c-0.6,1.6-1.1,3.3-1.5,5c1,0,1.9,0,2.9,0c-0.2-1-0.1-1.9,0.2-2.8c-1,0-1.9,0-2.9,0
				c0.4,1.4,0.8,2.7,1.1,4.1c0.5,1.7,2.8,1.2,2.9-0.4c0.1-1.1,0.1-2.2,0-3.4c-0.1-0.8-0.6-1.5-1.5-1.5c-0.8,0-1.5,0.7-1.5,1.5
				c0,1,0.1,2.1,0.2,3.1c0.1,1,0.1,2.3,0.6,3.2c0.6,1,1.6,1,2.6,1.2c1,0.2,2,0.5,2.9,0.9c0.1-1,0.3-2,0.4-3c-1.9,0-2.8,2.3-1.5,3.7
				c1.2,1.2,3.1,1.1,4.6,0.6c3-1.2,5.6-3.1,6.7-6.2c0.4-1.3,0.6-2.8,0.5-4.1c0-0.7,0-1.6-0.4-2.3c-0.5-0.9-1.4-1-2.3-1
				c-3.6,0.3-7.2,0.6-10.7,0.8c-0.9,0.1-2,0.1-2.5,1c-0.5,0.8-0.4,1.8-0.5,2.7c-0.1,1.7-0.4,3.7,1.3,4.8c0.8,0.5,2,0.1,2.2-0.9
				c0.2-1.4,0.5-2.8,0.7-4.3c-1-0.3-1.9-0.5-2.9-0.8c-0.3,2.2-0.2,4.4,0.5,6.5c0.4,1.2,2.1,1.5,2.7,0.4c0.9-1.6,1.6-3.4,1.8-5.2
				c-1-0.1-2-0.3-2.9-0.4c0.1,1.5,0.1,3,0.2,4.5c0.1,1.2,1.7,2.1,2.6,1.1c1.2-1.5,1.6-3.3,1.9-5.2c0.1-0.8-0.2-1.6-1.1-1.8
				c-0.7-0.2-1.7,0.2-1.9,1c-0.4,2.5-0.1,4.8,1.1,7.1c0.6,1.1,2,0.9,2.6,0c0.6-0.9,0.9-2,1-3.1c0.1-1.4-1.6-1.9-2.6-1.1
				c-0.8,0.7-1.5,1.7-1.2,2.8c0.2,1.2,1.3,2.1,2.5,1.8c1.1-0.2,1.8-1.1,2.5-1.9c0.7-0.9,1.2-1.8,1.7-2.8c0.3-0.7,0.2-1.6-0.5-2
				c-0.7-0.4-1.7-0.2-2.1,0.5c-0.7,1.3-2.3,3.4-1,4.7c0.6,0.7,1.7,0.7,2.5,0.2c0.7-0.4,1.1-1.3,1.4-2c0.6-1.3,1.6-3.4,1-4.9
				c-0.8-1.8-3.2-1.6-4.6-0.9c0.4,0,0.8-0.1,1.2-0.2c-1.2-0.5-2.7-0.1-3.6,0.8c-1.1,1.1-1.1,2.8-0.4,4c0.6,1.2,2.4,0.8,2.7-0.4
				c0.4-1.1,0.4-2.3,0-3.5c-0.2-0.7-0.9-1.2-1.6-1.1c-0.7,0.1-1.4,0.7-1.3,1.5c0.2,1.3,0.7,2.4,1.7,3.2c1.1,0.9,2.8,0.7,3.3-0.8
				c0.5-1.6-1.9-2.7-2.7-1.2c-0.5,0.8-0.6,1.7-0.7,2.7c-0.1,0.8,0,1.6-0.3,2.3c-0.5,1.4-1.8,2.4-2.8,3.3c-0.7,0.7-1.4,1.6-0.8,2.6
				c0.5,0.8,1.4,1.1,2.3,1.2c1.9,0.3,3.8,0,5.3-1.1c1.6-1.1,0.1-3.7-1.5-2.6c-1,0.7-2.9,1.3-4,0.5c0.2,0.2,0.4,0.4,0.5,0.5
				c0,0-0.1-0.1-0.1-0.1c0.1,0.2,0.1,0.5,0.2,0.8c0-0.1,0-0.1,0-0.2c-0.1,0.2-0.1,0.5-0.2,0.8c0.2-0.3,0.6-0.6,0.9-0.8
				c0.3-0.3,0.7-0.6,1-1c0.6-0.7,1.2-1.4,1.6-2.2c0.5-0.9,0.7-1.8,0.8-2.9c0.1-0.8,0-1.8,0.4-2.5c-0.9-0.4-1.8-0.8-2.7-1.2
				c0,0,0,0.1,0,0.1c0.1-0.2,0.3-0.4,0.4-0.7c0,0-0.1,0-0.1,0.1c0.2-0.1,0.4-0.3,0.7-0.4c0.1,0,0.5,0.1,0.5,0.1c0,0-0.3-0.3-0.3-0.3
				c-0.1-0.1-0.2-0.3-0.2-0.5c-1,0.1-2,0.3-2.9,0.4c0.2,0.7,0.2,1.2,0,1.9c0.9-0.1,1.8-0.2,2.7-0.4c-0.1-0.3,0-0.6,0.3-0.6
				c0.2,0,0.6,0.2,0.8,0.2c0.4,0,0.7-0.3,1.1-0.3c0.1,0,0.2,0,0.3,0c-0.2-0.8-0.3-1-0.4-0.6c0,0.1-0.1,0.3-0.1,0.4
				c-0.1,0.4-0.2,0.8-0.3,1.2c-0.1,0.4-0.3,0.8-0.5,1.1c-0.1,0.2-0.2,0.4-0.3,0.6c-0.1,0.1-0.1,0.2-0.1,0.2
				c-0.2,0.3-0.1,0.2,0.2-0.1c0.3,0,0.5,0,0.8,0c0,0,0,0,0,0c0.2,0.2,0.4,0.4,0.5,0.5c0,0-0.1-0.1-0.1-0.2c0.1,0.2,0.1,0.5,0.2,0.8
				c0,0.3,0.1-0.2,0.2-0.2c0.1-0.2,0.2-0.4,0.3-0.6c0.2-0.4,0.4-0.8,0.6-1.2c-0.9-0.5-1.7-1-2.6-1.5c-0.3,0.7-0.7,1.4-1.1,2
				c-0.2,0.2-0.4,0.5-0.6,0.7c-0.1,0.2-0.3,0.3-0.4,0.5c-0.2,0.2,0.2,0-0.2,0.1c0.3,0,0.5,0,0.8,0c0.3,0.2,0.4,0.4,0.4,0.7
				c0,0.2,0,0.3,0,0.2c0.1,0,0.4-0.4,0.5-0.5c-0.9-0.3-1.7-0.7-2.6-1.1c0,0.6-0.2,1.1-0.6,1.6c0.9,0,1.7,0,2.6,0
				c-0.7-1.5-1-3.1-0.8-4.8c-1-0.1-2-0.3-2.9-0.4c-0.1,1.1-0.3,2.5-1.1,3.4c0.9,0.3,1.7,0.7,2.6,1.1c-0.1-1.5-0.1-3-0.2-4.5
				c0-0.7-0.6-1.4-1.3-1.5c-0.7-0.1-1.5,0.3-1.6,1.1c-0.2,1.6-0.7,3.1-1.5,4.5c0.9,0.1,1.8,0.2,2.7,0.4c-0.5-1.6-0.8-3.3-0.5-5
				c0.1-0.8-0.2-1.6-1.1-1.8c-0.7-0.2-1.7,0.2-1.9,1c-0.2,1.4-0.5,2.8-0.7,4.3c0.7-0.3,1.5-0.6,2.2-0.9c0.2,0.1,0.1,0.3,0.1,0.1
				c0,0.1-0.1-0.3,0-0.2c0-0.4,0-0.8,0.1-1.1c0-0.4,0.1-0.8,0.1-1.3c0-0.2,0-0.4,0.1-0.6c0-0.1,0-0.3,0-0.4c0-0.3,0-0.2-0.1,0.3
				c-0.2,0.1-0.4,0.3-0.7,0.4c0.2-0.1,0.7-0.1,1.1-0.1c0.5,0,1.1-0.1,1.6-0.1c1-0.1,2.1-0.2,3.1-0.2s2.1-0.2,3.1-0.2
				c0.5,0,1-0.1,1.5-0.1c0.3,0,0.6,0,0.9-0.1c0.3,0,0.9,0.1,0.3-0.2c-0.2-0.2-0.4-0.4-0.5-0.5c0.2,0.3,0.1,1.1,0.1,1.4
				c0,0.5,0,1.1-0.1,1.6c-0.2,1-0.5,2-1.1,2.8c-0.7,0.9-1.8,1.5-2.8,2.1c-0.6,0.3-1.2,0.7-1.9,0.8c-0.2,0-0.5-0.1-0.7,0
				c0,0-0.4,1.3,0.1,0.9c-0.2,0.1-0.4,0.3-0.7,0.4c0,0-0.1,0-0.1,0c0.7,0,1.4-0.5,1.5-1.3c0.1-0.8-0.4-1.3-1.1-1.7
				c-0.7-0.3-1.5-0.6-2.2-0.8c-0.5-0.1-1.6-0.2-1.9-0.4c0.2,0.2,0.4,0.4,0.5,0.5c-0.1-0.2-0.1-0.8-0.2-1c-0.1-0.4-0.1-0.8-0.1-1.3
				c-0.1-0.9-0.1-1.8-0.1-2.7c-1,0-2,0-3,0c0.1,1.1,0.1,2.2,0,3.4c1-0.1,2-0.3,2.9-0.4c-0.4-1.4-0.8-2.7-1.1-4.1
				c-0.4-1.4-2.5-1.4-2.9,0c-0.4,1.5-0.4,2.9-0.2,4.4c0.3,1.5,2.6,1.4,2.9,0c0.4-1.7,0.9-3.4,1.5-5c0.3-0.8-0.3-1.6-1.1-1.8
				C222,35.5,221.3,36,221,36.8L221,36.8z"/>
		</g>
	</g>
</g>
<g>
	<g>
		<g>
			<path d="M213.8,39c0.5-2.2,1-4.5,1.6-6.7c0.6-2.2,2-3.6,3.6-5.3c2.8-2.8,5.9-5.7,9.9-6.6c2.3-0.6,4.1,0.9,5.9,2.2
				s3.2,2.9,4.4,4.8c1.1,1.7,1.9,3.6,2.7,5.4c0.9,2.1,1.8,4.2,2.2,6.5c0.2,1.4,2.4,0.8,2.2-0.6c-0.4-2-1.2-3.9-1.9-5.8
				c-0.7-1.6-1.4-3.3-2.2-4.9c-1.8-3.4-4.2-6-7.4-8.1c-1.5-1-3.1-2.1-5-1.9c-1.7,0.1-3.4,0.8-4.9,1.5c-3.2,1.6-5.8,4.2-8.3,6.8
				c-1.5,1.5-2.7,3.1-3.3,5.2c-0.6,2.2-1.1,4.6-1.6,6.9C211.3,39.8,213.4,40.4,213.8,39L213.8,39z"/>
		</g>
	</g>
	<g>
		<g>
			<path d="M213.1,40.2c4.7-2.4,10.1-3.1,15.3-3.8c2.8-0.4,5.5-0.4,8.3,0.2c2.2,0.4,5.6,0.9,7.1,2.8c0.9,1.2,2.8,0,1.9-1.1
				c-1.7-2.2-4.4-2.9-7-3.6c-3.1-0.7-6.1-1-9.2-0.7c-5.9,0.7-12.1,1.5-17.4,4.2C210.6,38.9,211.8,40.8,213.1,40.2L213.1,40.2z"/>
		</g>
	</g>
	<g>
		<g>
			<path d="M211.5,38.9c0.1,1.2,0.7,2.3,1.3,3.3c0.6,1,1,2.1,1.5,3.2c0.9,2.2,1.7,4.5,3.1,6.4c0.4,0.5,1,0.7,1.5,0.4
				c0.5-0.3,0.8-1,0.4-1.5c-1.3-1.8-2.1-3.8-2.9-5.9c-0.4-1-0.8-2.1-1.4-3.1c-0.5-0.9-1.2-1.8-1.3-2.8c-0.1-0.6-0.5-1.1-1.1-1.1
				C212.1,37.8,211.4,38.3,211.5,38.9L211.5,38.9z"/>
		</g>
	</g>
	<g>
		<g>
			<path d="M214.7,54c2.2-0.8,5-2.3,7.4-1.7c2.1,0.5,3.8,1.9,5.9,2.4c1,0.2,2,0.3,2.9,0c1.3-0.3,2.4-1,3.6-1.4c2.7-0.8,5.6,0,8.1,1
				c1.3,0.6,2.5-1.4,1.1-1.9c-2.5-1.1-5.3-1.9-8.1-1.6c-2.6,0.3-4.8,2.3-7.4,1.6c-2.2-0.6-4-2.1-6.3-2.5c-2.7-0.5-5.4,1-7.9,1.8
				C212.7,52.3,213.3,54.5,214.7,54L214.7,54z"/>
		</g>
	</g>
	<g>
		<g>
			<path d="M239,52.7c2.3-1.1,3.5-3.5,4.4-5.8c1.1-3,2.1-6,3.1-9.1c0.5-1.4-1.7-2-2.2-0.6c-1,2.8-1.9,5.7-2.9,8.5
				c-0.7,2-1.6,4.1-3.5,5C236.6,51.4,237.7,53.3,239,52.7L239,52.7z"/>
		</g>
	</g>
	<g>
		<g>
			<path d="M243.3,54.7c0.5,0,0.9,0,1.4,0.1c-0.1,0-0.2,0-0.3,0c0.3,0,0.5,0.1,0.8,0.2c0.1,0,0.3,0.1,0.4,0.1c0.1,0,0.1,0,0.2,0
				c0,0,0.1,0,0.1,0c-0.2-0.1-0.2-0.1-0.1,0c0.1,0.1-0.2-0.2-0.2-0.2c0,0,0.1,0.1,0.1,0.1c0.1,0.1,0.2,0.2,0.2,0.4
				c0.2,0.3,0.5,0.5,0.8,0.7c0.5,0.3,1.3,0.1,1.5-0.4c0.3-0.6,0.1-1.2-0.4-1.5c-0.1-0.1,0.1,0.1,0.1,0.1c0,0-0.1-0.1-0.1-0.1
				c0,0-0.1-0.1-0.1-0.1c0,0-0.1-0.2,0,0c0.1,0.2,0-0.1-0.1-0.1c0-0.1-0.1-0.1-0.1-0.2c-0.2-0.3-0.5-0.5-0.9-0.7
				c-0.2-0.1-0.4-0.1-0.6-0.2c-0.9-0.2-1.8-0.3-2.6-0.3c-0.6,0-1.1,0.5-1.1,1.1C242.2,54.1,242.6,54.7,243.3,54.7L243.3,54.7z"/>
		</g>
	</g>
	<g>
		<g>
			<path d="M246.1,55.6c1.2,1.4,2.5,2.7,3.4,4.3c1,1.5,1.7,3.2,2.1,5c0.1,0.6,0.8,0.9,1.4,0.8c0.6-0.2,0.9-0.8,0.8-1.4
				c-0.4-2-1.2-3.8-2.3-5.5c-1.1-1.7-2.4-3.2-3.8-4.7c-0.4-0.5-1.2-0.4-1.6,0C245.6,54.5,245.7,55.2,246.1,55.6L246.1,55.6z"/>
		</g>
	</g>
	<g>
		<g>
			<path d="M213.9,52.1c-1.4,0.9-2.9,1.8-4.2,2.9c-1.3,1.2-2.4,2.5-3.2,4.1c-0.9,1.7-1.8,3.3-2.7,5c-0.5,0.8-0.9,1.7-1.4,2.5
				c-0.4,0.8-0.8,1.7-0.4,2.6c0.5,1.3,2.7,0.8,2.2-0.6c-0.2-0.6,0.6-1.5,0.8-2c0.4-0.7,0.8-1.4,1.2-2.1c0.8-1.5,1.6-3,2.4-4.4
				c0.7-1.3,1.6-2.4,2.7-3.4c1.1-1,2.4-1.7,3.7-2.5C216.2,53.3,215.1,51.4,213.9,52.1L213.9,52.1z"/>
		</g>
	</g>
	<g>
		<g>
			<path d="M213.7,54.6c1.1-0.7,2.3-1.3,3.5-1.8c1.3-0.5,2.5-0.8,3.9-0.9c0.6,0,1.1-0.5,1.1-1.1c0-0.6-0.5-1.2-1.1-1.1
				c-1.6,0.1-3,0.4-4.5,1c-1.4,0.5-2.8,1.2-4,2c-0.5,0.3-0.7,1-0.4,1.5C212.4,54.8,213.1,55,213.7,54.6L213.7,54.6z"/>
		</g>
	</g>
	<g>
		<g>
			<path d="M202.9,69.8c1.4,0,1.4-2.2,0-2.2S201.5,69.8,202.9,69.8L202.9,69.8z"/>
		</g>
	</g>
	<g>
		<g>
			<path d="M207.7,79.2c1.4,0,1.4-2.2,0-2.2S206.2,79.2,207.7,79.2L207.7,79.2z"/>
		</g>
	</g>
	<g>
		<g>
			<path d="M207.9,79.2c1.4,0,1.4-2.2,0-2.2S206.4,79.2,207.9,79.2L207.9,79.2z"/>
		</g>
	</g>
	<g>
		<g>
			<path d="M250.8,79.3c1.4,0,1.4-2.2,0-2.2S249.3,79.3,250.8,79.3L250.8,79.3z"/>
		</g>
	</g>
	<g>
		<g>
			<path d="M251.7,65.5c1.5,1.2,2.3,3.5,1.4,5.3c-1.1,2.2-2.4,4.3-3.6,6.4c-0.7,1.3,1.2,2.4,1.9,1.1c0.7-1.3,1.4-2.5,2.1-3.8
				c0.7-1.2,1.5-2.4,1.9-3.8c0.8-2.4-0.3-5.3-2.2-6.9c-0.5-0.4-1.1-0.5-1.6,0C251.3,64.3,251.2,65.2,251.7,65.5L251.7,65.5z"/>
		</g>
	</g>
	<g>
		<g>
			<path d="M218.1,38c-0.1,1.7-0.4,3.7,0.1,5.3c0.5,1.7,2.1,2.8,3.4,3.9c1.2,1.1,2.5,2.5,4,3.2c1.5,0.8,3.2,0.8,4.9,0.6
				c3-0.5,5.6-2.2,7.4-4.7c2.1-2.9,2.1-6.6,2.1-10c-0.1-1.9-3.1-1.9-3,0c0.1,2.7,0.2,5.6-1.4,8c-1.2,1.9-3.2,3.2-5.3,3.6
				c-1.1,0.2-2.4,0.2-3.4-0.3c-1.2-0.6-2.1-1.7-3.1-2.6c-0.5-0.5-1-1-1.6-1.4c-0.5-0.4-1-0.8-1.1-1.5c-0.2-1.3,0-2.9,0.1-4.3
				C221.2,36,218.2,36,218.1,38L218.1,38z"/>
		</g>
	</g>
	<g>
		<g>
			<path d="M222.7,49c0.1,0.3,0.1,0.7,0.2,1c0-0.1,0-0.3-0.1-0.4c0.1,0.5,0.1,1,0.1,1.6c0,0.4,0.2,0.8,0.4,1.1
				c0.3,0.3,0.7,0.5,1.1,0.4c0.4,0,0.8-0.1,1.1-0.4c0.3-0.3,0.4-0.7,0.4-1.1c0-1-0.1-2-0.4-3c-0.1-0.4-0.4-0.7-0.7-0.9
				c-0.3-0.2-0.8-0.3-1.2-0.2s-0.7,0.3-0.9,0.7C222.7,48.2,222.6,48.6,222.7,49L222.7,49z"/>
		</g>
	</g>
	<g>
		<g>
			<path d="M232.8,49.1c0,0.7,0.1,1.4,0.1,2.1c0,0.4,0.1,0.8,0.4,1.1c0.1,0.2,0.3,0.2,0.5,0.3c0.2,0.1,0.4,0.1,0.6,0.1
				c0.4,0,0.8-0.1,1.1-0.4c0.3-0.3,0.5-0.7,0.4-1.1c0-0.7-0.1-1.4-0.1-2.1c0-0.4-0.1-0.8-0.4-1.1c-0.1-0.2-0.3-0.2-0.5-0.3
				c-0.2-0.1-0.4-0.1-0.6-0.1c-0.4,0-0.8,0.1-1.1,0.4C233,48.3,232.8,48.7,232.8,49.1L232.8,49.1z"/>
		</g>
	</g>
	<g>
		<g>
			<path d="M201.6,69.5c1.4,3,2.9,6.1,4.3,9.1c0.3,0.7,1.4,0.9,2.1,0.5c0.7-0.5,0.9-1.3,0.5-2.1c-1.4-3-2.9-6.1-4.3-9.1
				c-0.3-0.7-1.4-0.9-2.1-0.5C201.4,67.9,201.2,68.7,201.6,69.5L201.6,69.5z"/>
		</g>
	</g>
	<line class="st17" x1="208" y1="78" x2="251" y2="78"/>
</g>
<path class="st18" d="M250.4,82.5h-43.8c-2.8,0-5.1-2.3-5.1-5.1V58.6c0-2.8,2.3-5.1,5.1-5.1h43.8c2.8,0,5.1,2.3,5.1,5.1v18.8
	C255.5,80.2,253.2,82.5,250.4,82.5z"/>
<line class="st19" x1="273" y1="81" x2="273" y2="70"/>
<circle class="st19" cx="273" cy="70" r="2.5"/>
<circle class="st19" cx="273" cy="70" r="6.5"/>
<g>
	<g>
		<path class="st20" d="M254.9,80.1c3.2,1.6,6.7,2.8,10.3,3.4c2.9,0.5,6.8,0.9,8.3-2.2c0.4-0.9-0.9-1.6-1.3-0.8
			c-1.4,2.8-5.5,1.8-7.9,1.3c-3-0.6-5.9-1.7-8.6-3C254.8,78.4,254.1,79.7,254.9,80.1L254.9,80.1z"/>
	</g>
</g>
<g>
	<g>
		<path d="M220,39.8c0.5,1.2,1.9,1.6,3.1,1.6c1.2,0,2.5-0.5,3.4-1.3c0.5-0.5,0.9-1.2,0.7-1.9c-0.2-0.6-0.8-1.1-1.3-1.4
			c-1.2-0.7-2.6-0.8-3.9-0.6c-0.7,0.1-1.4,0.3-2,0.7c-0.7,0.6-0.6,1.4-0.1,2.1c0.5,0.8,1.8,0.1,1.3-0.8c-0.1-0.1-0.1-0.4-0.2-0.2
			c0-0.1,0.3-0.2,0.4-0.2c0.6-0.2,1.2-0.3,1.8-0.3c0.6,0,1.1,0.1,1.6,0.3c0.2,0.1,0.4,0.2,0.6,0.3c0.2,0.1,0.3,0.3,0.4,0.4
			c0.1,0.1-0.1,0.1,0,0c0,0.1,0,0.1-0.1,0.2c-0.1,0.2-0.4,0.3-0.6,0.5c-0.4,0.3-0.9,0.5-1.4,0.5c-0.4,0.1-0.9,0.1-1.4,0
			c-0.2,0-0.4-0.1-0.6-0.2c-0.1-0.1-0.3-0.2-0.3-0.3c-0.1-0.4-0.5-0.6-0.9-0.5C220.1,39,219.8,39.4,220,39.8L220,39.8z"/>
	</g>
</g>
<g>
	<g>
		<path d="M234.8,36.5c-1.2,0.1-2.5-0.2-3.7,0.2c-1.2,0.4-2.3,1.5-1.7,2.9c0.5,1.1,1.8,1.5,2.9,1.6c1.2,0.1,2.5,0.2,3.4-0.7
			c0.5-0.5,0.8-1.2,0.7-1.9s-0.7-1.1-1.2-1.5c-0.3-0.2-0.8-0.1-1,0.3c-0.2,0.4-0.1,0.8,0.3,1c0.1,0.1,0.3,0.2,0.4,0.3
			c0.1,0.1,0.2,0.2,0.2,0.2c0-0.1,0,0,0,0c0,0.1,0,0.1-0.1,0.2c-0.1,0.2-0.1,0.2-0.3,0.3c-0.2,0.2-0.6,0.2-0.9,0.2
			c-0.4,0-0.8,0-1.2,0c-0.6,0-1.3-0.2-1.7-0.7c-0.1-0.1-0.1-0.2-0.1-0.3c0-0.1,0.1-0.2,0.2-0.3c0.2-0.2,0.5-0.3,0.9-0.4
			c0.4-0.1,0.9-0.1,1.3,0c0.6,0,1.1,0.1,1.7,0c0.4,0,0.8-0.3,0.8-0.8C235.5,36.9,235.2,36.5,234.8,36.5L234.8,36.5z"/>
	</g>
</g>
<g>
	<g>
		<path d="M226.6,39.6c0.3,0,0.6,0.1,0.9,0c0.2,0,0.4,0,0.6-0.1c0.1,0,0.1,0,0.2,0c0.1,0,0,0,0,0c-0.1,0-0.1,0,0,0
			c0.6,0.2,1.2,0.3,1.7-0.1c0.4-0.3,0.5-0.8,0.1-1.2c-0.2-0.2-0.5-0.4-0.8-0.5c-0.1,0-0.2,0-0.3-0.1c-0.1,0-0.2,0-0.3,0
			c0,0-0.2,0-0.1,0c0.1,0-0.1,0-0.1,0c-0.1,0-0.1,0-0.2,0c0,0-0.1,0-0.1,0c0,0,0.1,0,0.1,0c0,0-0.1,0-0.1-0.1
			c-0.3-0.2-0.5-0.3-0.8-0.4c-0.1,0.5-0.1,1-0.2,1.5c0.1,0,0.3,0,0.4,0c0.4,0,0.7-0.3,0.7-0.7c0.1-0.4-0.2-0.7-0.5-0.8
			c-0.4-0.1-0.9-0.2-1.3-0.4c-0.1,0.5-0.3,1-0.4,1.5c1.4,0.4,2.8,0.5,4.2,0.5c0.4,0,0.8-0.3,0.8-0.8c0-0.4-0.3-0.8-0.8-0.8
			c-0.7,0-1.3,0-2-0.1c-0.2,0,0.1,0-0.1,0c-0.1,0-0.1,0-0.2,0c-0.2,0-0.4-0.1-0.5-0.1c-0.3-0.1-0.6-0.1-1-0.2
			c-0.4-0.1-0.8,0.1-0.9,0.5c-0.1,0.4,0.1,0.8,0.5,0.9c0.4,0.1,0.9,0.2,1.3,0.4c0.1-0.5,0.1-1,0.2-1.5c-0.1,0-0.3,0-0.4,0
			c-0.4,0-0.7,0.3-0.7,0.7s0.2,0.8,0.5,0.8c0.1,0,0.2,0.1,0.1,0c0.1,0,0.1,0.1,0.2,0.1c0.1,0.1,0.2,0.1,0.3,0.2
			c0.2,0.1,0.5,0.2,0.7,0.2c0.1,0,0.3,0,0.4,0.1c0.1,0,0.2,0.1,0,0c0.1,0,0.1,0,0.2,0s0.1,0,0.1,0c0,0,0,0,0.1,0c0.1,0,0.1,0,0,0
			c0,0,0.1,0,0.1,0.1c0.1,0,0,0-0.1,0c0,0,0.1,0,0.1,0.1c0.1-0.4,0.1-0.8,0.1-1.2c0,0-0.2,0.1-0.1,0c0.1,0,0.1,0,0,0
			c0,0,0.1,0,0.1,0c-0.1,0-0.1,0-0.1,0c-0.1,0-0.2,0,0,0c-0.2-0.1-0.5-0.1-0.7-0.2c-0.3,0-0.5,0.1-0.8,0.2c0,0-0.1,0-0.1,0
			c0.1,0,0.1,0,0,0c-0.1,0-0.1,0-0.2,0c-0.1,0-0.1,0-0.1,0c0,0-0.2,0-0.1,0c-0.2,0-0.4,0-0.6,0.1c-0.2,0.1-0.3,0.3-0.3,0.5
			C225.9,39,226.1,39.5,226.6,39.6L226.6,39.6z"/>
	</g>
</g>
<g>
	<g>
		<path d="M226.8,40.9c0.9,0.1,1.9,0,2.8-0.2c0.5-0.1,0.7-0.9,0.3-1.2c-0.2-0.2-0.5-0.4-0.8-0.5c-0.3-0.1-0.6-0.1-0.9,0
			c-0.2,0-0.4,0.2-0.4,0.3c-0.1,0.2-0.1,0.4-0.1,0.6c0.1,0.2,0.2,0.4,0.3,0.5c0.2,0.1,0.4,0.1,0.6,0.1c0,0,0,0,0,0
			c-0.1,0-0.1,0-0.2,0c0.1,0,0.2,0,0.3,0c-0.1,0-0.1,0-0.2,0c0.1,0,0.1,0,0.2,0c0,0,0.1,0,0.1,0c0.1,0,0.1,0-0.1,0
			c0,0,0.1,0,0.1,0.1c0.1,0,0,0-0.1,0c0,0,0,0,0.1,0c0.1-0.4,0.2-0.8,0.3-1.2c-0.3,0.1-0.5,0.1-0.8,0.1c0.1,0,0.1,0,0.2,0
			c-0.6,0.1-1.2,0.1-1.8,0c-0.4,0-0.8,0.4-0.8,0.8C226.1,40.6,226.4,40.9,226.8,40.9L226.8,40.9z"/>
	</g>
</g>
<g>
	<g>
		<path d="M236.1,40.1c0.2,0,0.4,0,0.6,0c0.1,0,0.3-0.1,0.4-0.2c0.2-0.2,0.4-0.4,0.4-0.7c0-0.2-0.1-0.5-0.4-0.7
			c-0.3-0.1-0.6-0.3-0.8-0.4c0.1,0.5,0.1,0.9,0.2,1.4c0.3-0.2,0.7-0.4,1.1-0.6c0.3-0.2,0.4-0.5,0.4-0.8c0-0.1-0.1-0.2-0.1-0.3
			c-0.1-0.1-0.2-0.2-0.4-0.3c-0.3-0.1-0.7-0.3-1-0.4c0.1,0,0.1,0,0.2,0.1c-0.4-0.2-0.8-0.3-1.1-0.5c-0.1,0.5-0.2,0.9-0.4,1.4
			c0.5-0.1,1-0.1,1.6,0c0-0.5,0-1,0-1.5c-0.1,0-0.2,0-0.4,0c0,0.5,0,1,0,1.5c0.1,0,0.3,0,0.5,0c0.4,0,0.8-0.3,0.8-0.8
			s-0.3-0.8-0.8-0.8c-0.1,0-0.3,0-0.5,0c-0.4,0-0.8,0.3-0.8,0.8s0.3,0.7,0.8,0.8c0.1,0,0.2,0,0.4,0c0.4,0,0.8-0.3,0.8-0.8
			c0-0.4-0.3-0.7-0.8-0.8c-0.5,0-1.1,0-1.6,0c-0.2,0-0.3,0-0.4,0.2c-0.1,0.1-0.2,0.2-0.3,0.4c-0.1,0.3,0.1,0.7,0.3,0.8
			c0.8,0.4,1.5,0.7,2.3,1c-0.1-0.5-0.1-0.9-0.2-1.4c-0.4,0.2-0.7,0.4-1.1,0.6c-0.3,0.2-0.4,0.4-0.4,0.8s0.2,0.5,0.5,0.6
			c0.1,0,0.2,0.1,0.3,0.1c-0.1,0-0.1,0-0.2-0.1c0.1,0.1,0.3,0.1,0.4,0.2c0-0.4,0-0.9,0-1.3c0,0-0.1,0-0.1,0.1c0.1,0,0.1,0,0.2-0.1
			c-0.1,0-0.1,0-0.2,0c0.1,0,0.1,0,0.2,0c-0.1,0-0.1,0-0.2,0c0.1,0,0.1,0,0.2,0c0,0,0,0,0,0c-0.2,0-0.4,0-0.6,0.1
			c-0.2,0.1-0.3,0.3-0.3,0.5c0,0.2,0,0.4,0.1,0.6C235.8,39.9,235.9,40.1,236.1,40.1L236.1,40.1z"/>
	</g>
</g>
<g>
	<g>
		<path d="M226,41c1.4,0.3,2.8,0.2,4.2-0.1c0.4-0.1,0.6-0.5,0.5-0.8c-0.1-0.4-0.4-0.6-0.7-0.7c-1.6,0-3.2,0-4.8,0.3
			c-0.4,0.1-0.6,0.5-0.5,0.9c0.1,0.4,0.5,0.6,0.9,0.5c0.7-0.2,1.4-0.2,2.1-0.2c0.8,0,1.5,0,2.2,0c-0.1-0.5-0.1-1-0.2-1.5
			c-0.6,0.2-1.1,0.2-1.7,0.2c-0.3,0-0.6,0-0.9,0c-0.3,0-0.5,0-0.8-0.1c-0.4-0.1-0.8,0.1-0.9,0.5C225.4,40.5,225.6,40.9,226,41
			L226,41z"/>
	</g>
</g>
<g>
	<g>
		<path d="M221.1,41.4c2.9,0.4,5.8,0.5,8.7,0.5c2.5,0,5.2,0.2,7.5-1c0.8-0.5,0.1-1.8-0.8-1.3c-2.1,1.2-5,0.8-7.4,0.8
			c-2.7,0-5.4-0.1-8.1-0.5C220.1,39.8,220.1,41.3,221.1,41.4L221.1,41.4z"/>
	</g>
</g>
<g>
	<g>
		<path d="M226.2,38.3c4.2-0.3,8.5-1,12.6-0.1c0.9,0.2,1.3-1.2,0.4-1.5c-4.3-0.9-8.7-0.3-13,0C225.2,36.9,225.2,38.4,226.2,38.3
			L226.2,38.3z"/>
	</g>
</g>
<g>
	<g>
		<path d="M225.5,37.6c3.6-0.2,7.2-0.4,10.8-0.7c1-0.1,1-1.6,0-1.5c-3.6,0.3-7.2,0.5-10.8,0.7C224.5,36.1,224.5,37.6,225.5,37.6
			L225.5,37.6z"/>
	</g>
</g>
<g>
	<g>
		<path d="M222.9,38c-0.8,0-1.6,0.1-2.4,0.3c0.3,0.4,0.6,0.7,0.9,1.1c0.3-0.4,0.5-0.9,0.6-1.4c0.3-0.8-0.9-1.3-1.4-0.6
			c-0.1,0.2-0.2,0.5-0.3,0.7c-0.1,0.6,0.5,1.2,1.1,0.8c0.4-0.2,0.6-0.6,0.6-1c0-0.7-1.1-1.1-1.4-0.4c-0.4,0.9-0.7,2.5,0.7,2.8
			c1.4,0.3,2-1.3,1.9-2.4c-0.1-0.7-1-1.1-1.4-0.4c-0.4,0.7-1,3.1,0.6,2.8c1.4-0.2,0.9-2.3,0.4-3.1c-0.3-0.4-0.8-0.9-1.4-0.7
			c-0.5,0.1-0.8,0.7-0.7,1.2c0.3,1.3,2.4,1.4,2.8,0.2c-0.5-0.1-1-0.3-1.4-0.4c-0.2,1-0.4,2.8,1.1,2.8c1.4,0,1.7-1.7,1.6-2.8
			c-0.1-0.7-1-1.1-1.4-0.4c-0.4,0.8-0.9,3.7,0.9,3.2c1.5-0.4,0.8-2.6,0.2-3.4c-0.5-0.6-1.2,0-1.3,0.5c-0.1,1.1,0.9,1.9,1.8,1.1
			c0.6-0.5,0-1.5-0.7-1.2c-1.2,0.4-1.2,2.1,0,2.5c0.5,0.2,1.1,0.1,1.5-0.2c0.5-0.4,0.5-1.2,0-1.6c-0.2,0.4-0.4,0.8-0.5,1.3
			c0.1,0,0.2,0,0.3,0c0.4,0,0.9-0.5,0.7-1c-0.2-0.5-0.6-0.8-1.1-0.6c-0.5,0.2-0.6,0.7-0.5,1.2c0.1,0.4,0.6,0.6,0.9,0.5
			c1.8-0.4,3.7-0.6,5.6-0.5c-0.2-0.2-0.5-0.5-0.8-0.8c-0.1,1,1,1.7,1.9,1.6c1-0.2,1.4-1.2,0.8-2.1c-0.5-0.8-1.9-1-2.3,0.1
			c-0.3,0.8,0.4,1.9,1.2,2.1c1.2,0.3,1.7-0.9,1.6-1.9c0-0.5-0.2-1.1-0.7-1.3c-0.4-0.2-0.9-0.1-1.2,0.3c-0.6,0.7-0.4,2.1,0.6,2.4
			c1,0.3,1.6-0.7,1.6-1.5c0-0.7-1-1-1.4-0.4c-1.1,2,2.7,3.2,2.8,1.2c0-0.9-1.1-1.3-1.6-0.7c-0.6,0.7-0.1,1.8,0.8,1.9
			c0.4,0.1,0.8-0.1,0.9-0.5c0.3-0.8-0.6-1.6-1.4-1.4c-0.8,0.2-0.9,1.3-0.2,1.7c0.4,0.3,1.2-0.1,1.1-0.7c-0.1-0.8-1-1.5-1.8-0.9
			c-0.7,0.6-0.4,1.7,0.5,1.9c0.5,0.1,1.2-0.4,0.9-0.9c-0.1-0.2-0.1-0.3-0.2-0.5c-0.4-0.5-1.2-0.5-1.4,0.2c-0.1,0.3-0.1,0.5,0,0.8
			c0.4-0.2,0.8-0.5,1.2-0.7c-0.1-0.1-0.1-0.2-0.2-0.2c-0.2,0.4-0.5,0.8-0.7,1.2c0.3,0,0.5,0,0.8-0.1c0.8-0.5,0.1-1.8-0.8-1.3
			c0,0-0.1,0-0.1,0.1c0.2,0,0.4,0,0.6-0.1c0,0-0.1,0-0.1,0c-0.7-0.1-1.3,0.7-0.7,1.2c0.1,0.1,0.1,0.2,0.2,0.2c0.5,0.6,1.4,0,1.2-0.7
			v0c-0.5,0.1-0.9,0.1-1.4,0.2c0,0,0.1,0.1,0.1,0.1c0.3-0.3,0.6-0.6,0.9-0.9c-0.2,0.1-0.4,0.3-0.6,0.4c0.4-0.2,0.8-0.4,1.1-0.7
			c0,0-0.1,0-0.1,0c0.1,0.2,0.2,0.3,0.3,0.5c0,0.1,0,0.1,0,0.2c-0.1,0.2-0.2,0.3-0.3,0.5c-0.1,0-0.3,0-0.4,0c0-0.2-0.1-0.4-0.1-0.6
			c0,0,0,0.1,0,0.1c0.3-0.2,0.6-0.3,0.9-0.5c-0.1,0.2-0.2,0.5-0.2,0.7c-0.2,0-0.4,0-0.6-0.1c0.4-0.5,0.4-0.8,0-0.9
			c-0.1-0.1-0.2-0.1-0.1,0.1c-0.5-0.1-0.9-0.2-1.4-0.4c0,0.2,0.1,0.2,0.3,0.2c-0.2,0-0.4,0-0.6-0.1c-0.1-0.1,0,0.6-0.1,0.6
			c0.1,0,0.2-0.1,0.3-0.1c-0.1-0.1-0.1-0.1-0.1-0.2c-0.1,0.1-0.3,0.2-0.4,0.3c0.5-0.2,0-0.2,0.1-0.4c0-0.4-0.4-0.7-0.8-0.8
			c-2-0.1-4,0.1-6,0.6c0.3,0.2,0.6,0.3,0.9,0.5c0,0,0,0.1,0,0.1c-0.1,0.2-0.2,0.3-0.3,0.5c0,0,0.1,0,0.1,0c-0.2,0-0.4,0-0.6,0.1
			c0,0,0.1,0,0.1,0c-0.2-0.2-0.4-0.3-0.5-0.5c0,0,0,0,0,0.1c0.2-0.3,0.5-0.6,0.7-1c-0.1,0-0.2,0-0.3,0c-0.6,0-1,0.9-0.5,1.3
			c0.2-0.8,0.2-0.9,0-0.3c-0.2-0.4-0.5-0.8-0.7-1.2c0.5,0.3,0.8,0.3,0.7,0c-0.4,0.2-0.9,0.3-1.3,0.5c0.1,0.2,0.2,0.4,0.3,0.6
			c0,0.1,0,0.1,0,0.2c-0.1,0.3,0.1,0.4,0.5,0.1c0.1,0.2,0.2,0.3,0.3,0.5c-0.2-0.5-0.1-1,0.2-1.4c-0.5-0.1-0.9-0.2-1.4-0.4
			c0,0.2,0,0.4,0,0.7c0,0.1-0.2,0.5-0.2,0.6c0.1,0.1,0.2,0.1,0.3,0.2c0-0.1,0-0.3,0-0.4c0-0.2,0.1-0.5,0.1-0.7
			c0.2-0.9-1.2-1.3-1.4-0.4c0.2-0.5,0.1-0.3,0,0.4c-0.2,0-0.4,0-0.6,0.1c0.2,0,0.6,0.9,0.4,1.1c0.2-0.1,0.4-0.2,0.5-0.2
			c0,0-0.1,0-0.1,0c0.2,0.1,0.4,0.2,0.6,0.4c-0.1-0.2,0.2-0.8,0.2-0.9c-0.5-0.1-0.9-0.2-1.4-0.4c0,0.2,0.1,0.3,0,0.5s-0.2,0.4,0,0.5
			c0.2,0.1,0.1,0,0.1-0.2c0.1-0.2,0.1-0.3,0.1-0.5c-0.5-0.1-0.9-0.2-1.4-0.4c0.1-0.1,0.1-0.2,0.1-0.3c0.4,0.3,0.7,0.6,1.1,0.8
			c0-0.1,0.1-0.3,0.1-0.4c-0.5-0.2-0.9-0.4-1.4-0.6c-0.1,0.4-0.3,0.7-0.5,1c-0.4,0.6,0.2,1.3,0.9,1.1c0.7-0.2,1.3-0.2,2-0.2
			C223.9,39.5,223.9,38,222.9,38L222.9,38z"/>
	</g>
</g>
<circle class="st21" cx="224" cy="39" r="1.5"/>
<circle class="st21" cx="234" cy="39" r="1.5"/>
<g id="Слой_3">
</g>
<g>
	<g>
		<path class="st14" d="M122.7,119.6c-1.3-6.3,0.9-12.5,4.1-17.8c1.6-2.6,3.3-5.2,5.1-7.6c1.8-2.5,3.8-5,6.1-7.1
			c4.2-3.9,9.6-6,15-7.4c5.9-1.5,12.1-2.4,18.1-3.1c7.5-0.8,15.1-1.1,22.6,0.3c1.2,0.2,2.5-1,1.7-2.2c-2.6-3.7-5.9-6.7-9.9-8.8
			c-1.5-0.8-2.9,1.1-1.8,2.4c3,3.4,6.2,6.5,9.6,9.3c0-0.7,0-1.4,0-2.1c-2.4,3.1-4.8,6.1-7.1,9.2c-1.2,1.5,0.9,3.6,2.1,2.1
			c2.4-3.1,4.8-6.1,7.1-9.2c0.5-0.6,0.7-1.6,0-2.1c-3.4-2.9-6.7-6-9.6-9.3c-0.6,0.8-1.2,1.6-1.8,2.4c3.5,1.9,6.5,4.5,8.8,7.8
			c0.6-0.7,1.1-1.5,1.7-2.2c-7.1-1.3-14.3-1.3-21.4-0.6c-6.6,0.6-13.2,1.6-19.6,3.1c-5.9,1.4-11.7,3.5-16.4,7.4
			c-2.6,2.1-4.7,4.7-6.6,7.3c-2,2.6-3.9,5.3-5.6,8.1c-3.9,6.3-6.6,13.6-5,21.1C120.2,122.3,123.1,121.5,122.7,119.6L122.7,119.6z"/>
	</g>
</g>
<g>
	<g>
		<path class="st14" d="M293,118.3c1.2-7.8,2.5-16.1,0.1-23.8c-2.1-7-7.2-12.6-14-15.3c-1.2-0.5-2,0.9-1.9,1.8
			c0.9,4.9,2.6,9.6,5.1,13.9c0.9,1.7,3.5,0.2,2.6-1.5c-2.3-4.1-3.9-8.6-4.8-13.2c-0.6,0.6-1.2,1.2-1.9,1.8c6,2.5,10.5,7.8,12.2,14
			c1.9,7,0.7,14.4-0.4,21.3C289.9,119.4,292.7,120.2,293,118.3L293,118.3z"/>
	</g>
</g>
<g>
	<g>
		<path class="st14" d="M279.9,81.9c5.3-1.1,10.8-1.4,16.2-1.1c1.9,0.1,1.9-2.9,0-3c-5.7-0.3-11.4,0.1-17,1.2
			C277.2,79.4,278,82.3,279.9,81.9L279.9,81.9z"/>
	</g>
</g>
<g>
	<g>
		<path class="st20" d="M277.5,62.8c3.3-0.1,6-1.9,8.5-3.9c2.8-2.2,5.5-4.5,8.3-6.8c0.6-0.5,0.5-1.6,0-2.1c-0.6-0.6-1.5-0.5-2.1,0
			c-2.6,2.1-5.1,4.2-7.7,6.3c-2,1.6-4.3,3.4-7,3.5C275.6,59.9,275.5,62.9,277.5,62.8L277.5,62.8z"/>
	</g>
</g>
<text transform="matrix(1 0 0 1 302.5107 42.4683)" class="st10 st12 st13">WiFi adapter</text>
<circle class="st22" cx="214.1" cy="64.5" r="4.8"/>
<circle class="st23" cx="211.7" cy="63.1" r="0.6"/>
<circle class="st23" cx="216.5" cy="63.1" r="0.6"/>
<g>
	<g>
		<path d="M276.8,35.1c4.4-1,8.8-2.2,13.2-3.6c3.1-1,5.1-4.1,4.2-7.4c-0.8-3-4.3-5.2-7.4-4.2c-4.3,1.4-8.7,2.6-13.2,3.6
			c-3.2,0.7-5,4.4-4.2,7.4C270.4,34.1,273.7,35.7,276.8,35.1L276.8,35.1z"/>
	</g>
</g>
<g>
	<g>
		<path d="M210.6,66.5c0.5,1.4,1.9,2,3.3,2.1c1.6,0.1,2.9-0.8,3.7-2c0.4-0.6-0.6-1.2-1-0.6c-0.5,0.8-1.3,1.3-2.2,1.4
			c-0.9,0.1-2.3-0.2-2.6-1.2C211.5,65.4,210.4,65.7,210.6,66.5L210.6,66.5z"/>
	</g>
</g>
<g>
	<g>
		<path d="M211.7,61.3c1.2,0.6,2.4,1.2,3.6,1.9c0.7,0.4,1.3-0.7,0.6-1c-1.2-0.7-2.4-1.3-3.6-1.9C211.6,59.9,211,61,211.7,61.3
			L211.7,61.3z"/>
	</g>
</g>
<g>
	<g>
		<path d="M216.6,63.8c0.4,0.4,0.9,0.8,1.4,1.1c0.3,0.2,0.7,0.1,0.8-0.2c0.2-0.3,0.1-0.6-0.2-0.8c-0.4-0.3-0.8-0.6-1.1-0.9
			C216.9,62.5,216.1,63.3,216.6,63.8L216.6,63.8z"/>
	</g>
</g>
<text transform="matrix(1.1084 0 0 1 217.6945 77.6622)" class="st24 st25">HACKER</text>
</svg>
