<?xml version="1.0" encoding="utf-8"?>
<!-- Generator: Adobe Illustrator 25.4.1, SVG Export Plug-In . SVG Version: 6.00 Build 0)  -->
<svg version="1.1" id="Слой_1" xmlns="http://www.w3.org/2000/svg" xmlns:xlink="http://www.w3.org/1999/xlink" x="0px" y="0px"
	 viewBox="0 0 462 129" style="enable-background:new 0 0 462 129;" xml:space="preserve">
<style type="text/css">
	.st0{fill:#FFFFC8;}
	.st1{fill:#808080;}
	.st2{fill:none;stroke:#FFFFC8;stroke-width:2;stroke-miterlimit:10;}
	.st3{fill:#0005BF;}
	.st4{fill:none;stroke:#0000FF;stroke-miterlimit:10;}
	.st5{fill:#10BF00;}
	.st6{fill:#BCBF00;}
	.st7{fill:#AAACFF;}
	.st8{fill:#004000;}
	.st9{fill:#004100;}
	.st10{fill:#FFFFE4;}
	.st11{fill:#272A00;}
	.st12{font-family:'MyriadPro-Regular';}
	.st13{font-size:12px;}
	.st14{fill:#DF2500;}
</style>
<g>
	<path class="st0" d="M173.77,80.5c-0.7,0-1.27-0.57-1.27-1.27V68.77c0-0.7,0.57-1.27,1.27-1.27h74.47c0.7,0,1.27,0.57,1.27,1.27
		v10.47c0,0.7-0.57,1.27-1.27,1.27H173.77z"/>
	<path d="M248.23,68c0.42,0,0.77,0.34,0.77,0.77v10.47c0,0.42-0.34,0.77-0.77,0.77h-74.47c-0.42,0-0.77-0.34-0.77-0.77V68.77
		c0-0.42,0.34-0.77,0.77-0.77H248.23 M248.23,67h-74.47c-0.98,0-1.77,0.79-1.77,1.77v10.47c0,0.98,0.79,1.77,1.77,1.77h74.47
		c0.98,0,1.77-0.79,1.77-1.77V68.77C250,67.79,249.21,67,248.23,67L248.23,67z"/>
</g>
<g>
	<rect x="177.5" y="81" class="st1" width="18" height="2"/>
</g>
<g>
	<rect x="226.5" y="81" class="st1" width="18" height="2"/>
</g>
<line class="st2" x1="235" y1="68" x2="235" y2="39"/>
<circle class="st3" cx="235" cy="40.88" r="2.88"/>
<circle class="st4" cx="235" cy="40.88" r="8"/>
<circle class="st4" cx="235" cy="40.88" r="17.81"/>
<path class="st1" d="M201.78,74h-24.81c-0.67,0-1.22-0.55-1.22-1.22v-1.85c0-0.67,0.55-1.22,1.22-1.22h24.81
	c0.67,0,1.22,0.55,1.22,1.22v1.85C203,73.45,202.45,74,201.78,74z"/>
<circle class="st5" cx="179" cy="72" r="1"/>
<circle class="st5" cx="183" cy="72" r="1"/>
<circle class="st5" cx="187" cy="72" r="1"/>
<circle class="st5" cx="191" cy="72" r="1"/>
<circle class="st5" cx="195" cy="72" r="1"/>
<circle class="st5" cx="199" cy="72" r="1"/>
<path class="st6" d="M57.35,91h-22.7C33.19,91,32,89.81,32,88.35v-44.7c0-1.46,1.19-2.65,2.65-2.65h22.7c1.46,0,2.65,1.19,2.65,2.65
	v44.7C60,89.81,58.81,91,57.35,91z"/>
<path class="st7" d="M59,88H33V44.64c0-1.46,1.18-2.64,2.64-2.64h20.7c1.47,0,2.65,1.19,2.65,2.65V88z"/>
<circle cx="46" cy="44" r="1"/>
<circle class="st8" cx="46" cy="44" r="0.5"/>
<path class="st9" d="M414.29,70h-78.57c-1.5,0-2.71-1.21-2.71-2.71V28.71c0-1.5,1.21-2.71,2.71-2.71h78.57
	c1.5,0,2.71,1.21,2.71,2.71v38.57C417,68.79,415.79,70,414.29,70z"/>
<rect x="335" y="28" class="st7" width="80" height="40"/>
<rect x="371.5" y="70" class="st9" width="7" height="8"/>
<rect x="367.5" y="77" class="st9" width="15" height="2"/>
<path class="st9" d="M384.65,107.77h-44.3c-1.85,0-3.35-1.5-3.35-3.35V86.35c0-1.85,1.5-3.35,3.35-3.35h44.3
	c1.85,0,3.35,1.5,3.35,3.35v18.07C388,106.27,386.5,107.77,384.65,107.77z"/>
<path class="st10" d="M372.45,106.31h-14.07c-0.54,0-0.98-0.44-0.98-0.98v-2.41c0-0.54,0.44-0.98,0.98-0.98h14.07
	c0.54,0,0.98,0.44,0.98,0.98v2.41C373.43,105.88,372.99,106.31,372.45,106.31z"/>
<path class="st10" d="M349.14,100.49h-8.25c-0.54,0-0.97-0.44-0.97-0.97v-2.42c0-0.54,0.44-0.97,0.97-0.97h8.25
	c0.54,0,0.97,0.44,0.97,0.97v2.42C350.11,100.05,349.68,100.49,349.14,100.49z"/>
<path class="st10" d="M384.11,100.49h-8.25c-0.54,0-0.97-0.44-0.97-0.97v-2.42c0-0.54,0.44-0.97,0.97-0.97h8.25
	c0.54,0,0.97,0.44,0.97,0.97v2.42C385.09,100.05,384.65,100.49,384.11,100.49z"/>
<circle class="st10" cx="342.1" cy="104.13" r="2.19"/>
<circle class="st10" cx="347.93" cy="104.13" r="2.19"/>
<circle class="st10" cx="353.76" cy="104.13" r="2.19"/>
<circle class="st10" cx="359.59" cy="98.3" r="2.19"/>
<circle class="st10" cx="365.41" cy="98.3" r="2.19"/>
<circle class="st10" cx="371.24" cy="98.3" r="2.19"/>
<circle class="st10" cx="377.07" cy="104.13" r="2.19"/>
<circle class="st10" cx="382.9" cy="104.13" r="2.19"/>
<circle class="st10" cx="342.1" cy="92.47" r="2.19"/>
<circle class="st10" cx="347.93" cy="92.47" r="2.19"/>
<circle class="st10" cx="353.76" cy="92.47" r="2.19"/>
<circle class="st10" cx="359.59" cy="92.47" r="2.19"/>
<circle class="st10" cx="365.41" cy="92.47" r="2.19"/>
<circle class="st10" cx="371.24" cy="92.47" r="2.19"/>
<circle class="st10" cx="377.07" cy="92.47" r="2.19"/>
<circle class="st10" cx="382.9" cy="92.47" r="2.19"/>
<circle class="st10" cx="342.01" cy="87.26" r="2.19"/>
<circle class="st10" cx="347.84" cy="87.26" r="2.19"/>
<circle class="st10" cx="353.67" cy="87.26" r="2.19"/>
<circle class="st10" cx="359.5" cy="87.26" r="2.19"/>
<circle class="st10" cx="365.33" cy="87.26" r="2.19"/>
<circle class="st10" cx="371.16" cy="87.26" r="2.19"/>
<circle class="st10" cx="376.99" cy="87.26" r="2.19"/>
<circle class="st10" cx="382.81" cy="87.26" r="2.19"/>
<circle class="st10" cx="353.76" cy="98.3" r="2.19"/>
<ellipse class="st11" cx="406.5" cy="95" rx="5.5" ry="8"/>
<ellipse class="st10" cx="406.5" cy="90" rx="0.5" ry="2"/>
<text transform="matrix(1 0 0 1 86.7236 59.0425)" class="st10 st12 st13">some data</text>
<text transform="matrix(1 0 0 1 268.1255 59.0423)" class="st10 st12 st13">some data</text>
<g>
	<g>
		<path class="st14" d="M72.81,75.65c21.64,0,43.28,0,64.93,0c6.16,0,12.32,0,18.48,0c1.93,0,1.93-3,0-3c-21.64,0-43.28,0-64.93,0
			c-6.16,0-12.32,0-18.48,0C70.88,72.65,70.87,75.65,72.81,75.65L72.81,75.65z"/>
	</g>
</g>
<g>
	<g>
		<path class="st14" d="M155.39,72.78c-3.85,1.27-7.39,3.18-10.59,5.67c-0.64,0.5-0.52,1.6,0,2.12c0.63,0.63,1.48,0.5,2.12,0
			c2.7-2.1,6-3.82,9.27-4.9c0.77-0.25,1.27-1.04,1.05-1.85C157.03,73.08,156.16,72.53,155.39,72.78L155.39,72.78z"/>
	</g>
</g>
<g>
	<g>
		<path class="st14" d="M145.26,70.48c0.82,0.21,1.63,0.47,2.41,0.78c0.03,0.01,0.37,0.16,0.24,0.1c-0.11-0.05,0.14,0.06,0.16,0.07
			c0.18,0.08,0.36,0.17,0.54,0.25c0.4,0.2,0.8,0.41,1.19,0.63c0.73,0.42,1.44,0.89,2.12,1.4c0.2,0.15-0.14-0.12,0.05,0.04
			c0.08,0.06,0.16,0.12,0.23,0.19c0.17,0.14,0.34,0.29,0.51,0.44c0.34,0.3,0.66,0.61,0.98,0.92c0.55,0.56,1.57,0.6,2.12,0
			c0.55-0.6,0.59-1.53,0-2.12c-2.68-2.7-6.08-4.65-9.76-5.6c-0.76-0.2-1.66,0.25-1.85,1.05C144.04,69.41,144.45,70.27,145.26,70.48
			L145.26,70.48z"/>
	</g>
</g>
<g>
	<g>
		<path class="st14" d="M73.5,75.12c4.95-0.46,9.72-1.96,14.01-4.46c1.67-0.97,0.16-3.57-1.51-2.59c-3.82,2.23-8.09,3.64-12.5,4.05
			c-0.81,0.08-1.5,0.64-1.5,1.5C72,74.38,72.69,75.2,73.5,75.12L73.5,75.12z"/>
	</g>
</g>
<g>
	<g>
		<path class="st14" d="M73.51,74.57c4.13,2.08,8.41,3.84,12.81,5.27c1.84,0.6,2.63-2.3,0.8-2.89c-4.15-1.35-8.19-3-12.09-4.96
			c-0.72-0.36-1.63-0.19-2.05,0.54C72.58,73.19,72.78,74.21,73.51,74.57L73.51,74.57z"/>
	</g>
</g>
<g>
	<g>
		<path class="st14" d="M258.34,75.65c19.29,0,38.58,0,57.87,0c1.93,0,1.93-3,0-3c-19.29,0-38.58,0-57.87,0
			C256.41,72.65,256.41,75.65,258.34,75.65L258.34,75.65z"/>
	</g>
</g>
<g>
	<g>
		<path class="st14" d="M258.46,75.65c0.83,0.11,1.7-0.24,2.37-0.71c0.34-0.24,0.67-0.51,0.99-0.78c0.15-0.12,0.3-0.24,0.44-0.37
			c0.07-0.05,0.13-0.11,0.2-0.16c0.05-0.04,0.29-0.22,0.05-0.04c1.19-0.9,2.44-1.72,3.75-2.43c0.69-0.38,0.97-1.39,0.54-2.05
			c-0.45-0.7-1.31-0.94-2.05-0.54c-1.23,0.67-2.42,1.43-3.55,2.28c-0.6,0.45-1.19,0.93-1.77,1.41c-0.14,0.11-0.04,0.07,0.03-0.02
			c-0.04,0.05-0.14,0.1-0.19,0.14c-0.14,0.1-0.3,0.17-0.45,0.27c-0.16,0.1,0.23-0.06,0.05-0.02c-0.07,0.01-0.15,0.04-0.21,0.06
			c-0.16,0.06,0.24,0.01,0.07-0.01c-0.09-0.02-0.19-0.01-0.28-0.02c-0.78-0.1-1.53,0.76-1.5,1.5
			C257,75.05,257.63,75.55,258.46,75.65L258.46,75.65z"/>
	</g>
</g>
<g>
	<g>
		<path class="st14" d="M258.54,76.08c0.32,0.11,0.63,0.22,0.95,0.34c0.16,0.06,0.31,0.12,0.47,0.19c0.08,0.03,0.16,0.06,0.23,0.1
			c-0.16-0.07-0.17-0.07-0.01,0c0.58,0.26,1.15,0.52,1.7,0.82c1.16,0.61,2.25,1.31,3.32,2.07c0.64,0.45,1.7,0.14,2.05-0.54
			c0.41-0.77,0.15-1.57-0.54-2.05c-2.29-1.61-4.73-2.9-7.38-3.81c-0.74-0.25-1.67,0.29-1.85,1.05
			C257.31,75.07,257.75,75.81,258.54,76.08L258.54,76.08z"/>
	</g>
</g>
<g>
	<g>
		<path class="st14" d="M316.39,72.66c-2.67-1.22-5.33-2.45-8-3.67c-0.71-0.33-1.65-0.23-2.05,0.54c-0.35,0.66-0.22,1.7,0.54,2.05
			c2.67,1.22,5.33,2.45,8,3.67c0.71,0.33,1.65,0.23,2.05-0.54C317.28,74.05,317.15,73.01,316.39,72.66L316.39,72.66z"/>
	</g>
</g>
<g>
	<g>
		<path class="st14" d="M316.04,72.88c-1.76-0.06-3.35,0.86-4.83,1.71c-1.46,0.84-2.92,1.69-4.39,2.54
			c-0.68,0.39-0.98,1.37-0.54,2.05c0.44,0.69,1.33,0.96,2.05,0.54c1.37-0.8,2.75-1.59,4.12-2.39c0.62-0.36,1.24-0.72,1.88-1.03
			c0.09-0.04,0.18-0.09,0.28-0.13c-0.13,0.05-0.1,0.04,0.06-0.03c0.14-0.05,0.28-0.1,0.43-0.15c0.19-0.06,0.39-0.11,0.58-0.14
			c-0.28,0.04,0.29,0.01,0.35,0.01c0.79,0.03,1.54-0.71,1.5-1.5C317.51,73.55,316.89,72.91,316.04,72.88L316.04,72.88z"/>
	</g>
</g>
</svg>
