<?xml version="1.0" encoding="utf-8"?>
<!-- Generator: Adobe Illustrator 25.4.1, SVG Export Plug-In . SVG Version: 6.00 Build 0)  -->
<svg version="1.1" id="Слой_1" xmlns="http://www.w3.org/2000/svg" xmlns:xlink="http://www.w3.org/1999/xlink" x="0px" y="0px"
	 viewBox="0 0 462 202" style="enable-background:new 0 0 462 202;" xml:space="preserve">
<style type="text/css">
	.st0{fill:#004100;}
	.st1{fill:#AAACFF;}
	.st2{fill:#FFFFE4;}
	.st3{fill:#272A00;}
	.st4{fill:#D32A00;}
	.st5{fill:#FFFFFF;}
	.st6{font-family:'MyriadPro-Regular';}
	.st7{font-size:9.2401px;}
	.st8{fill:#E9F3FF;}
	.st9{font-size:6.0105px;}
	.st10{fill:#FF4F3F;}
	.st11{fill:#009410;}
	.st12{fill:#2A4D5E;}
	.st13{fill:#FAE0C1;}
	.st14{fill:none;stroke:#000000;stroke-width:2;stroke-miterlimit:10;}
	.st15{fill:#007F64;stroke:#080099;stroke-miterlimit:10;}
	.st16{fill:#FAE0C1;stroke:#000000;stroke-width:0.5;stroke-miterlimit:10;}
	.st17{fill:#E6C92D;}
	.st18{stroke:#000000;stroke-miterlimit:10;}
	.st19{font-family:'HACKED';}
	.st20{font-size:8.8595px;}
	.st21{fill:#080099;}
</style>
<path class="st0" d="M140.2,87.9H61.7c-1.5,0-2.7-1.2-2.7-2.7V46.6c0-1.5,1.2-2.7,2.7-2.7h78.6c1.5,0,2.7,1.2,2.7,2.7v38.6
	C143,86.6,141.7,87.9,140.2,87.9z"/>
<rect x="61" y="45.9" class="st1" width="80" height="40"/>
<rect x="97.5" y="87.9" class="st0" width="7" height="8"/>
<rect x="93.5" y="94.9" class="st0" width="15" height="2"/>
<path class="st0" d="M114.5,157.4H60.3c-2.3,0-4.1-1.8-4.1-4.1v-22.1c0-2.3,1.8-4.1,4.1-4.1h54.2c2.3,0,4.1,1.8,4.1,4.1v22.1
	C118.6,155.6,116.8,157.4,114.5,157.4z"/>
<path class="st2" d="M99.6,155.6H82.4c-0.7,0-1.2-0.5-1.2-1.2v-2.9c0-0.7,0.5-1.2,1.2-1.2h17.2c0.7,0,1.2,0.5,1.2,1.2v2.9
	C100.8,155.1,100.3,155.6,99.6,155.6z"/>
<path class="st2" d="M71.1,148.5H61c-0.7,0-1.2-0.5-1.2-1.2v-3c0-0.7,0.5-1.2,1.2-1.2h10.1c0.7,0,1.2,0.5,1.2,1.2v3
	C72.3,148,71.7,148.5,71.1,148.5z"/>
<path class="st2" d="M113.9,148.5h-10.1c-0.7,0-1.2-0.5-1.2-1.2v-3c0-0.7,0.5-1.2,1.2-1.2h10.1c0.7,0,1.2,0.5,1.2,1.2v3
	C115,148,114.5,148.5,113.9,148.5z"/>
<circle class="st2" cx="62.5" cy="153" r="2.7"/>
<circle class="st2" cx="69.6" cy="153" r="2.7"/>
<circle class="st2" cx="76.7" cy="153" r="2.7"/>
<circle class="st2" cx="83.9" cy="145.8" r="2.7"/>
<circle class="st2" cx="91" cy="145.8" r="2.7"/>
<circle class="st2" cx="98.1" cy="145.8" r="2.7"/>
<circle class="st2" cx="105.2" cy="153" r="2.7"/>
<circle class="st2" cx="112.4" cy="153" r="2.7"/>
<circle class="st2" cx="62.5" cy="138.7" r="2.7"/>
<circle class="st2" cx="69.6" cy="138.7" r="2.7"/>
<circle class="st2" cx="76.7" cy="138.7" r="2.7"/>
<circle class="st2" cx="83.9" cy="138.7" r="2.7"/>
<circle class="st2" cx="91" cy="138.7" r="2.7"/>
<circle class="st2" cx="98.1" cy="138.7" r="2.7"/>
<circle class="st2" cx="105.2" cy="138.7" r="2.7"/>
<circle class="st2" cx="112.4" cy="138.7" r="2.7"/>
<circle class="st2" cx="62.4" cy="132.3" r="2.7"/>
<circle class="st2" cx="69.5" cy="132.3" r="2.7"/>
<circle class="st2" cx="76.6" cy="132.3" r="2.7"/>
<circle class="st2" cx="83.8" cy="132.3" r="2.7"/>
<circle class="st2" cx="90.9" cy="132.3" r="2.7"/>
<circle class="st2" cx="98" cy="132.3" r="2.7"/>
<circle class="st2" cx="105.1" cy="132.3" r="2.7"/>
<circle class="st2" cx="112.3" cy="132.3" r="2.7"/>
<circle class="st2" cx="76.7" cy="145.8" r="2.7"/>
<ellipse class="st3" cx="132.5" cy="112.9" rx="5.5" ry="8"/>
<ellipse class="st2" cx="132.5" cy="107.9" rx="0.5" ry="2"/>
<g id="Слой_3">
</g>
<path class="st0" d="M286,106h-78.6c-1.5,0-2.7-1.2-2.7-2.7V64.7c0-1.5,1.2-2.7,2.7-2.7H286c1.5,0,2.7,1.2,2.7,2.7v38.6
	C288.7,104.8,287.5,106,286,106z"/>
<rect x="206.7" y="64" class="st1" width="80" height="40"/>
<rect x="243.2" y="106" class="st0" width="7" height="8"/>
<rect x="239.2" y="113" class="st0" width="15" height="2"/>
<path class="st0" d="M261.1,150.9h-54.2c-2.3,0-4.1-1.8-4.1-4.1v-22.1c0-2.3,1.8-4.1,4.1-4.1h54.2c2.3,0,4.1,1.8,4.1,4.1v22.1
	C265.2,149.1,263.4,150.9,261.1,150.9z"/>
<path class="st2" d="M246.2,149.2H229c-0.7,0-1.2-0.5-1.2-1.2V145c0-0.7,0.5-1.2,1.2-1.2h17.2c0.7,0,1.2,0.5,1.2,1.2v2.9
	C247.4,148.6,246.9,149.2,246.2,149.2z"/>
<path class="st2" d="M217.7,142h-10.1c-0.7,0-1.2-0.5-1.2-1.2v-3c0-0.7,0.5-1.2,1.2-1.2h10.1c0.7,0,1.2,0.5,1.2,1.2v3
	C218.9,141.5,218.4,142,217.7,142z"/>
<path class="st2" d="M260.5,142h-10.1c-0.7,0-1.2-0.5-1.2-1.2v-3c0-0.7,0.5-1.2,1.2-1.2h10.1c0.7,0,1.2,0.5,1.2,1.2v3
	C261.7,141.5,261.1,142,260.5,142z"/>
<circle class="st2" cx="209.1" cy="146.5" r="2.7"/>
<circle class="st2" cx="216.2" cy="146.5" r="2.7"/>
<circle class="st2" cx="223.3" cy="146.5" r="2.7"/>
<circle class="st2" cx="230.5" cy="139.4" r="2.7"/>
<circle class="st2" cx="237.6" cy="139.4" r="2.7"/>
<circle class="st2" cx="244.7" cy="139.4" r="2.7"/>
<circle class="st2" cx="251.8" cy="146.5" r="2.7"/>
<circle class="st2" cx="259" cy="146.5" r="2.7"/>
<circle class="st2" cx="209.1" cy="132.2" r="2.7"/>
<circle class="st2" cx="216.2" cy="132.2" r="2.7"/>
<circle class="st2" cx="223.3" cy="132.2" r="2.7"/>
<circle class="st2" cx="230.5" cy="132.2" r="2.7"/>
<circle class="st2" cx="237.6" cy="132.2" r="2.7"/>
<circle class="st2" cx="244.7" cy="132.2" r="2.7"/>
<circle class="st2" cx="251.8" cy="132.2" r="2.7"/>
<circle class="st2" cx="259" cy="132.2" r="2.7"/>
<circle class="st2" cx="209" cy="125.9" r="2.7"/>
<circle class="st2" cx="216.1" cy="125.9" r="2.7"/>
<circle class="st2" cx="223.2" cy="125.9" r="2.7"/>
<circle class="st2" cx="230.4" cy="125.9" r="2.7"/>
<circle class="st2" cx="237.5" cy="125.9" r="2.7"/>
<circle class="st2" cx="244.6" cy="125.9" r="2.7"/>
<circle class="st2" cx="251.7" cy="125.9" r="2.7"/>
<circle class="st2" cx="258.9" cy="125.9" r="2.7"/>
<circle class="st2" cx="223.3" cy="139.4" r="2.7"/>
<ellipse class="st3" cx="278.2" cy="131" rx="5.5" ry="8"/>
<ellipse class="st2" cx="278.2" cy="126" rx="0.5" ry="2"/>
<g>
	<g>
		<path class="st3" d="M84.7,126.2c0.7-4.4-0.4-7.2-4.7-9.2c-2.2-1-4.6-1.2-6.9-2c-3.6-1.1-7-3.1-10.2-5c-1.7-1-3.2,1.6-1.5,2.6
			c3.3,1.9,6.6,3.8,10.3,5.1c4.3,1.5,11.2,1.4,10.2,7.7C81.5,127.3,84.4,128.1,84.7,126.2L84.7,126.2z"/>
	</g>
</g>
<g>
	<g>
		<path class="st3" d="M61.2,110.3c-1.1,1.4-2.4,4-4.1,3.3c-1.6-0.6-3.6-3.2-4.9-4.4c0,0.7,0,1.4,0,2.1c2.3-2.3,4.5-4.7,6.9-6.9
			c1.5-1.3,1.4-0.8,3,0.3c1.2,0.8,2.9,1.6,3.8,2.8c-0.1-0.5-0.3-1-0.4-1.5c-0.4,1.4-1.8,2.6-2.9,3.5c-1.5,1.3,0.7,3.4,2.1,2.1
			c1.2-1,3.9-3.4,3.7-5.3c-0.2-2.1-3.8-3.6-5.3-4.6c-1.9-1.3-3.1-2-5-0.6c-3,2.2-5.5,5.4-8.1,8c-0.6,0.5-0.6,1.6,0,2.1
			c1.5,1.3,3,2.7,4.4,4c0.8,0.7,1.8,2,2.9,2.2c2.4,0.5,4.7-3.7,5.9-5.2C64.5,110.9,62.4,108.8,61.2,110.3L61.2,110.3z"/>
	</g>
</g>
<g>
	<g>
		<path class="st3" d="M55.6,104.1c-5.9-12,18.3-8.6,23-7.6c6.2,1.3,12.5,4.6,18.9,3.1c1.9-0.4,1.1-3.3-0.8-2.9
			c-6.2,1.5-13.7-2.4-19.8-3.6c-4.7-0.9-9.6-1.6-14.3-0.8c-7.3,1.2-13.1,5.9-9.4,13.4C53.8,107.4,56.4,105.8,55.6,104.1L55.6,104.1z
			"/>
	</g>
</g>
<g>
	<g>
		<path class="st4" d="M41.5,103.7C22,95,19.2,63.9,27.7,46.9c4.6-9.1,12.3-15.9,22.2-18.6c10.8-3,22.6-3.6,33.7-4.4
			c1.9-0.1,1.9-3.1,0-3c-12.8,0.9-27.3,1.2-39.3,6.2C35.1,30.9,28,38.6,24.1,47.6c-7.9,18.1-4.4,49.7,15.9,58.7
			C41.7,107,43.2,104.5,41.5,103.7L41.5,103.7z"/>
	</g>
</g>
<g>
	<g>
		<path class="st4" d="M40,103.1c-5-0.4-9.7-1.6-14.2-3.8c-1.7-0.8-3.3,1.8-1.5,2.6c5,2.4,10.2,3.8,15.8,4.2
			C41.9,106.3,41.9,103.3,40,103.1L40,103.1z"/>
	</g>
</g>
<g>
	<g>
		<path class="st4" d="M40.3,103.9c-2.7-4.2-4.5-8.7-5.5-13.5c-0.4-1.9-3.3-1.1-2.9,0.8c1.1,5.1,3.1,9.8,5.8,14.2
			C38.8,107.1,41.4,105.6,40.3,103.9L40.3,103.9z"/>
	</g>
</g>
<text transform="matrix(1 0 0 1 88.2057 24.0949)" class="st5 st6 st7">PHYSICAL KEYLOGGER</text>
<rect x="213.5" y="71.8" class="st8" width="39.5" height="25.8"/>
<text transform="matrix(1 0 0 1 216.7274 79.5131)"><tspan x="0" y="0" class="st6 st9">So, some </tspan><tspan x="0" y="7.2" class="st6 st9">text</tspan></text>
<rect x="213.5" y="71.8" width="39.5" height="1.4"/>
<circle class="st10" cx="251.8" cy="72.4" r="0.4"/>
<circle class="st11" cx="249.8" cy="72.4" r="0.4"/>
<g id="Слой_2_00000133521054083138404290000006745651768255820445_">
	<g>
		<g>
			<path class="st12" d="M390.9,51.9c0.1,0,0.1,0.1,0.2,0.2C391,51.9,390.9,51.9,390.9,51.9c1.2,1,2.5,2.2,3.5,3.5
				c0.2,0.3,0.7,0.4,1.1,0.4c0.4,0,0.8-0.2,1.1-0.4c0.3-0.3,0.5-0.7,0.4-1.1c0-0.1,0-0.3,0-0.4c-0.1-0.2-0.2-0.5-0.4-0.7
				c-1.2-1.5-2.6-2.8-4.1-3.9c-0.3-0.2-0.8-0.2-1.2-0.1c-0.4,0.1-0.7,0.4-0.9,0.7c-0.2,0.4-0.3,0.8-0.1,1.2c0.1,0.1,0.1,0.2,0.1,0.4
				C390.5,51.5,390.7,51.7,390.9,51.9L390.9,51.9z"/>
		</g>
	</g>
	<g>
		<g>
			<path class="st12" d="M385.6,57.5c-1.8,1.8-3.4,3.9-4.6,6.2c0.9,0.1,1.8,0.2,2.7,0.4c-0.2-0.9,0.2-1.9,0.6-2.8
				c0.4-0.9,0.8-1.8,1.3-2.7c1-1.8,2.9-2.6,4.5-3.9c2.4-2,6-6.2,9.5-4.1c1.7,1,3.2-1.6,1.5-2.6c-2.2-1.3-4.8-1-7,0
				c-2.3,1-4,2.9-5.9,4.5c-1,0.8-2.1,1.4-3.1,2.2c-1,0.8-1.8,1.8-2.4,2.9c-1.2,2.2-2.4,4.8-1.9,7.4c0.2,1.3,2.2,1.5,2.7,0.4
				c1.1-2.1,2.5-3.9,4.1-5.6C389.1,58.2,387,56.1,385.6,57.5L385.6,57.5z"/>
		</g>
	</g>
	<g>
		<g>
			<path class="st12" d="M384.2,65.5c4.1-1.7,8.3-2.9,12.7-3.2c2.1-0.2,4.3-0.1,6.4,0.2c1,0.2,2.1,0.4,3.1,0.6
				c0.8,0.2,2.6,0.5,3.1,1.2c1,1.7,3.6,0.2,2.6-1.5c-0.8-1.5-1.6-3-2.3-4.5c-0.6-1.4-1.1-3-1.8-4.4c-1.3-2.6-4.1-4.8-6.9-5.5
				c-3.4-0.8-5.9,1.6-8.5,3.3c-2.7,1.9-5.8,3.6-8.2,6c0.8,0.6,1.6,1.2,2.4,1.8c0.9-1.4,1.9-2.7,3.3-3.7c-0.7-0.6-1.5-1.1-2.2-1.7
				c-1,2.8-3.2,5-4.3,7.7c-0.7,1.7,1.8,2.4,2.7,1.2c1.7-2.5,3.5-4.9,5.2-7.4c-0.9-0.4-1.8-0.8-2.7-1.2c-0.4,1.7-0.9,3.3-1.7,4.9
				c-0.8,1.7,1.6,3.2,2.6,1.5c0.8-1.4,1.4-2.9,1.9-4.4c0.5-1.6-1.9-2.7-2.7-1.2c-0.8,1.5-1.5,3.1-2.1,4.8c-0.7,1.8,2.2,2.6,2.9,0.8
				c0.6-1.6,1.3-3.2,1.9-4.7c-1-0.3-1.9-0.5-2.9-0.8c-0.5,1.6-0.8,3.3-1.1,5c-0.3,1.9,2.4,2.7,2.9,0.8c0.4-1.8,1-3.5,1.8-5.2
				c-0.9-0.4-1.8-0.8-2.7-1.2c-0.4,2.1-0.7,4.2-1,6.4c-0.2,1.3,1.4,2.7,2.5,1.5c1.8-1.9,1.4-4.4,2.6-6.6c-0.9-0.4-1.8-0.8-2.7-1.2
				c-0.3,1.1-0.6,2.2-0.9,3.2c-0.5,1.9,2.2,2.5,2.9,0.8c0.5-1.3,0.9-2.6,1.1-3.9c-1-0.1-2-0.3-2.9-0.4c-0.1,1.8-0.2,3.6-0.2,5.4
				c-0.1,1.5-0.4,2.9,0.7,4.1c0.3,0.4,1,0.6,1.5,0.4c1.4-0.6,2-1.7,2.3-3.2c0.4-1.9,0.8-3.8,1-5.7c0.3-1.9-2.4-2.7-2.9-0.8
				c-0.1,0.5-0.2,0.9-0.3,1.4c-0.5,1.9,2.4,2.7,2.9,0.8c0.1-0.5,0.2-0.9,0.3-1.4c-1-0.3-1.9-0.5-2.9-0.8c-0.2,1.3-0.4,2.6-0.7,3.9
				c-0.1,0.4-0.3,2.8-0.6,2.9c0.5,0.1,1,0.3,1.5,0.4c0.2,0.3,0,0.3,0.1,0c0.1-0.3,0-0.7,0-1c0-0.7,0.1-1.5,0.1-2.2
				c0.1-1.4,0.1-2.8,0.2-4.2c0.1-1.7-2.6-2.1-3-0.4c-0.2,1.4-0.6,2.6-1.1,3.9c1,0.3,1.9,0.5,2.9,0.8c0.3-1.1,0.6-2.2,0.9-3.2
				c0.4-1.6-1.9-2.7-2.7-1.2c-0.5,1-0.8,2-1.1,3.1c-0.2,1-0.4,2.1-1.1,2.8c0.8,0.5,1.7,1,2.5,1.5c0.3-2.1,0.6-4.2,1-6.4
				c0.3-1.5-2-2.8-2.7-1.2c-0.9,1.9-1.6,3.9-2.1,5.9c1,0.3,1.9,0.5,2.9,0.8c0.3-1.7,0.6-3.3,1.1-5c0.6-1.9-2.2-2.5-2.9-0.8
				c-0.6,1.6-1.3,3.2-1.9,4.7c1,0.3,1.9,0.5,2.9,0.8c0.5-1.4,1.1-2.8,1.8-4.1c-0.9-0.4-1.8-0.8-2.7-1.2c-0.4,1.3-0.9,2.5-1.6,3.7
				c0.9,0.5,1.7,1,2.6,1.5c0.9-1.8,1.5-3.7,2-5.6c0.4-1.7-1.8-2.5-2.7-1.2c-1.7,2.5-3.5,4.9-5.2,7.4c0.9,0.4,1.8,0.8,2.7,1.2
				c1.1-2.7,3.3-4.8,4.3-7.7c0.4-1.2-1.2-2.5-2.2-1.7c-1.8,1.3-3.2,2.9-4.4,4.8c-0.9,1.5,1.1,3,2.4,1.8c2-2,4.5-3.4,6.8-4.9
				c1.3-0.9,2.5-1.7,3.8-2.6c1.2-0.8,2.2-1.4,3.6-0.9c2.5,0.8,4.2,2.7,5.1,5.1c1,2.7,2.1,5.3,3.6,7.8c0.9-0.5,1.7-1,2.6-1.5
				c-1.1-1.9-4.1-2.5-6.2-2.9c-2.5-0.5-5.1-0.8-7.6-0.7c-5.1,0.2-10.1,1.5-14.9,3.4C381.7,63.3,382.4,66.2,384.2,65.5L384.2,65.5z"
				/>
		</g>
	</g>
	<g>
		<g>
			<path class="st12" d="M396.9,52c-0.3,1.9-0.6,3.7-1.1,5.6c1,0.1,2,0.3,3,0.4c0-1.7,0-3.5,0-5.2c0-0.7-0.5-1.3-1.1-1.5
				c-0.6-0.2-1.4,0.1-1.7,0.7c-0.9,1.9-1.5,3.9-1.8,6.1c1,0.1,2,0.3,2.9,0.4c0.1-2,0.1-3.9,0.2-5.9c0.1-1.7-2.6-2-3-0.4
				c-0.3,1.3-0.5,2.7-0.5,4.1c0,0.7,0,1.4,0.2,2.1c0.4,0.8,1.2,1.4,2.2,1.2c1.5-0.4,1.6-2.3,1.9-3.6c0.3-1.4,0.6-2.7,0.9-4
				c-1,0-1.9,0-2.9,0c0.2,1.1,0,2.4-0.1,3.5c-0.1,1.3-0.1,2.6,0.3,3.9c0.3,0.9,1.4,1.4,2.2,0.9c1.3-0.8,1.4-2.2,1.5-3.6
				c0.1-1.4,0.1-2.7,0-4.1c0-0.8-0.7-1.5-1.5-1.5c-0.9,0-1.4,0.7-1.5,1.5c-0.1,2.6-0.2,5.3,1.1,7.6c0.3,0.6,1.1,0.9,1.7,0.7
				c0.7-0.2,1-0.8,1.1-1.5c0.3-2.4,0.4-4.8,0.3-7.2c0-0.8-0.7-1.5-1.5-1.5c-0.8,0-1.5,0.7-1.5,1.5c0,2.5,0.3,5,1.4,7.3
				c0.5,1.1,2,0.8,2.6,0c0.8-1.1,0.6-2.7,0.5-4c-0.1-1.5-0.3-2.9-0.6-4.3c-0.1-0.8-1.1-1.2-1.9-1c-0.9,0.2-1.2,1-1.1,1.9
				c0.3,2.5,1.1,4.9,2.2,7.1c0.6,1.2,2.4,0.8,2.7-0.4c0.7-2.3,0-4.6-0.7-6.8c-0.2-0.6-0.8-1.1-1.5-1.1c-0.6,0-1.3,0.5-1.4,1.1
				c-0.6,3-0.2,6,1.1,8.7c0.4,0.9,1.7,0.9,2.4,0.3c1-0.9,0.9-2.4,0.9-3.6c0-1.3,0-2.7,0.1-4c-1,0.1-2,0.3-2.9,0.4
				c0.9,2.4,1.9,4.7,2.8,7.1c0.3,0.8,1,1.3,1.9,1c0.8-0.2,1.2-1,1-1.8c-0.2-0.9-0.4-1.9-0.7-2.8c-0.2-0.8-1.1-1.3-1.9-1
				c-0.8,0.2-1.2,1-1.1,1.9c0.2,0.9,0.5,1.9,0.7,2.8c1-0.3,1.9-0.5,2.9-0.8c-0.9-2.4-1.9-4.7-2.8-7c-0.3-0.7-0.9-1.2-1.6-1.1
				c-0.7,0.1-1.3,0.7-1.3,1.5c0,1.1,0,2.2-0.1,3.4c0,0.6,0,1.1,0,1.7c0,0.1,0,0.6,0,0.4c-0.1,0.2-0.1,0.2,0,0.1c0.1-0.1,0.1-0.1,0,0
				c0.8,0.1,1.6,0.2,2.4,0.3c-0.9-2-1.2-4.3-0.8-6.4c-1,0-1.9,0-2.9,0c0.6,1.7,1.2,3.5,0.7,5.2c0.9-0.1,1.8-0.2,2.7-0.4
				c-1-2-1.6-4.2-1.9-6.4c-1,0.3-1.9,0.5-2.9,0.8c0.2,1.1,0.4,2.2,0.5,3.3c0,0.5,0.1,1.1,0.1,1.7c0,0.6,0.1,0.7-0.2,1
				c0.9,0,1.7,0,2.6,0c-0.9-1.8-0.9-3.8-1-5.8c-1,0-2,0-3,0c0.1,2.4,0,4.8-0.3,7.2c0.9-0.2,1.9-0.5,2.8-0.8c-1-1.8-0.8-4-0.7-6.1
				c-1,0-2,0-3,0c0,1.1,0,2.2,0,3.2c0,0.5-0.1,1-0.1,1.6c0,0.2,0,0.2,0,0c0,0.1,0,0.2-0.1,0.3c-0.1,0.3,0,0,0.1-0.1
				c0.7,0.3,1.5,0.6,2.2,0.9c-0.3-1.1-0.2-2.3-0.1-3.5c0.1-1.3,0.2-2.6,0-3.9c-0.1-0.6-0.9-1.1-1.5-1.1c-0.6,0-1.3,0.5-1.4,1.1
				c-0.2,1.1-0.5,2.1-0.7,3.2c-0.1,0.5-0.2,1-0.4,1.5c-0.1,0.3-0.1,0.5-0.2,0.8c0,0.1-0.1,0.3-0.1,0.4c-0.1,0.2-0.1,0.3,0,0.1
				c0.2-0.2,0.4-0.4,0.5-0.5c0,0,0.1,0,0.1-0.1c0.3,0,0.5,0,0.8,0c0.4,0.1,0.6,0.4,0.6,0.7c0-0.1,0-0.1,0-0.2c0-0.2,0-0.4,0-0.6
				c0-0.4,0-0.8,0-1.2c0.1-0.8,0.2-1.5,0.4-2.3c-1-0.1-2-0.3-2.9-0.4c-0.1,2-0.1,3.9-0.2,5.9c0,0.7,0.6,1.4,1.3,1.5
				c0.7,0.1,1.5-0.3,1.6-1.1c0.3-1.8,0.8-3.7,1.5-5.3c-0.9-0.2-1.9-0.5-2.8-0.8c0,1.7,0,3.5,0,5.2c0,1.7,2.5,2,2.9,0.4
				c0.5-1.8,0.9-3.7,1.1-5.5c0.1-0.8-0.2-1.6-1.1-1.9C398,50.8,397,51.2,396.9,52L396.9,52z"/>
		</g>
	</g>
	<g>
		<g>
			<path class="st12" d="M391.9,90.5c-1.4,0.1-3,0.5-3.4,2.1c-0.2,0.8,0.2,1.6,1,1.9c0.3,0.1,0.6,0.2,1,0.3c0.6,0.1,1.3,0.2,2,0.1
				c0.7-0.1,1.4-0.2,2.1-0.4c0.7-0.2,1.4-0.5,2-0.9c0.5-0.4,0.7-1.1,0.6-1.8c-0.1-0.5-0.5-0.9-0.9-1.2c-0.5-0.3-1.2-0.5-1.8-0.6
				c-1.4-0.3-2.9-0.4-4.4-0.4c-0.8,0-1.5,0.7-1.5,1.5c0,0.8,0.7,1.5,1.5,1.5c1,0,1.9,0,2.9,0.1c0.3,0-0.3-0.1,0,0
				c0.1,0,0.2,0,0.4,0.1c0.2,0,0.4,0.1,0.6,0.1c0.2,0.1,0.5,0.1,0.7,0.2c0.1,0,0.5,0.1,0.2,0.1c-0.1-0.1-0.1-0.1,0,0
				c0.3,0.2,0.1,0-0.4-0.6c-0.1-0.6,0-1,0.5-1.3c0,0,0,0-0.1,0c-0.1,0-0.2,0.2-0.3,0.2c0.2-0.1,0.2-0.1,0.1-0.1c0,0-0.1,0-0.1,0.1
				c-0.1,0-0.2,0.1-0.3,0.1c-0.4,0.2-0.9,0.3-1.3,0.4c-0.1,0-0.1,0-0.2,0c-0.2,0-0.1,0,0.1,0c0,0-0.3,0-0.3,0c-0.2,0-0.5,0-0.7,0
				c-0.1,0-0.2,0-0.3,0c0.2,0,0.3,0,0.1,0c-0.1,0-0.1,0-0.2,0c-0.1,0-0.2,0-0.3-0.1c-0.1,0-0.1,0-0.2-0.1c-0.3-0.1-0.1,0,0.4,0.2
				c0.1,0.2,0.3,0.4,0.4,0.7c0,0,0-0.1,0-0.1c0,0.3,0,0.5,0,0.8c0-0.3-0.2,0.3,0,0.1c-0.2,0.2-0.2,0.2-0.1,0.1c0,0,0,0,0.1-0.1
				c-0.2,0.2-0.2,0.2-0.1,0.1c0,0,0,0,0.1,0c0.2-0.2-0.4,0.1,0,0c0.1-0.1,0.3-0.1,0.5-0.1s-0.4,0.1-0.1,0c0.1,0,0.2,0,0.3,0
				c0.8-0.1,1.5-0.7,1.5-1.5C393.3,91.2,392.7,90.4,391.9,90.5L391.9,90.5z"/>
		</g>
	</g>
	<g>
		<g>
			<path class="st12" d="M386.5,86.9c-0.1,2.5,0.7,5.3,2.9,6.7c1,0.7,2.4,1,3.5,0.3c1.3-0.9,1-2.5,0.4-3.7c-0.6-1.1-1.6-2.4-2.9-2.6
				c-1.6-0.2-2.4,1.2-2.7,2.6c-0.4,1.4-0.2,3,0.9,4c1,0.9,2.4,1.2,3.6,0.5c2.2-1.2,3.5-4.9,1.4-6.7c-2.2-1.8-5.8,1.1-5.3,3.6
				c0.6,3,4.9,2,6-0.1c1.5-2.8-1.6-5.3-4-5.9c-1.4-0.4-3.4,0-3.7,1.6c-0.3,1.5,1.3,2.7,2.7,2.1c3.2-1.6-0.7-6.2-2.6-7.1
				c-0.4,0.9-0.8,1.8-1.2,2.7c2.4,0.6,3.2-2,2.1-3.7c-0.4-0.6-1-0.9-1.7-0.7c-1.3,0.3-2.1,1.8-1.5,3.1c0.7,1.4,2.5,1.4,3.4,0.3
				c0.4-0.5,0.5-1.1,0.4-1.7c-0.1-0.2-0.8-1.3-0.9-1.2c-0.2,0.7,2.9,1.9,3.5,2.1c1.5,0.5,3.1,0.8,4.7,1.1c2,0.3,4,0.5,6,0.1
				c3.1-0.7,6.1-1.4,9.2-0.2c3.1,1.2,4.6,4,5.7,6.9c0.5,1.4,1,2.8,1.6,4.2c0.3,0.8,0.7,1.6,0.8,2.5c0.1,1.1-0.3,2.1-0.9,3
				c-0.3,0.5-0.6,1.3-1.1,1.7c-0.6,0.5-1.5,0.5-2.3,0.6c-2.1,0.2-4.2,0.5-6.4,0.6c-4,0.2-7.9-0.3-11.8-0.1
				c-4.4,0.2-8.7,0.6-13.1,0.1c-2.1-0.2-4.1-0.5-6.2-0.9c-0.9-0.2-1.2-0.4-1.6-1.3c-0.4-1-0.8-2.1-1.2-3.1c-0.7-1.8-3.6-1-2.9,0.8
				c0.6,1.6,1.1,3.6,2.2,5c1.1,1.4,2.9,1.5,4.5,1.8c4.1,0.6,8.3,1.2,12.5,1c4.3-0.2,8.5-0.6,12.8-0.3c4.1,0.2,8.3-0.1,12.4-0.6
				c1.8-0.2,3.2-0.9,4.2-2.4c1-1.5,1.9-3.3,2-5.1c0.1-1.9-0.8-3.6-1.4-5.3c-0.6-1.6-1.1-3.3-1.8-4.9c-1.4-3.2-3.5-5.6-6.8-6.9
				c-3.2-1.2-6.6-1-9.9-0.2c-2.3,0.6-4.4,0.4-6.8,0c-2-0.4-3.9-0.9-5.6-2c-1.4-1-3.1-1.4-4.4,0c-0.5,0.5-0.8,1.3-0.8,2.1
				c0,1.1,0.9,2.7,2.3,2.3c-0.6-0.2-1.1-0.5-1.7-0.7c0.3,0.7,0.8,0.5,1.3-0.7c-1.6-0.4-2.7,2-1.2,2.7c0.6,0.3,1.1,0.7,1.5,1.3
				c0.2,0.2,0.3,0.5,0.5,0.8c0.1,0.1,0.1,0.2,0.2,0.3c0.3,0.8,1,0.7,2-0.3c0.1,0.4,0.1,0.8,0.1,1.2c-0.4,0.3-0.4,0.5,0,0.5
				c0.2,0.1,0.4,0.1,0.6,0.2c0.4,0.2,0.9,0.4,1.2,0.8c0.2,0.2,0.3,0.3,0.3,0.6c-0.1,0.2-0.2,0.3-0.3,0.3c-0.1,0.1-0.3,0.1-0.5,0.1
				c0.3,0.6,0.5,0.7,0.7,0.3c0.1-0.2,0.3-0.3,0.5-0.5c-0.4-0.2-0.5-0.2-0.3,0.1c-0.3,0.3-0.4,0.9-0.7,1.3c-0.3,0.4-0.2,0.5-0.4,0.1
				c-0.1-0.2,0-1.4,0.2-1.5c-0.4,0.1-0.8,0.1-1.2,0.2c0.3,0.1,0.6,0.3,0.8,0.6c0.1,0.1,0.4,0.9,0.5,0.9c0.2-0.2,0.4-0.5,0.7-0.7
				c-0.1,0-0.2-0.1-0.4-0.2c-0.1-0.2-0.5-0.4-0.6-0.6c-0.8-1-0.9-2.4-0.9-3.6C389.6,85,386.6,85,386.5,86.9L386.5,86.9z"/>
		</g>
	</g>
	<g>
		<g>
			<path class="st12" d="M373.6,98.5c-0.2-1.2-0.3-2.2,0.6-3.1c0.9-0.8,1.9-1.4,2.7-2.3c1.6-1.8,2.6-4,3.5-6.1
				c0.5-1.2-0.3-2.5-1.7-2.2c-3,0.7-4.3,4.5-5.2,7c1,0.1,2,0.3,3,0.4c-0.3-2.5,1.9-4.1,3.4-5.7c1.5-1.6,3-3.8,5.4-3.6
				c-0.5-0.6-1-1.3-1.5-1.9c-0.5,2.1-1.1,4.2-1.6,6.3c1,0.1,2,0.3,3,0.4c-0.1-1.5-0.3-2.9-0.6-4.3c-0.4-1.6-2.4-1.2-2.9,0
				c-0.9,2.1-1.5,4.3-1.9,6.6c1,0.1,2,0.3,2.9,0.4c0.1-2.3,0.1-4.6,0-6.9c-0.1-1.7-2.4-2-3-0.4c-0.9,2.7-1.4,5.4-1.7,8.1
				c-0.1,1.7,2.5,2,3,0.4c0.3-1.3,0.5-2.6,0.6-3.9c0.1-1.5-2.1-2-2.8-0.8c-0.6,1.1-1.2,2.2-1.6,3.4c-0.2,0.5-0.3,1.1-0.5,1.6
				c-0.1,0.3-0.1,0.7-0.2,1c0,0.1,0,0.3-0.1,0.4c-0.1,0.3,0,0.3,0.3-0.1c0.4-0.1,0.8-0.1,1.2-0.2c-2.9-0.8-4.4,3.5-4.9,5.8
				c1,0,1.9,0,2.9,0c-0.4-1.1-0.9-2.2-1.3-3.4c-0.5-1.3-1.9-1.4-2.7-0.4c-1.3,1.7,0.9,4.3,1.7,5.8c0.5,0.8,0.9,1.9,1.5,2.6
				c0.7,0.8,1.7,0.7,2.7,0.7c5,0.2,10,0.2,15,0.2c5,0,10-0.2,15-0.3c3.5-0.1,10.4,0.6,10.7-4.4c0-0.7-0.5-1.3-1.1-1.4
				c-5-1.4-10.2-0.6-15.3-0.3c-5.3,0.2-10.7,0.1-16-0.1c-1.2-0.1-2.5-0.1-3.7-0.2c-0.7,0-1.3-0.1-2-0.1c-0.7,0-1.8,0.1-2.4-0.2
				c-0.8-0.4-1.1-1.8-1.1-2.6c-0.1-1.2,0.4-1.6,1.6-1.7c2.4,0,3.9,1.9,5.6,3.3s3.7,2.5,5.8,3.3c2,0.8,4.2,1.2,6.3,1.2
				c2,0.1,4.4-0.1,6.1-1.2c3.9-2.6,1.2-7.8-2.2-9.3c-4.2-1.9-8.6-0.2-12.3,2c-0.9,0.5-1.7,1.2-2.7,1.6c-0.3,0.1-1,0.4-1.4,0.2
				c-0.4-0.2-0.4-0.9-0.4-1.3c0-0.9,0.4-1.8,0.9-2.6c0.3-0.4,0.6-0.7,1-1c0.5-0.3,0.7-0.5,1.1-0.2c0.8,0.6,1.4,1.9,1.9,2.8
				c0.6,1,1.1,1.9,1.9,2.8c1.5,1.9,3.8,3.2,5.8,1.1c1.4-1.5,2.9-4.3,2.3-6.3c-0.7-2.5-3.4-2.5-5.4-1.8c-1.8,0.7-1,3.6,0.8,2.9
				c0.4-0.1,0.8-0.3,1.2-0.3c0.5,0,0.4-0.1,0.5,0.3c0,0.9-0.8,2.2-1.3,2.8c-0.4,0.6-0.4,0.6-0.9,0.2c-0.4-0.4-0.7-0.7-1-1.1
				c-0.6-0.9-1.1-1.8-1.7-2.7c-0.9-1.6-2.2-3.8-4.2-3.8c-1.9-0.1-3.6,1.6-4.6,3c-1.1,1.6-1.6,3.9-1,5.8c0.6,2.1,2.8,2.8,4.8,2.3
				c2.1-0.5,3.9-2.2,5.8-3.2c1.9-1,4-1.7,6.1-1.3c1.7,0.3,3.8,1.3,3.9,3.2c0.2,2.2-3.4,2.1-4.8,2.1c-4.6-0.1-8.5-2.1-11.9-5.1
				c-1.6-1.5-3.4-2.6-5.7-2.7c-2-0.1-4.1,0.6-4.8,2.6c-0.7,1.9-0.1,4.4,1,6c1.4,2,4,1.7,6.2,1.8c6,0.3,12,0.6,18,0.5
				c5.6-0.1,11.6-1.4,17.2,0.1c-0.4-0.5-0.7-1-1.1-1.4c-0.1,1.4-3.3,1.2-4.2,1.2c-2,0.1-4,0.2-6,0.2c-4,0.1-8,0.2-12,0.2
				c-4,0-8,0-12-0.1c-1,0-2-0.1-3-0.1c-0.4,0-0.9-0.2-1.2,0c-0.5-0.1-0.4,0.1,0.3,0.3c-0.1-0.2-0.2-0.4-0.4-0.6
				c-0.5-0.8-1-1.7-1.4-2.5c-0.2-0.4-0.5-0.8-0.7-1.3c-0.1-0.2-0.2-0.4-0.4-0.6c-0.1-0.3-0.1-0.3-0.1,0.2c-0.9-0.1-1.8-0.2-2.7-0.4
				c0.4,1.1,0.9,2.2,1.3,3.4c0.5,1.2,2.6,1.6,2.9,0c0.1-0.6,0.3-1.2,0.5-1.8c0.2-0.6,0.7-1.1,0.9-1.7c0.1-0.1,0.2-0.2,0.2-0.3
				c-0.2,0-0.5,0.1-0.7,0.1c0,0.1,0.7,0.1,0.8,0.1c0.5-0.1,1-0.4,1.3-0.8c0.6-0.8,0.5-2.1,0.8-3.1c0.4-1.3,0.9-2.5,1.6-3.7
				c-0.9-0.2-1.9-0.5-2.8-0.8c-0.1,1.1-0.2,2.1-0.5,3.1c1,0.1,2,0.3,2.9,0.4c0.2-2.5,0.8-5,1.6-7.4c-1-0.1-2-0.3-3-0.4
				c0.1,2.3,0.1,4.6,0,6.9c-0.1,1.7,2.7,2.1,2.9,0.4c0.4-2.3,1-4.5,1.9-6.6c-1,0-1.9,0-2.9,0c0.3,1.2,0.4,2.3,0.5,3.6
				c0.1,1.6,2.5,2.1,2.9,0.4c0.5-2.1,1.1-4.2,1.6-6.3c0.3-1-0.5-1.8-1.4-1.9c-3.3-0.2-5.5,2.2-7.5,4.5c-2,2.2-4.7,4.5-4.3,7.8
				c0.2,1.7,2.3,2,2.9,0.4c0.5-1.4,1.5-4.5,3.1-4.9c-0.6-0.7-1.1-1.5-1.7-2.2c-1.1,2.6-2.2,5.1-4.5,6.9c-1,0.8-2,1.6-2.5,2.9
				c-0.5,1.3-0.3,2.8-0.1,4.2C371.1,101.2,373.9,100.4,373.6,98.5L373.6,98.5z"/>
		</g>
	</g>
	<g>
		<g>
			<path class="st12" d="M377.4,90.1c-1,2.6-2.1,5.2-3,7.7c-0.2,0.6,0.2,1.4,0.7,1.7c3.3,2,4.1-4.9,4.4-6.7c0.3-1.9-2.5-2.7-2.9-0.8
				c-0.8,3.4-1.1,6.8-1,10.2c1-0.1,2-0.3,3-0.4c-0.4-2.7-0.1-5.3,0.6-7.9c-1-0.1-2-0.3-2.9-0.4c0.2,2.7,0.5,5.3,0.8,8
				c0.2,1.7,2.3,2,2.9,0.4c1.2-3.2,0.5-6.6,1.4-9.8c-1-0.3-1.9-0.5-2.9-0.8c-0.5,3.3-0.8,6.6-0.7,10c0,1.3,1.6,1.9,2.6,1.1
				c1.3-1.2,1.3-3.3,1.6-4.9c0.3-2,0.6-4.1,0.9-6.1c-1,0-2,0-3,0c-0.2,3.4-0.4,6.7-0.2,10.1c0.1,1.6,2.6,2.2,2.9,0.4
				c0.6-2.9,1-5.8,1.3-8.8c0.1-1.7-2.5-2-3-0.4c-0.7,2.7-0.7,5.4-0.1,8.2c0.3,1.4,2.6,1.4,2.9,0c0.7-3,1-6.1,1.1-9.2
				c0.1-1.9-2.9-1.9-3,0c-0.1,1.9-0.2,3.8-0.4,5.7c-0.1,1.7-0.3,3.2,0.4,4.7c0.6,1.2,2.4,0.8,2.7-0.4c0.9-3.1,1.4-6.3,1.5-9.5
				c0.1-2-2.8-1.9-3,0c-0.2,2.3-0.3,4.6-0.3,6.9c0,1.7,2.5,2.1,2.9,0.4c1-3.5,1-7.2,0.8-10.8c-0.1-1.9-3-1.9-3,0
				c0,1.1,0.3,2.1,0.7,3.1c0.5,1.2,2.5,0.8,2.7-0.4c0.3-1.2,0.4-2.4,0.2-3.6c-0.2-1.9-2.9-2-3,0c-0.1,1.7-0.6,6.3,2.3,5.8
				c2.5-0.4,2-4.1,1.3-5.7c-0.5-1.2-2.5-0.8-2.7,0.4c-0.3,1.5-0.3,2.9,0.1,4.3c0.4,1.4,2.5,1.4,2.9,0c0.5-2-0.5-3.5-0.8-5.4
				c-0.2-1,0.4-1.6,0.9-2.4c0.7-1,1.3-2,2-3.1c-0.9-0.2-1.9-0.5-2.8-0.8c0,2.5,0.4,4.9,1.1,7.2c0.4,1.3,2.6,1.6,2.9,0
				c0.3-1.8,0.5-3.6,0.7-5.4c-1,0-2,0-3,0c0,1,0.2,1.8,0.7,2.6c0.5,1,2.1,1,2.6,0c0.4-0.8,0.6-1.6,0.7-2.6c0.1-1.4-2.2-2.1-2.8-0.8
				c-1,2.1-0.4,4.3,1.5,5.7c0.7,0.5,2,0,2.2-0.9c0.2-1,0.3-2,0.5-3c-1-0.1-2-0.3-3-0.4c-0.1,1.6-0.2,3.3-0.1,4.9
				c0.1,1.4,1.5,1.9,2.6,1.1c1.8-1.4,2-3.7,2.1-5.8c-1,0-2,0-3,0c0,1.8-0.8,5.9,2,6.1c2.6,0.2,3.2-4.1,3.3-5.9c-1,0-2,0-3,0
				c-0.1,1.8-0.2,3.6-0.3,5.4c-0.1,1.2,1.3,1.8,2.3,1.3c2.3-1.2,2.9-4.8,3.4-7.1c-1-0.3-1.9-0.5-2.9-0.8c-0.3,1.7-0.4,3.5-0.3,5.2
				c0.1,1.5,2,2,2.8,0.8c1-1.6,1.6-3.4,2-5.2c-1-0.1-2-0.3-3-0.4c0,1.4,0,2.7,0,4.1c0,1.1,0.1,2.2,1.2,2.7c2.5,1,3.3-3.3,3.4-4.8
				c0.2-1.7-2.7-2.1-2.9-0.4c-0.3,1.7-0.6,5.5,2.3,4.7c2.1-0.6,2.9-3.7,1.8-5.4c-0.6,0.7-1.1,1.5-1.7,2.2c0.9,0.1,1.6,0.6,2.5,0.4
				c0.8-0.2,1.5-0.8,1.6-1.6c0.4-1.8-1.8-3.1-3.2-1.8c-1.3,1.2-0.6,3.3,0.8,4.1c1.4,0.8,3.2,0.2,4-1.2c0.8-1.3,0.3-3.5-1.4-3.8
				c-1.9-0.4-3.1,1.7-2.8,3.3c0.8,3.9,6.2,3.1,6.3-0.6c0.1-1.6-2-1.9-2.8-0.8c-0.6,0.8-0.5,1.9,0.1,2.7c0.6,0.9,1.7,1.1,2.7,1.2
				c1.1,0.1,1.6-1,1.5-1.9c-0.2-1.2-0.9-2-1.8-2.7c-0.6-0.4-1.8-0.2-2,0.5c-1.5,3.5,2.6,6.7,5.9,5.8c1.5-0.4,2.6-2,2.1-3.5
				c-0.5-1.6-2.4-2.1-3.8-1.2c-3.4,2.1,1.4,7.2,3.4,3.9c0.8-1.4-0.1-3.2-1.5-3.6c-1.7-0.5-3.2,1-3.2,2.6c1-0.1,2-0.3,2.9-0.4
				c-0.1-0.7-0.4-1.2-0.9-1.7c-0.7-0.9-2.3-0.4-2.5,0.7c-0.3,1.3-0.1,2.5,0.6,3.7c0.4,0.5,0.8,1,1.3,1.3c0.5,0.3,1.2,0.4,1.6,0.8
				c0.7,0.8,0.1,2.7,0,3.6c-0.1,1.4,0.2,2.6,1.1,3.8c1,1.2,2.8-0.1,2.5-1.5c-0.3-1.3-0.6-2.7-1-4c-1,0.3-1.9,0.5-2.9,0.8
				c0.6,2.4,1.8,4.6,3.5,6.5c1,1.1,3-0.1,2.5-1.5c-1-2.9-2-5.8-3.1-8.7c-0.4-1.1-2.1-1.6-2.7-0.4c-1.2,2.4-1.8,4.9-1.7,7.6
				c0,0.8,0.7,1.5,1.5,1.5c1.9,0.1,2.2-1.9,2.3-3.3c0.2-2,0-3.9-0.3-5.8c-0.3-1.4-2.6-1.4-2.9,0c-0.5,2.4-0.9,4.8-1.3,7.3
				c-0.3,1.9,2.5,2.7,2.9,0.8c0.5-2.6,0.3-5.3-0.7-7.7c-0.6-1.3-2.4-1.5-2.9,0c-0.6,1.6-1,3.3-1.2,5c-0.2,1.3-0.1,2.6,1.4,3.1
				c0.7,0.2,1.7-0.3,1.9-1.1c0.5-2.5,0.4-5.1-0.4-7.5c-0.5-1.5-2.4-1.4-2.9,0c-0.6,1.8-0.9,3.7-0.7,5.6c0.2,1.6,2.4,2.1,2.9,0.4
				c0.7-2.4,0.7-4.9-0.2-7.3c-0.3-0.9-1.3-1.4-2.2-0.9c-1.3,0.7-1.3,2.2-1.5,3.5c-0.3,1.7-0.5,3.4-0.8,5.1c-0.3,1.9,2.1,2.6,2.9,0.8
				c1.1-2.8,1.3-5.8,0.6-8.7c-0.4-1.4-2.5-1.4-2.9,0c-0.7,2.8-1.2,5.5-1.6,8.3c1,0,2,0,3,0c0.2-2.6,0.1-5.2-0.3-7.8
				c-0.2-1.5-2.5-1.3-2.9,0c-0.7,2.3-1.2,4.7-1.5,7.1c-0.1,1,1.1,1.7,1.9,1.4c1.7-0.5,2.3-2.1,2.6-3.7c0.4-2,0.3-4,0-6.1
				c-0.3-1.4-2.7-1.5-2.9,0c-0.3,2-0.6,4-0.8,6c-0.1,0.6,0.5,1.4,1.1,1.4c3.4,0.5,3.3-5,3-7.2c-0.1-0.9-0.6-1.4-1.5-1.5
				c-0.7-0.1-1.7,0.4-2,1.1c0,0-0.2,0.2-0.2,0.3c-0.1-0.2,1.4,0.5,1-0.2c-0.2-0.4-0.9-0.7-1.3-0.9c-1.8-0.8-3.8-0.4-5.2,0.9
				c-1.3,1.2,0.4,3.1,1.8,2.4c0.9-0.5,1.8-0.9,2.7-1.4c1.5-0.8,0.5-3.1-1.2-2.7c-3.2,0.8-6.3,1.9-9.2,3.4c-1.5,0.8-0.5,3.3,1.2,2.7
				c2.5-1,5.1-1.7,7.7-2.2c-0.6-0.7-1.1-1.5-1.7-2.2c-1.2,2.2-1.9,4.6-1.7,7.1c0.1,1.7,2.5,2.1,3,0.4c0.6-2,0.9-4,1-6.1
				c0.1-1.7-2.7-2.1-2.9-0.4c-0.4,2.5-0.7,5,0,7.4c0.4,1.3,2.6,1.5,2.9,0c0.4-2.2,0.8-4.4,1.2-6.7c0.3-1.9-2.4-2.7-2.9-0.8
				c-0.5,2.2-0.8,4.5-0.8,6.8c0,0.7,0.5,1.3,1.1,1.4c2.8,0.8,2.9-3.3,3.1-5.1c-1-0.1-2-0.3-2.9-0.4c-0.1,1.9,0.2,3.9,0.8,5.7
				c0.5,1.4,2.4,1.4,2.9,0c0.7-2,1-4,1-6.1c0-1.7-2.5-2-3-0.4c-0.8,2.6-1,5.2-0.9,7.9c0.1,1.9,3,2,3,0c0-2.6-1.6-5.3-4.4-5.6
				c-1.6-0.2-3.1,0.5-4.6,0.8c-1.7,0.4-3.4,0.3-5.1-0.2c-0.1,1-0.3,2-0.4,2.9c2.4,0.3,3.6-2.8,1.9-4.3c-0.9-0.7-2.1-0.8-3-0.2
				c-1.1,0.6-1.4,1.7-2.2,2.5c0.8,0.2,1.7,0.4,2.5,0.7c-0.2-1.3-1.3-2.8-2.9-2.3c-1.6,0.5-2,2.5-1.9,3.9c0.1,1.1,1.2,2,2.3,1.3
				c1.3-0.9,2.2-2.1,2.5-3.6c-1,0-1.9,0-2.9,0c0.6,3.2,4.9,3.7,6.4,1c0.7-1.2-0.4-2.5-1.7-2.2c-1.9,0.4-3.1,2.1-3.1,4
				c0,1.1,0.9,1.6,1.9,1.4c2-0.3,3.5-2.2,3.4-4.2c-0.1-1.4-1.6-1.9-2.6-1.1c-1.1,0.9-1.7,2.4-1.5,3.8c0.1,0.7,0.6,1.6,1.5,1.5
				c2.4-0.3,4.4-2.2,4.2-4.8c-0.1-1.2-1.6-2.2-2.6-1.1c-1.6,1.8-1.3,4.9,1.3,5.7c2.6,0.7,4.3-2,3.3-4.2c-0.5-1.1-2.5-0.9-2.7,0.4
				c-0.3,1.6,0.7,3.8,2.8,3.3c1.9-0.5,1.6-2.9,0-3.5c-0.6-0.2-1.4,0.1-1.7,0.7c-0.5,1-0.4,2.2,0.6,2.9c1,0.8,2.2,0.4,3.2-0.1
				c-0.7-0.6-1.5-1.1-2.2-1.7c0,0.1,0,0.1,0,0.2c0.2-0.3,0.5-0.6,0.7-0.9c1.3,0.6,1.7,0.6,1.2-0.1c-0.2-0.2-0.3-0.5-0.5-0.7
				c-0.2-0.3-0.5-0.6-0.8-0.9c-0.7-0.7-1.4-1.3-2.2-1.9c0,0.9,0,1.7,0,2.6c0.8-0.5,1.6-0.9,2.5-1.2c-0.3-1-0.5-1.9-0.8-2.9
				c-3,1.1-5.3,3.3-7.7,5.4c-0.5,0.4-1.1,1.1-1.8,1.4c-0.7,0.3-1.8,0-2.6,0.1c-1.7,0.2-3.3,1.1-4.8,1.9c-1.1,0.6-0.9,2.4,0.4,2.7
				c2.5,0.6,5.2-0.1,7.8-0.2c2.7-0.1,5.4-0.1,8.1-0.1c5.5,0,10.9,0,16.4,0c1.9,0,1.9-3,0-3c-5.3,0-10.6,0-15.9,0c-2.6,0-5.2,0-7.9,0
				c-1.3,0-2.6,0.1-3.9,0.2c-1.3,0.1-2.6,0.4-3.8,0.1c0.1,0.9,0.2,1.8,0.4,2.7c1.5-0.9,2.9-1.6,4.7-1.5c1.7,0,2.8-0.5,4.1-1.6
				c2.3-1.9,4.4-4.3,7.3-5.4c1.8-0.7,1.1-3.5-0.8-2.9c-1.1,0.4-2.2,0.8-3.2,1.5c-1,0.6-0.9,1.9,0,2.6c0.7,0.5,1.3,1.1,1.9,1.7
				c0.4,0.5,0.8,1.2,1.3,1.7c0.9,0.8,2.7,0.5,2.9-0.9c0.2-1.3-1-2.3-2.2-1.7c-0.6,0.2-0.5,0.7,0.3,1.4c-0.6,0.2-1.1,0.5-1.7,0.7
				c0,0,0.1,0,0.2,0.1c-0.3-0.2-0.6-0.5-0.9-0.7c0-0.3,0-0.7,0-1c0.3-0.2,0.6-0.5,0.9-0.7c0.3,0.2,0.6,0.3,0.8,0.4
				c-0.9,0.1-1.8,0.2-2.7,0.4c0-0.1,0-0.3,0-0.3c0-0.2-0.1-0.4,0.1-0.6c-0.9-0.3-1.7-0.7-2.6-1.1c0.1,0.8-0.3,1.7-1.2,1.8
				c0.5,0.5,1,1,1.5,1.5c-0.1-0.8,0.1-1.2,0.7-1.7c-0.9-0.3-1.7-0.7-2.6-1.1c0,0.8-0.4,1.2-1.1,1.3c0.6,0.5,1.3,1,1.9,1.4
				c0-0.6,0.2-1,0.9-1.1c-0.6-0.7-1.1-1.5-1.7-2.2c-0.4,0.7-0.8,0.4-1-0.2c-0.3-1.4-2.7-1.4-2.9,0c-0.1,0.8-0.4,1.4-1.1,1.8
				c0.8,0.4,1.5,0.9,2.3,1.3c0,0,0.1-1.2,0.1-1.1c-0.4,0-0.9-0.1-1.3-0.1c0,0.2,0.1,0.3,0.1,0.5c0.2,1.1,1.8,1.4,2.5,0.7
				c0.3-0.4,0.6-0.7,0.9-1.1c0.2-0.3,1.4-1.9,0.4-2c-1.7-0.2-2,2.5-0.4,2.9c2.5,0.7,5,0.7,7.5-0.1c0.9-0.3,2.2-0.9,3.1-0.3
				c0.9,0.5,1.2,1.6,1.2,2.5c1,0,2,0,3,0c-0.2-2.4,0-4.8,0.7-7.1c-1-0.1-2-0.3-2.9-0.4c0,1.8-0.3,3.6-0.9,5.3c1,0,1.9,0,2.9,0
				c-0.6-1.6-0.8-3.2-0.7-4.9c0.1-1.7-2.7-2.1-3-0.4c-0.1,0.6-0.2,1.2-0.3,1.8c0,0.2-0.3,1.4-0.1,1.3c0.4-0.1,0.8-0.1,1.2-0.2
				c-0.1,0-0.1,0-0.2-0.1c0.4,0.5,0.7,1,1.1,1.4c0-2,0.2-4,0.7-6c-1-0.3-1.9-0.5-2.9-0.8c-0.4,2.2-0.8,4.4-1.2,6.6c1,0,1.9,0,2.9,0
				c-0.5-1.9-0.3-3.9,0-5.8c-1-0.1-2-0.3-3-0.4c-0.1,1.8-0.4,3.6-0.9,5.3c1,0.1,2,0.3,3,0.4c-0.1-2,0.3-3.8,1.3-5.6
				c0.7-1.2-0.4-2.5-1.7-2.2c-2.6,0.5-5.2,1.3-7.7,2.2c0.4,0.9,0.8,1.8,1.2,2.7c2.7-1.4,5.6-2.4,8.5-3.1c-0.4-0.9-0.8-1.8-1.2-2.7
				c-0.9,0.5-1.8,0.9-2.7,1.4c0.6,0.8,1.2,1.6,1.8,2.4c1.3-1.2,2.1,0.3,3.3,0.7c0.6,0.2,1.2,0.2,1.8-0.2c0.2-0.2,0.4-0.3,0.6-0.6
				c0.1-0.2,0.3-0.3,0.4-0.5c0.2-0.2,0-0.1-0.5,0.2c-0.5-0.5-1-1-1.5-1.5c0.1,0.9,0.2,1.7,0.1,2.6c0,0.5-0.1,0.9-0.2,1.3
				c0,0.1-0.1,0.3-0.1,0.4c-0.1,0.4-0.1,0.4,0.1,0.1c0.4-0.1,0.8-0.1,1.2-0.2c-0.1,0-0.1,0-0.2,0c0.4,0.5,0.7,1,1.1,1.4
				c0.1-1.8,0.4-3.5,0.6-5.2c-1,0-1.9,0-2.9,0c0.2,1.2,0.3,2.3,0.2,3.5c0,0.4-0.2,2.5-0.6,2.6c0.6,0.5,1.3,1,1.9,1.4
				c0.3-2.1,0.7-4.2,1.4-6.3c-1,0-1.9,0-2.9,0c0.4,2.3,0.4,4.6,0.2,7c-0.1,0.8,0.7,1.5,1.5,1.5c0.9,0,1.4-0.7,1.5-1.5
				c0.3-2.5,0.9-5.1,1.5-7.5c-1,0-1.9,0-2.9,0c0.6,2.4,0.3,4.8-0.6,7.1c1,0.3,1.9,0.5,2.9,0.8c0.2-1.3,0.4-2.6,0.6-3.9
				c0.1-0.6,0.2-1.3,0.3-1.9c0-0.3,0.1-0.6,0.1-1c0.1-0.4,0.1-0.4-0.2,0c-0.7-0.3-1.5-0.6-2.2-0.9c0.7,1.9,0.7,3.8,0.2,5.7
				c1,0.1,2,0.3,3,0.4c-0.2-1.7,0-3.2,0.5-4.8c-1,0-1.9,0-2.9,0c0.6,1.9,0.8,3.9,0.4,6c0.6-0.3,1.2-0.7,1.9-1.1
				c-0.1,0-0.1-0.1-0.2-0.1c0.3,0.2,0.6,0.5,0.9,0.7c-0.2-0.3,0.3-1.9,0.4-2.4c0.2-0.9,0.5-1.8,0.8-2.7c-1,0-1.9,0-2.9,0
				c0.8,2,1.1,4,0.7,6.2c1,0.3,1.9,0.5,2.9,0.8c0.4-2.4,0.8-4.9,1.3-7.3c-1,0-1.9,0-2.9,0c0.2,1.1,0.3,2.1,0.3,3.2
				c0,0.4,0.1,2.4-0.2,2.7c0.4-0.2,0.7-0.3,1.1-0.4c-0.1,0-0.1,0-0.2,0c0.5,0.5,1,1,1.5,1.5c-0.1-2.1,0.3-4.2,1.3-6.1
				c-0.9-0.1-1.8-0.2-2.7-0.4c1,2.9,2.1,5.8,3.1,8.7c0.8-0.5,1.7-1,2.5-1.5c-1.4-1.5-2.2-3.2-2.8-5.2c-0.5-1.9-3.3-1.1-2.9,0.8
				c0.3,1.3,0.6,2.7,1,4c0.8-0.5,1.7-1,2.5-1.5c-0.6-0.7-0.1-2.2,0-3.1c0.1-1,0.1-2.1-0.3-3c-0.4-1-1.1-1.6-2-2.1
				c-0.9-0.4-1.7-0.9-1.5-2.1c-0.8,0.2-1.7,0.4-2.5,0.7c0,0.1,0,0.3,0.1,0.4c0.3,1.7,3,1.3,3-0.4c0.3-0.8,0.3-1,0.1-0.6
				c-0.2,0.5-0.5,0.3-0.9-0.5c-0.2-0.1-0.8-0.1-1-0.2c-0.3-0.1-1.8-0.6-1.5-1.2c-0.7,0.2-1.4,0.4-2.1,0.5c0.3,0.2,0.4,0.6,0.4,0.9
				c0.5-0.6,1-1.3,1.5-1.9c-0.5-0.1-0.5,0.1-0.2,0.7c-0.9-0.2-1.9-0.5-2.8-0.8c0,0.3-0.2,0.2-0.3,0.2c0,0,0-0.1-0.1-0.1
				c0-0.3-0.3-0.3-0.7-0.2c-0.7-0.2-0.9-0.3-0.6-0.2c0.4,0.2,0.2,0.5-0.7,1c-0.4-0.2-0.7-0.3-1.1-0.4c0.8-1,0.9-1.6,0.1-1.8
				c-0.2-0.1-0.4-0.2-0.7-0.2c-1.2-0.2-2.5,1-1.7,2.2c0.6,0.9-1.1,0.8,0.5,1.5c1,0.4,0.7,0.4,0.8-0.3c0-0.4,0-0.7,0.1-1.1
				c-1-0.1-2-0.3-3-0.4c-0.1,0.9-0.4,1.9-0.9,2.6c0.3-0.2,0.6-0.5,0.9-0.7c-0.1,0-0.2,0.1-0.3,0.1c0.4,0.1,0.8,0.1,1.2,0.2
				c-0.1,0-0.1-0.1-0.2-0.1c0.2,0.3,0.5,0.6,0.7,0.9c-0.2-0.6-0.1-1.6-0.1-2.2c0-0.9,0-1.8,0-2.7c0-1.7-2.5-2-3-0.4
				c-0.4,1.6-0.9,3.1-1.7,4.5c0.9,0.2,1.9,0.5,2.8,0.8c-0.1-1.5,0-3,0.2-4.4c0.3-1.9-2.5-2.7-2.9-0.8c-0.2,1-0.5,2-0.8,3
				c-0.2,0.8-0.5,2-1.2,2.3c0.8,0.4,1.5,0.9,2.3,1.3c0.1-1.8,0.2-3.6,0.3-5.4c0.1-1.9-2.9-1.9-3,0c0,0.6-0.1,1.2-0.3,1.8
				c-0.1,0.3-0.2,0.6-0.3,0.9c-0.5,0.7-0.1,0.9,1.2,0.6c0.2-0.3,0-1.2,0-1.6c0-0.6,0-1.3,0.1-1.9c0-1.9-2.9-1.9-3,0
				c-0.1,1.4-0.1,2.8-1.3,3.7c0.9,0.3,1.7,0.7,2.6,1.1c-0.1-1.7-0.1-3.3,0.1-4.9c0.2-1.7-2.7-2.1-2.9-0.4c-0.2,1-0.3,2-0.5,3
				c0.7-0.3,1.5-0.6,2.2-0.9c-0.5-0.3-0.7-1.1-0.5-1.6c-0.9-0.2-1.9-0.5-2.8-0.8c0,0.4-0.1,0.7-0.3,1.1c0.9,0,1.7,0,2.6,0
				c-0.2-0.4-0.2-0.7-0.2-1.1c-0.1-2-2.9-1.9-3,0c-0.1,1.6-0.3,3.1-0.5,4.7c1,0,1.9,0,2.9,0c-0.7-2.1-1.1-4.2-1-6.4
				c0-1.5-2-2-2.8-0.8c-1.1,1.8-3,3.8-3.3,6c-0.1,1,0.1,1.9,0.4,2.8c0.3,0.9,0.8,1.8,0.5,2.8c1,0,1.9,0,2.9,0
				c-0.2-0.9-0.3-1.8-0.1-2.7c-0.9,0.1-1.8,0.2-2.7,0.4c0.1,0.3,0.4,1.4,0,1.7c0.4-0.2,0.7-0.3,1.1-0.4c-0.1,0-0.2,0-0.3,0
				c0.4,0.2,0.7,0.3,1.1,0.4c0.2,0.2,0.1-1.2,0.1-1.4c0-0.6,0-1.3,0-1.9c-1,0-2,0-3,0c0.1,1,0.1,1.8-0.1,2.8
				c0.9-0.1,1.8-0.2,2.7-0.4c-0.2-0.5-0.3-1-0.3-1.6c-1,0-2,0-3,0c0.1,3.4,0.2,6.8-0.7,10c1,0.1,2,0.3,2.9,0.4c0-2.3,0-4.6,0.3-6.9
				c-1,0-2,0-3,0c-0.1,3-0.6,5.9-1.4,8.7c0.9-0.1,1.8-0.2,2.7-0.4c-0.5-1.1,0-3,0-4.2c0.1-1.6,0.2-3.2,0.3-4.8c-1,0-2,0-3,0
				c-0.1,2.8-0.4,5.7-1,8.4c1,0,1.9,0,2.9,0c-0.5-2.2-0.5-4.4,0.1-6.6c-1-0.1-2-0.3-3-0.4c-0.2,2.7-0.6,5.3-1.1,8c1,0.1,2,0.3,3,0.4
				c-0.2-3.4,0-6.7,0.2-10.1c0.1-2-2.8-1.9-3,0c-0.2,1.6-0.4,3.2-0.7,4.8c-0.1,0.7-0.2,1.4-0.4,2.1c-0.1,0.5-0.1,1.6-0.5,1.9
				c0.9,0.3,1.7,0.7,2.6,1.1c0-3.1,0.1-6.2,0.6-9.2c0.3-1.9-2.4-2.7-2.9-0.8c-0.9,3.2-0.1,6.7-1.4,9.8c1,0.1,2,0.3,3,0.4
				c-0.2-2.7-0.5-5.3-0.8-8c-0.1-1.6-2.4-2.1-3-0.4c-0.9,3.1-1.1,6.3-0.6,9.5c0.2,1.7,3,1.3,2.9-0.4c-0.1-3.2,0.2-6.3,0.9-9.4
				c-1-0.3-1.9-0.5-2.9-0.8c-0.1,0.9-0.3,1.8-0.5,2.7c-0.1,0.4-0.2,0.9-0.4,1.3c-0.1,0.2-0.5,1-0.1,0.9c0.4,0.1,0.8,0.1,1.2,0.2
				c-0.1,0-0.1-0.1-0.2-0.1c0.2,0.6,0.5,1.1,0.7,1.7c1-2.6,2-5.2,3-7.7C381,89.1,378.1,88.3,377.4,90.1L377.4,90.1z"/>
		</g>
	</g>
	<g>
		<g>
			<path class="st12" d="M381.1,66.2c-0.2,0.8-0.4,1.7-0.6,2.5c1,0.1,2,0.3,2.9,0.4c0-0.7-0.1-1.4-0.2-2.1c-0.6,0.5-1.3,1-1.9,1.5
				c0.3,0.1,0.4,0.6,0.5,0.8c0.4,0.7,1.1,1,1.9,1c1.7-0.1,2.3-1.7,2.3-3.1c-1,0-2,0-3,0c0,0.9,0.1,1.8,0.2,2.6
				c0.1,1.4,2,2.1,2.8,0.8c0.7-1.2,0.7-2.5,0.1-3.8c-0.5-1.1-2-0.9-2.6,0c-0.7,1.1-0.9,2.5-0.5,3.7c0.3,1,1.7,1.6,2.5,0.7
				c0.7-0.8,0.9-1.7,0.8-2.7c-0.1-0.5-0.2-0.9-0.2-1.3c0-0.1,0.1-0.4,0-0.3c-0.8-0.2-1.7-0.4-2.5-0.7c0.3,1.6,0.3,3.1,0.2,4.7
				c-0.1,1.5-0.2,3,0.6,4.4c0.4,0.7,1.2,0.9,1.9,0.6c0.7-0.3,1-1,0.9-1.8c-0.2-1-0.4-2-0.5-2.9c-0.9,0.4-1.8,0.8-2.7,1.2
				c1.2,2.6,2.4,5.1,3.7,7.6c0.6,1.1,2.5,0.9,2.7-0.4c0.2-1.3,0.3-2.6,0.2-4c-1,0.1-2,0.3-2.9,0.4c0,0.2,0.1,0.4,0.1,0.6
				c0.2,0.8,1.1,1.2,1.9,1c0.8-0.2,1.2-1,1-1.8c-0.2-1.2-0.7-2.3-1.8-3c-0.6-0.4-1.5-0.2-1.9,0.4c-0.5,0.6-0.4,1.4,0.1,2
				c1,1.2,1.5,2.7,1.8,4.2c0.1,0.8,1.1,1.2,1.9,1c0.9-0.2,1.2-1,1-1.8c-0.4-2.1-1.3-3.9-2.6-5.5c-0.6,0.8-1.2,1.6-1.8,2.4
				c0.2,0.2,0.3,0.8,0.4,1.2c1-0.3,1.9-0.5,2.9-0.8c0-0.2-0.1-0.4-0.1-0.6c-0.3-1.6-3.1-1.3-3,0.4c0.1,1.1,0.1,2.1-0.1,3.2
				c0.9-0.1,1.8-0.2,2.7-0.4c-1.3-2.5-2.6-5.1-3.7-7.6c-0.3-0.7-1.2-0.9-1.9-0.6c-0.7,0.3-1,1-0.9,1.8c0.2,1,0.4,2,0.5,2.9
				c0.9-0.4,1.8-0.8,2.7-1.2c-0.6-1-0.2-2.5-0.1-3.6c0.1-1.6,0-3.2-0.4-4.8c-0.2-1.1-1.8-1.4-2.5-0.7c-0.7,0.7-0.9,1.7-0.8,2.6
				c0.1,0.5,0.2,0.9,0.2,1.3c0,0,0,0.5,0.1,0.3c0.8,0.2,1.7,0.4,2.5,0.7c-0.2-0.5-0.1-0.9,0.2-1.4c-0.9,0-1.7,0-2.6,0
				c0.1,0.3,0,0.5-0.1,0.8c0.9,0.2,1.9,0.5,2.8,0.8c-0.1-0.9-0.1-1.7-0.2-2.6c-0.1-1.9-3-1.9-3,0c0,0.1,0,0.3,0,0.4
				c-0.1-0.3,1.1,0,0.7-0.1c0.7,0.1,0.7,0.2,0.5-0.2c-0.1-0.2-0.1-0.3-0.2-0.4c-0.5-0.7-1.1-1.1-1.9-1.4c-0.9-0.3-2,0.5-1.9,1.4
				c0,0.7,0.1,1.4,0.2,2.1c0.1,0.7,0.5,1.4,1.3,1.5c0.7,0.1,1.5-0.3,1.6-1.1c0.2-0.8,0.4-1.7,0.6-2.5c0.2-0.8-0.2-1.6-1-1.8
				C382.2,65,381.2,65.4,381.1,66.2L381.1,66.2z"/>
		</g>
	</g>
	<g>
		<g>
			<path class="st12" d="M401.8,76c0.1,0.7,0.3,1.4,0.5,2c0.2,0.7,0.3,1.6,0.8,2.1c1.2,1.2,2.8,0.2,3.8-0.8c1.7-1.7,2.4-4.1,3.1-6.3
				c0.4-1.4,0.8-2.8,1.2-4.1c0.4-1.3,1.4-3.3,0.3-4.5c-0.8-0.9-2.4-1.2-3.5-0.8c-0.7,0.2-1.3,0.8-1.5,1.5c-0.2,0.7-0.1,1.5-0.2,2.2
				c-0.2,3-1.5,5.9-2.6,8.6c-0.3,0.7-0.2,1.6,0.5,2.1c0.6,0.4,1.7,0.2,2.1-0.5c0.9-2.2,1.9-4.4,2.5-6.7c0.3-1.2,0.5-2.3,0.6-3.5
				c0-0.2,0-0.5,0-0.8c0-0.2,0-0.3,0-0.5c-0.1,0.2-0.2,0.4-0.4,0.5c-0.1,0-0.1,0,0,0c0.1,0,0.1,0,0.1,0c0.1,0,0.2,0.1,0.4,0.1
				c0.2,0.1,0.2,0.1,0,0c-0.1-0.2-0.3-0.4-0.4-0.7c0-0.2,0-0.2-0.1,0.1c0,0.2-0.1,0.3-0.2,0.5c-0.1,0.3-0.2,0.7-0.3,1
				c-0.2,0.6-0.4,1.2-0.5,1.8c-0.4,1.3-0.8,2.6-1.2,3.9c-0.3,0.9-0.6,1.8-1.1,2.7c-0.2,0.4-0.4,0.7-0.7,1c-0.1,0.1-0.3,0.3-0.4,0.4
				c-0.1,0.1-0.2,0.2-0.3,0.2c-0.2,0.1-0.2,0.1,0.1,0c0.4,0.2,0.7,0.3,1.1,0.4c0,0-0.1-0.1-0.1-0.1c0.1,0.2,0.3,0.4,0.4,0.7
				c-0.4-1.1-0.7-2.3-0.9-3.5c-0.2-0.8-1.1-1.2-1.9-1C402.1,74.4,401.7,75.2,401.8,76L401.8,76z"/>
		</g>
	</g>
	<g>
		<g>
			<path class="st13" d="M388.8,64.7c-0.6,1.6-1.1,3.3-1.5,5c1,0,1.9,0,2.9,0c-0.2-1-0.1-1.9,0.2-2.8c-1,0-1.9,0-2.9,0
				c0.4,1.4,0.8,2.7,1.1,4.1c0.5,1.7,2.8,1.2,2.9-0.4c0.1-1.1,0.1-2.2,0-3.4c-0.1-0.8-0.6-1.5-1.5-1.5c-0.8,0-1.5,0.7-1.5,1.5
				c0,1,0.1,2.1,0.2,3.1c0.1,1,0.1,2.3,0.6,3.2c0.5,1,1.6,1,2.6,1.2c1,0.2,2,0.5,2.9,0.9c0.1-1,0.3-2,0.4-2.9
				c-1.9,0-2.8,2.3-1.5,3.7c1.2,1.2,3.1,1.1,4.6,0.6c3-1.2,5.6-3.1,6.7-6.2c0.4-1.3,0.6-2.8,0.5-4.1c0-0.7,0-1.6-0.4-2.3
				c-0.5-0.9-1.4-1-2.3-1c-3.6,0.3-7.2,0.6-10.7,0.8c-0.9,0.1-2,0.1-2.5,1c-0.5,0.8-0.4,1.8-0.5,2.7c-0.1,1.7-0.4,3.7,1.3,4.8
				c0.8,0.5,2,0.1,2.2-0.9c0.2-1.4,0.5-2.8,0.7-4.3c-1-0.3-1.9-0.5-2.9-0.8c-0.3,2.2-0.2,4.4,0.5,6.5c0.4,1.2,2.1,1.5,2.7,0.4
				c0.9-1.6,1.6-3.4,1.8-5.2c-1-0.1-2-0.3-2.9-0.4c0.1,1.5,0.1,3,0.2,4.5c0,1.2,1.7,2.1,2.6,1.1c1.2-1.5,1.6-3.3,1.9-5.2
				c0.1-0.8-0.2-1.6-1.1-1.8c-0.7-0.2-1.7,0.2-1.9,1.1c-0.4,2.5,0,4.8,1.1,7.1c0.6,1.1,2,0.9,2.6,0c0.6-0.9,0.9-2,1-3.1
				c0-1.4-1.6-1.9-2.6-1.1c-0.8,0.7-1.5,1.7-1.2,2.8c0.2,1.2,1.3,2.1,2.5,1.8c1.1-0.2,1.8-1.1,2.5-1.9c0.7-0.9,1.2-1.8,1.7-2.8
				c0.3-0.7,0.2-1.6-0.5-2c-0.7-0.4-1.7-0.2-2.1,0.5c-0.7,1.3-2.3,3.4-1,4.7c0.6,0.7,1.7,0.7,2.5,0.2c0.7-0.4,1.1-1.3,1.5-2
				c0.6-1.3,1.6-3.4,1-4.9c-0.8-1.8-3.2-1.6-4.6-0.9c0.4-0.1,0.8-0.1,1.2-0.2c-1.2-0.5-2.7-0.1-3.6,0.8c-1.1,1.1-1.1,2.8-0.4,4
				c0.6,1.2,2.4,0.8,2.7-0.4c0.4-1.1,0.4-2.3,0-3.5c-0.2-0.7-0.9-1.2-1.6-1.1c-0.7,0.1-1.4,0.7-1.3,1.5c0.2,1.3,0.7,2.4,1.7,3.2
				c1.1,0.9,2.8,0.7,3.3-0.8c0.5-1.6-1.9-2.7-2.7-1.2c-0.5,0.8-0.6,1.7-0.7,2.7c-0.1,0.8,0,1.6-0.3,2.3c-0.5,1.4-1.8,2.4-2.8,3.3
				c-0.7,0.7-1.4,1.6-0.8,2.6c0.5,0.8,1.4,1.1,2.3,1.2c1.9,0.3,3.8,0,5.3-1.1c1.6-1.1,0.1-3.7-1.5-2.6c-1,0.7-2.9,1.3-4,0.5
				c0.2,0.2,0.4,0.4,0.5,0.5c0-0.1-0.1-0.1-0.1-0.1c0.1,0.2,0.1,0.5,0.2,0.8c0-0.1,0-0.1,0-0.2c-0.1,0.2-0.1,0.5-0.2,0.8
				c0.2-0.3,0.6-0.6,0.9-0.8c0.3-0.3,0.7-0.6,1-1c0.6-0.7,1.2-1.4,1.6-2.2c0.5-0.9,0.7-1.8,0.8-2.9c0.1-0.8,0-1.8,0.4-2.5
				c-0.9-0.4-1.8-0.8-2.7-1.2c0,0,0,0.1,0,0.1c0.1-0.2,0.3-0.4,0.4-0.7c0,0-0.1,0.1-0.1,0.1c0.2-0.1,0.4-0.3,0.7-0.4
				c0.1,0,0.5,0.1,0.5,0.1c0,0-0.3-0.3-0.3-0.3c-0.1-0.1-0.2-0.3-0.2-0.5c-1,0.1-2,0.3-2.9,0.4c0.2,0.7,0.2,1.2,0,1.9
				c0.9-0.1,1.8-0.2,2.7-0.4c-0.1-0.3,0-0.6,0.3-0.6c0.2,0,0.6,0.2,0.8,0.2c0.4,0,0.7-0.3,1.1-0.3c0.1,0,0.2,0,0.3,0
				c-0.2-0.8-0.3-1.1-0.4-0.6c0,0.1-0.1,0.3-0.1,0.4c-0.1,0.4-0.2,0.8-0.3,1.2c-0.1,0.4-0.3,0.8-0.5,1.1c-0.1,0.2-0.2,0.4-0.3,0.6
				c-0.1,0.1-0.1,0.2-0.1,0.2c-0.2,0.3-0.1,0.2,0.2-0.1c0.3,0,0.5,0,0.8,0c0,0,0,0,0,0c0.2,0.2,0.4,0.4,0.5,0.5
				c0-0.1-0.1-0.1-0.1-0.2c0.1,0.2,0.1,0.5,0.2,0.8c0,0.3,0.1-0.2,0.2-0.2c0.1-0.2,0.2-0.4,0.3-0.6c0.2-0.4,0.4-0.8,0.6-1.2
				c-0.9-0.5-1.7-1-2.6-1.5c-0.3,0.7-0.7,1.4-1.1,2c-0.2,0.2-0.4,0.5-0.6,0.7c-0.1,0.2-0.3,0.3-0.4,0.5c-0.2,0.2,0.2,0-0.2,0.1
				c0.3,0,0.5,0,0.8,0c0.3,0.2,0.5,0.4,0.4,0.7c0,0.2,0,0.3,0,0.2c0.1,0,0.4-0.4,0.5-0.5c-0.9-0.3-1.7-0.7-2.6-1.1
				c0,0.6-0.2,1.1-0.6,1.6c0.9,0,1.7,0,2.6,0c-0.7-1.4-1-3.1-0.8-4.8c-1-0.1-2-0.3-2.9-0.4c-0.1,1.1-0.3,2.5-1.1,3.4
				c0.9,0.3,1.7,0.7,2.6,1.1c-0.1-1.5-0.1-3-0.2-4.5c0-0.7-0.5-1.4-1.3-1.5c-0.7-0.1-1.5,0.3-1.6,1.1c-0.2,1.6-0.7,3.1-1.5,4.5
				c0.9,0.1,1.8,0.2,2.7,0.4c-0.5-1.6-0.8-3.3-0.5-4.9c0.1-0.8-0.2-1.6-1.1-1.8c-0.7-0.2-1.7,0.2-1.9,1c-0.2,1.4-0.5,2.8-0.7,4.3
				c0.7-0.3,1.5-0.6,2.2-0.9c0.2,0.1,0.1,0.3,0.1,0.1c0,0.1,0-0.3,0-0.2c0-0.4,0-0.8,0-1.1c0-0.4,0.1-0.8,0.1-1.3
				c0-0.2,0-0.4,0.1-0.6c0-0.1,0-0.3,0-0.4c0-0.3,0-0.2-0.1,0.3c-0.2,0.1-0.4,0.3-0.7,0.4c0.2-0.1,0.7-0.1,1.1-0.1
				c0.5,0,1.1-0.1,1.6-0.1c1-0.1,2.1-0.2,3.1-0.2s2.1-0.2,3.1-0.2c0.5,0,1-0.1,1.5-0.1c0.3,0,0.6-0.1,0.9-0.1c0.3,0,0.9,0.1,0.3-0.2
				c-0.2-0.2-0.4-0.4-0.5-0.5c0.2,0.3,0.1,1.1,0.1,1.4c0,0.5,0,1.1-0.1,1.6c-0.2,1-0.5,2-1.1,2.8c-0.7,0.9-1.8,1.5-2.8,2.1
				c-0.6,0.3-1.2,0.7-1.9,0.8c-0.2,0-0.5-0.1-0.7,0c0,0-0.4,1.3,0.1,0.9c-0.2,0.1-0.4,0.3-0.7,0.4c0,0-0.1,0-0.1,0
				c0.7,0,1.4-0.5,1.5-1.3c0.1-0.8-0.4-1.3-1.1-1.7c-0.7-0.3-1.5-0.6-2.2-0.8c-0.5-0.1-1.6-0.2-1.9-0.4c0.2,0.2,0.4,0.4,0.5,0.5
				c-0.1-0.2-0.1-0.8-0.2-1c-0.1-0.4-0.1-0.8-0.1-1.3c-0.1-0.9-0.1-1.8-0.1-2.7c-1,0-2,0-3,0c0.1,1.1,0.1,2.2,0,3.4
				c1-0.1,2-0.3,2.9-0.4c-0.4-1.4-0.8-2.7-1.1-4.1c-0.4-1.4-2.5-1.4-2.9,0c-0.4,1.5-0.4,2.9-0.2,4.4c0.3,1.5,2.6,1.4,2.9,0
				c0.4-1.7,0.9-3.4,1.5-5c0.3-0.8-0.3-1.6-1-1.8C389.8,63.4,389.1,63.9,388.8,64.7L388.8,64.7z"/>
		</g>
	</g>
</g>
<g>
	<g>
		<g>
			<path d="M381.6,66.9c0.5-2.2,1-4.5,1.6-6.7c0.6-2.2,2-3.7,3.6-5.3c2.8-2.8,5.9-5.7,9.9-6.6c2.3-0.6,4.1,0.9,5.9,2.2
				c1.8,1.3,3.2,2.9,4.4,4.8c1.1,1.7,1.9,3.6,2.7,5.4c0.9,2.1,1.8,4.2,2.2,6.5c0.2,1.4,2.4,0.8,2.2-0.6c-0.4-2-1.2-3.9-2-5.8
				c-0.7-1.7-1.4-3.3-2.2-4.9c-1.8-3.4-4.2-6-7.4-8.1c-1.5-1-3.1-2.1-5-1.9c-1.7,0.1-3.4,0.8-4.9,1.5c-3.2,1.6-5.8,4.2-8.3,6.8
				c-1.5,1.5-2.7,3.1-3.3,5.2c-0.6,2.2-1.1,4.6-1.6,6.9C379.1,67.7,381.3,68.3,381.6,66.9L381.6,66.9z"/>
		</g>
	</g>
	<g>
		<g>
			<path d="M380.9,68c4.7-2.4,10.1-3.1,15.3-3.8c2.8-0.4,5.5-0.4,8.3,0.2c2.2,0.4,5.6,0.9,7.1,2.8c0.9,1.2,2.8,0,1.9-1.1
				c-1.7-2.2-4.4-2.9-7-3.6c-3.1-0.7-6.1-1-9.2-0.7c-5.9,0.7-12.1,1.5-17.4,4.2C378.5,66.8,379.6,68.7,380.9,68L380.9,68z"/>
		</g>
	</g>
	<g>
		<g>
			<path d="M379.3,66.8c0.1,1.2,0.7,2.3,1.3,3.3c0.6,1,1,2.1,1.5,3.2c0.9,2.2,1.7,4.5,3.1,6.4c0.4,0.5,1,0.7,1.5,0.4
				c0.5-0.3,0.8-1,0.4-1.5c-1.3-1.8-2.1-3.8-2.9-5.9c-0.4-1.1-0.8-2.1-1.4-3.1c-0.5-0.9-1.2-1.8-1.3-2.8c-0.1-0.6-0.5-1.1-1.1-1.1
				C379.9,65.7,379.3,66.2,379.3,66.8L379.3,66.8z"/>
		</g>
	</g>
	<g>
		<g>
			<path d="M382.5,81.9c2.2-0.8,5-2.3,7.4-1.7c2.1,0.5,3.8,1.9,5.9,2.4c1,0.2,2,0.3,2.9,0.1c1.3-0.3,2.4-1,3.6-1.4
				c2.7-0.8,5.6,0,8.1,1c1.3,0.6,2.5-1.4,1.1-1.9c-2.5-1.1-5.3-1.9-8.1-1.6c-2.5,0.3-4.8,2.3-7.4,1.6c-2.2-0.6-4-2.1-6.3-2.5
				c-2.7-0.5-5.4,1-7.9,1.8C380.6,80.2,381.1,82.4,382.5,81.9L382.5,81.9z"/>
		</g>
	</g>
	<g>
		<g>
			<path d="M406.8,80.6c2.3-1.1,3.5-3.5,4.4-5.8c1.1-3,2.1-6.1,3.1-9.1c0.5-1.4-1.7-2-2.2-0.6c-1,2.8-1.9,5.7-2.9,8.5
				c-0.7,2-1.6,4.1-3.5,5C404.4,79.3,405.5,81.2,406.8,80.6L406.8,80.6z"/>
		</g>
	</g>
	<g>
		<g>
			<path d="M411.1,82.5c0.5,0,0.9,0,1.4,0.1c-0.1,0-0.2,0-0.3,0c0.3,0,0.5,0.1,0.8,0.2c0.1,0,0.3,0.1,0.4,0.1c0.1,0,0.1,0,0.2,0.1
				c0,0,0.1,0,0.1,0c-0.2-0.1-0.2-0.1-0.1-0.1c0.1,0.1-0.2-0.2-0.2-0.2c0,0,0.1,0.1,0.1,0.1c0.1,0.1,0.2,0.2,0.2,0.4
				c0.2,0.3,0.5,0.5,0.8,0.7c0.5,0.3,1.3,0.1,1.5-0.4c0.3-0.6,0.1-1.2-0.4-1.5c-0.1-0.1,0,0.1,0.1,0.1c0,0-0.1-0.1-0.1-0.1
				c0,0-0.1-0.1-0.1-0.1c0,0-0.1-0.2,0,0c0.1,0.2,0-0.1-0.1-0.1c0-0.1-0.1-0.1-0.1-0.2c-0.2-0.3-0.5-0.5-0.9-0.7
				c-0.2-0.1-0.4-0.1-0.6-0.2c-0.9-0.2-1.8-0.3-2.6-0.3c-0.6,0-1.1,0.5-1.1,1.1C410,82,410.5,82.6,411.1,82.5L411.1,82.5z"/>
		</g>
	</g>
	<g>
		<g>
			<path d="M413.9,83.5c1.2,1.4,2.5,2.7,3.4,4.3c1,1.5,1.7,3.2,2.1,5c0.1,0.6,0.8,0.9,1.4,0.8c0.6-0.2,0.9-0.8,0.8-1.4
				c-0.4-1.9-1.2-3.8-2.3-5.5c-1.1-1.7-2.4-3.2-3.8-4.7c-0.4-0.5-1.2-0.4-1.6,0C413.5,82.4,413.5,83.1,413.9,83.5L413.9,83.5z"/>
		</g>
	</g>
	<g>
		<g>
			<path d="M381.7,80c-1.4,0.9-2.9,1.8-4.2,2.9c-1.3,1.2-2.4,2.6-3.2,4.1c-0.9,1.7-1.8,3.3-2.7,5c-0.5,0.8-1,1.7-1.4,2.5
				c-0.4,0.8-0.8,1.7-0.4,2.6c0.5,1.3,2.7,0.8,2.2-0.6c-0.2-0.6,0.6-1.5,0.8-2c0.4-0.7,0.8-1.4,1.2-2.1c0.8-1.5,1.6-3,2.4-4.4
				c0.7-1.3,1.6-2.4,2.7-3.4c1.1-1,2.4-1.7,3.7-2.5C384.1,81.2,382.9,79.3,381.7,80L381.7,80z"/>
		</g>
	</g>
	<g>
		<g>
			<path d="M381.5,82.5c1.1-0.7,2.3-1.3,3.5-1.8c1.3-0.5,2.5-0.8,3.9-0.9c0.6-0.1,1.1-0.5,1.1-1.1c0-0.6-0.5-1.2-1.1-1.1
				c-1.6,0.1-3,0.4-4.5,1c-1.4,0.5-2.8,1.2-4,2c-0.5,0.3-0.7,1-0.4,1.5C380.3,82.6,381,82.8,381.5,82.5L381.5,82.5z"/>
		</g>
	</g>
	<g>
		<g>
			<path d="M370.8,97.7c1.5,0,1.5-2.2,0-2.2C369.3,95.4,369.3,97.7,370.8,97.7L370.8,97.7z"/>
		</g>
	</g>
	<g>
		<g>
			<path d="M375.5,107.1c1.4,0,1.4-2.2,0-2.2C374.1,104.9,374.1,107.1,375.5,107.1L375.5,107.1z"/>
		</g>
	</g>
	<g>
		<g>
			<path d="M375.7,107.1c1.5,0,1.5-2.2,0-2.2C374.3,104.8,374.3,107.1,375.7,107.1L375.7,107.1z"/>
		</g>
	</g>
	<g>
		<g>
			<path d="M418.6,107.2c1.4,0,1.4-2.2,0-2.2C417.2,105,417.2,107.2,418.6,107.2L418.6,107.2z"/>
		</g>
	</g>
	<g>
		<g>
			<path d="M419.5,93.4c1.5,1.2,2.3,3.5,1.4,5.3c-1.1,2.2-2.4,4.3-3.6,6.4c-0.7,1.3,1.2,2.4,1.9,1.1c0.7-1.3,1.4-2.5,2.1-3.8
				c0.7-1.2,1.5-2.4,1.9-3.8c0.8-2.4-0.3-5.3-2.2-6.9c-0.5-0.4-1.1-0.5-1.6,0C419.1,92.2,419,93,419.5,93.4L419.5,93.4z"/>
		</g>
	</g>
	<g>
		<g>
			<path d="M386,65.9c-0.1,1.7-0.4,3.7,0.1,5.3c0.5,1.7,2.1,2.8,3.4,3.9c1.2,1.1,2.5,2.5,4,3.2c1.5,0.8,3.2,0.8,4.9,0.6
				c3-0.4,5.6-2.2,7.4-4.7c2.1-2.9,2.1-6.6,2.1-10c0-1.9-3-1.9-3,0c0.1,2.7,0.2,5.6-1.4,8c-1.2,1.9-3.2,3.2-5.3,3.6
				c-1.1,0.2-2.4,0.2-3.4-0.3c-1.2-0.6-2.1-1.7-3.1-2.6c-0.5-0.5-1-1-1.6-1.4c-0.5-0.4-1-0.8-1.1-1.5c-0.2-1.3,0-2.9,0.1-4.3
				C389,63.9,386,63.9,386,65.9L386,65.9z"/>
		</g>
	</g>
	<g>
		<g>
			<path d="M390.6,76.9c0.1,0.3,0.1,0.7,0.2,1.1c0-0.1,0-0.3-0.1-0.4c0.1,0.5,0.1,1,0.1,1.6c0,0.4,0.2,0.8,0.4,1.1
				c0.3,0.3,0.7,0.5,1.1,0.4c0.4,0,0.8-0.1,1.1-0.4c0.3-0.3,0.4-0.7,0.4-1.1c0-1-0.1-2-0.4-3c-0.1-0.4-0.4-0.7-0.7-0.9
				c-0.3-0.2-0.8-0.3-1.2-0.2c-0.4,0.1-0.7,0.3-0.9,0.7C390.5,76.1,390.5,76.5,390.6,76.9L390.6,76.9z"/>
		</g>
	</g>
	<g>
		<g>
			<path d="M400.7,77c0,0.7,0.1,1.4,0.1,2.1c0,0.4,0.1,0.8,0.4,1.1c0.1,0.2,0.3,0.2,0.5,0.3c0.2,0.1,0.4,0.1,0.6,0.1
				c0.4,0,0.8-0.1,1.1-0.4c0.3-0.3,0.5-0.7,0.4-1.1c0-0.7-0.1-1.4-0.1-2.1c0-0.4-0.1-0.8-0.4-1.1c-0.1-0.2-0.3-0.2-0.5-0.3
				c-0.2-0.1-0.4-0.1-0.6-0.1c-0.4,0-0.8,0.1-1.1,0.4C400.8,76.2,400.6,76.6,400.7,77L400.7,77z"/>
		</g>
	</g>
	<g>
		<g>
			<path d="M369.4,97.3c1.4,3,2.9,6.1,4.3,9.1c0.3,0.7,1.4,0.9,2.1,0.5c0.7-0.5,0.9-1.3,0.5-2.1c-1.4-3-2.9-6.1-4.3-9.1
				c-0.3-0.7-1.4-0.9-2-0.5C369.2,95.8,369.1,96.6,369.4,97.3L369.4,97.3z"/>
		</g>
	</g>
	<line class="st14" x1="375.8" y1="105.9" x2="418.8" y2="105.9"/>
</g>
<path class="st15" d="M418.2,110.4h-43.8c-2.8,0-5.1-2.3-5.1-5.1V86.5c0-2.8,2.3-5.1,5.1-5.1h43.8c2.8,0,5.1,2.3,5.1,5.1v18.8
	C423.3,108.1,421,110.4,418.2,110.4z"/>
<g>
	<g>
		<path d="M387.8,67.7c0.5,1.2,1.9,1.6,3.1,1.6c1.2,0,2.5-0.5,3.4-1.3c0.5-0.4,0.9-1.2,0.7-1.9c-0.2-0.6-0.8-1.1-1.3-1.4
			c-1.2-0.7-2.6-0.8-3.9-0.6c-0.7,0.1-1.4,0.3-2,0.7c-0.7,0.6-0.6,1.4-0.1,2.1c0.5,0.8,1.8,0.1,1.3-0.8c0-0.1-0.1-0.4-0.2-0.2
			c0-0.1,0.3-0.2,0.4-0.2c0.6-0.2,1.2-0.3,1.8-0.3c0.6,0,1.1,0.1,1.6,0.3c0.2,0.1,0.4,0.2,0.6,0.3c0.2,0.1,0.3,0.3,0.4,0.4
			c0.1,0.1,0,0.1,0,0c0,0.1,0,0.1-0.1,0.2c-0.1,0.2-0.4,0.3-0.6,0.5c-0.4,0.3-0.9,0.5-1.4,0.6c-0.4,0.1-0.9,0.1-1.4,0
			c-0.2,0-0.4-0.1-0.6-0.2c-0.1-0.1-0.3-0.2-0.3-0.3c-0.1-0.4-0.5-0.6-0.9-0.5C388,66.9,387.7,67.3,387.8,67.7L387.8,67.7z"/>
	</g>
</g>
<g>
	<g>
		<path d="M402.6,64.4c-1.2,0.1-2.5-0.2-3.7,0.2c-1.2,0.4-2.3,1.5-1.7,2.9c0.5,1.1,1.8,1.5,2.9,1.6c1.2,0.1,2.5,0.2,3.4-0.7
			c0.5-0.5,0.8-1.2,0.7-1.9c-0.1-0.7-0.7-1.1-1.2-1.5c-0.3-0.2-0.8-0.1-1,0.3c-0.2,0.4-0.1,0.8,0.3,1c0.1,0.1,0.3,0.2,0.4,0.3
			c0.1,0.1,0.2,0.2,0.2,0.2c0-0.1,0,0,0,0c0,0.1,0,0.1-0.1,0.2c-0.1,0.2-0.1,0.2-0.3,0.3c-0.2,0.2-0.6,0.2-0.9,0.2
			c-0.4,0-0.8,0-1.2,0c-0.6,0-1.3-0.2-1.7-0.7c-0.1-0.1-0.1-0.2-0.1-0.3c0-0.1,0.1-0.2,0.2-0.3c0.2-0.2,0.5-0.3,0.9-0.4
			c0.4-0.1,0.9-0.1,1.3,0c0.6,0,1.1,0.1,1.7,0c0.4,0,0.8-0.3,0.8-0.8C403.4,64.8,403,64.4,402.6,64.4L402.6,64.4z"/>
	</g>
</g>
<g>
	<g>
		<path d="M394.4,67.5c0.3,0,0.6,0.1,0.9,0c0.2,0,0.4,0,0.6-0.1c0,0,0.1,0,0.2,0c0,0,0,0,0,0c-0.1,0-0.1,0,0,0
			c0.6,0.2,1.2,0.3,1.7-0.1c0.4-0.3,0.5-0.8,0.1-1.2c-0.2-0.2-0.5-0.4-0.8-0.5c-0.1,0-0.2,0-0.3-0.1c-0.1,0-0.2,0-0.3,0
			c0,0-0.2,0-0.1,0c0.1,0-0.1,0-0.1,0c-0.1,0-0.1,0-0.2,0c0,0-0.1,0-0.1-0.1c0,0,0.1,0,0.1,0c0,0-0.1,0-0.1-0.1
			c-0.3-0.2-0.5-0.3-0.8-0.4c-0.1,0.5-0.1,1-0.2,1.5c0.1,0,0.3,0,0.4,0c0.4,0,0.7-0.3,0.7-0.7c0.1-0.4-0.2-0.7-0.5-0.8
			c-0.4-0.1-0.9-0.2-1.3-0.4c-0.1,0.5-0.3,1-0.4,1.4c1.4,0.4,2.8,0.6,4.2,0.5c0.4,0,0.8-0.3,0.8-0.8c0-0.4-0.3-0.8-0.8-0.8
			c-0.7,0-1.3,0-2-0.1c-0.2,0,0.1,0-0.1,0c-0.1,0-0.1,0-0.2,0c-0.2,0-0.4-0.1-0.5-0.1c-0.3-0.1-0.6-0.1-1-0.2
			c-0.4-0.1-0.8,0.1-0.9,0.5c-0.1,0.4,0.1,0.8,0.5,0.9c0.4,0.1,0.9,0.2,1.3,0.4c0.1-0.5,0.1-1,0.2-1.5c-0.1,0-0.3,0-0.4,0
			c-0.4,0-0.7,0.3-0.7,0.7c0,0.3,0.2,0.8,0.5,0.8c0.1,0,0.2,0.1,0,0c0.1,0,0.1,0.1,0.2,0.1c0.1,0.1,0.2,0.1,0.3,0.2
			c0.2,0.1,0.5,0.2,0.7,0.2c0.1,0,0.3,0,0.4,0.1c0.1,0,0.2,0.1,0,0c0,0,0.1,0,0.2,0c0,0,0.1,0,0.1,0c0,0,0,0,0,0c0.1,0,0.1,0,0,0
			c0,0,0.1,0.1,0.1,0.1c0.1,0,0,0,0,0c0,0,0,0,0.1,0.1c0-0.4,0.1-0.8,0.1-1.2c0,0-0.2,0.1-0.1,0c0,0,0,0,0,0c0,0,0.1,0,0.1,0
			c-0.1,0-0.1,0-0.1,0c-0.1,0-0.2,0,0,0c-0.2-0.1-0.5-0.1-0.7-0.2c-0.3,0-0.5,0.1-0.8,0.2c0,0-0.1,0-0.1,0c0.1,0,0.1,0,0,0
			c-0.1,0-0.1,0-0.2,0c0,0-0.1,0-0.1,0c0,0-0.2,0-0.1,0c-0.2,0-0.4,0-0.6,0.1c-0.2,0.1-0.3,0.3-0.3,0.4
			C393.8,66.9,394,67.4,394.4,67.5L394.4,67.5z"/>
	</g>
</g>
<g>
	<g>
		<path d="M394.6,68.8c0.9,0.1,1.9,0,2.8-0.2c0.5-0.1,0.7-0.9,0.3-1.2c-0.2-0.2-0.5-0.4-0.8-0.5c-0.3-0.1-0.6-0.1-0.9,0
			c-0.2,0-0.4,0.2-0.4,0.3c-0.1,0.2-0.1,0.4-0.1,0.6c0.1,0.2,0.2,0.4,0.3,0.4c0.2,0.1,0.4,0.1,0.6,0.1c0,0,0,0,0,0
			c-0.1,0-0.1,0-0.2,0c0.1,0,0.2,0,0.3,0c-0.1,0-0.1,0-0.2,0c0.1,0,0.1,0,0.2,0c0,0,0.1,0,0.1,0c0.1,0,0,0-0.1,0
			c0,0,0.1,0.1,0.1,0.1c0.1,0,0,0-0.1,0c0,0,0,0,0.1,0c0.1-0.4,0.2-0.8,0.3-1.2c-0.3,0.1-0.5,0.1-0.8,0.1c0.1,0,0.1,0,0.2,0
			c-0.6,0.1-1.2,0.1-1.8,0c-0.4,0-0.8,0.4-0.8,0.8C393.9,68.5,394.2,68.8,394.6,68.8L394.6,68.8z"/>
	</g>
</g>
<g>
	<g>
		<path d="M404,68c0.2,0,0.4,0,0.6,0c0.1,0,0.3-0.1,0.4-0.2c0.2-0.2,0.4-0.4,0.4-0.7c0-0.2-0.1-0.5-0.4-0.7
			c-0.3-0.1-0.6-0.3-0.8-0.4c0.1,0.5,0.1,0.9,0.2,1.4c0.3-0.2,0.7-0.4,1.1-0.6c0.3-0.2,0.4-0.5,0.4-0.8c0-0.1-0.1-0.2-0.1-0.3
			c-0.1-0.1-0.2-0.2-0.4-0.3c-0.3-0.1-0.7-0.3-1-0.4c0.1,0,0.1,0,0.2,0.1c-0.4-0.2-0.8-0.3-1.1-0.5c-0.1,0.5-0.2,0.9-0.4,1.4
			c0.5-0.1,1-0.1,1.6-0.1c0-0.5,0-1,0-1.5c-0.1,0-0.2,0-0.4,0c0,0.5,0,1,0,1.5c0.1,0,0.3,0,0.5,0c0.4,0,0.8-0.3,0.8-0.8
			c0-0.4-0.3-0.8-0.8-0.8c-0.1,0-0.3,0-0.5,0c-0.4,0-0.8,0.3-0.8,0.8c0,0.4,0.3,0.7,0.8,0.8c0.1,0,0.2,0,0.4,0
			c0.4,0,0.8-0.3,0.8-0.8c0-0.4-0.3-0.7-0.8-0.8c-0.5,0-1,0-1.6,0.1c-0.2,0-0.3,0-0.4,0.2c-0.1,0.1-0.2,0.2-0.3,0.4
			c-0.1,0.3,0.1,0.7,0.3,0.8c0.8,0.4,1.5,0.7,2.3,1c-0.1-0.5-0.1-0.9-0.2-1.4c-0.4,0.2-0.7,0.4-1.1,0.6c-0.3,0.2-0.4,0.4-0.4,0.8
			c0,0.3,0.2,0.5,0.5,0.6c0.1,0,0.2,0.1,0.3,0.1c-0.1,0-0.1-0.1-0.2-0.1c0.1,0.1,0.3,0.1,0.4,0.2c0-0.4,0-0.9,0-1.3
			c0,0-0.1,0-0.1,0.1c0.1,0,0.1-0.1,0.2-0.1c0,0-0.1,0-0.2,0c0.1,0,0.1,0,0.2,0c-0.1,0-0.1,0-0.2,0c0.1,0,0.1,0,0.2,0c0,0,0,0,0,0
			c-0.2,0-0.4,0-0.6,0.1c-0.2,0.1-0.3,0.3-0.3,0.5c0,0.2,0,0.4,0.1,0.6C403.6,67.8,403.8,68,404,68L404,68z"/>
	</g>
</g>
<g>
	<g>
		<path d="M393.8,68.9c1.4,0.3,2.8,0.2,4.2-0.1c0.4-0.1,0.6-0.5,0.5-0.8c-0.1-0.4-0.4-0.6-0.7-0.7c-1.6,0-3.2-0.1-4.8,0.3
			c-0.4,0.1-0.6,0.5-0.5,0.9c0.1,0.4,0.5,0.6,0.9,0.5c0.7-0.2,1.4-0.2,2.1-0.2c0.8,0,1.5,0,2.2,0c-0.1-0.5-0.1-1-0.2-1.5
			c-0.6,0.2-1.1,0.2-1.7,0.2c-0.3,0-0.6,0-0.9,0c-0.3,0-0.5,0-0.8-0.1c-0.4-0.1-0.8,0.1-0.9,0.5C393.2,68.3,393.4,68.8,393.8,68.9
			L393.8,68.9z"/>
	</g>
</g>
<g>
	<g>
		<path d="M388.9,69.3c2.9,0.4,5.8,0.5,8.7,0.5c2.5,0,5.2,0.2,7.5-1c0.8-0.5,0.1-1.8-0.8-1.3c-2.1,1.2-5,0.8-7.4,0.8
			c-2.7,0-5.4-0.1-8.1-0.5C387.9,67.7,388,69.2,388.9,69.3L388.9,69.3z"/>
	</g>
</g>
<g>
	<g>
		<path d="M394,66.2c4.2-0.3,8.5-1,12.6-0.1c0.9,0.2,1.3-1.2,0.4-1.4c-4.3-0.9-8.7-0.3-13,0C393.1,64.8,393.1,66.3,394,66.2
			L394,66.2z"/>
	</g>
</g>
<g>
	<g>
		<path d="M393.3,65.5c3.6-0.2,7.2-0.4,10.8-0.7c1-0.1,1-1.6,0-1.5c-3.6,0.3-7.2,0.5-10.8,0.7C392.4,64,392.4,65.5,393.3,65.5
			L393.3,65.5z"/>
	</g>
</g>
<g>
	<g>
		<path d="M390.8,65.9c-0.8,0-1.6,0.1-2.4,0.3c0.3,0.4,0.6,0.7,0.9,1.1c0.3-0.4,0.5-0.9,0.6-1.4c0.3-0.8-0.9-1.3-1.4-0.6
			c-0.1,0.2-0.2,0.5-0.3,0.7c-0.1,0.6,0.5,1.2,1.1,0.8c0.4-0.2,0.6-0.6,0.6-1c0-0.7-1.1-1.1-1.4-0.4c-0.4,0.9-0.7,2.6,0.7,2.8
			c1.4,0.3,2-1.3,1.9-2.4c-0.1-0.7-1-1.1-1.4-0.4c-0.4,0.7-1,3.1,0.6,2.8c1.4-0.2,0.9-2.3,0.4-3.1c-0.3-0.4-0.8-0.9-1.4-0.7
			c-0.5,0.1-0.8,0.7-0.7,1.2c0.3,1.3,2.4,1.4,2.8,0.2c-0.5-0.1-1-0.3-1.5-0.4c-0.2,1-0.4,2.8,1.1,2.8c1.4,0,1.7-1.7,1.6-2.8
			c0-0.7-1-1.1-1.4-0.4c-0.4,0.8-0.9,3.7,0.9,3.2c1.5-0.4,0.8-2.6,0.2-3.4c-0.5-0.6-1.2,0-1.3,0.5c-0.1,1.1,0.9,1.9,1.8,1.1
			c0.6-0.5,0-1.5-0.7-1.2c-1.2,0.4-1.2,2.1,0,2.5c0.5,0.2,1.1,0.1,1.5-0.2c0.5-0.4,0.5-1.2,0-1.6c-0.2,0.4-0.4,0.8-0.5,1.3
			c0.1,0,0.2,0,0.3,0c0.5,0,0.9-0.5,0.7-0.9c-0.2-0.5-0.6-0.8-1.1-0.6c-0.5,0.2-0.6,0.7-0.5,1.2c0.1,0.4,0.6,0.6,0.9,0.5
			c1.8-0.4,3.7-0.6,5.6-0.5c-0.2-0.2-0.5-0.5-0.8-0.8c-0.1,1,1,1.7,1.9,1.6c1-0.2,1.4-1.2,0.8-2.1c-0.5-0.8-1.9-1-2.3,0.1
			c-0.3,0.8,0.4,1.9,1.2,2.1c1.2,0.3,1.7-0.9,1.6-1.9c0-0.5-0.2-1.1-0.7-1.3c-0.4-0.2-0.9-0.1-1.2,0.3c-0.6,0.7-0.4,2.1,0.6,2.4
			c1,0.3,1.6-0.7,1.6-1.5c0-0.7-1-1-1.4-0.4c-1.1,2,2.7,3.2,2.8,1.2c0-0.9-1.1-1.3-1.6-0.7c-0.6,0.7-0.1,1.8,0.8,1.9
			c0.4,0.1,0.8-0.1,0.9-0.5c0.3-0.8-0.6-1.6-1.4-1.4c-0.8,0.2-0.9,1.3-0.2,1.7c0.4,0.3,1.2-0.1,1.1-0.7c-0.1-0.8-1-1.5-1.8-0.9
			c-0.7,0.6-0.4,1.7,0.5,1.9c0.5,0.1,1.2-0.4,0.9-0.9c-0.1-0.2-0.1-0.3-0.2-0.5c-0.4-0.5-1.2-0.5-1.4,0.2c-0.1,0.3-0.1,0.5,0,0.8
			c0.4-0.2,0.8-0.5,1.2-0.7c-0.1-0.1-0.1-0.2-0.2-0.2c-0.2,0.4-0.5,0.8-0.7,1.2c0.3,0.1,0.5,0,0.8-0.1c0.8-0.5,0.1-1.8-0.8-1.3
			c0,0-0.1,0-0.1,0.1c0.2,0,0.4,0,0.6-0.1c0,0-0.1,0-0.1,0c-0.7-0.1-1.3,0.7-0.7,1.2c0.1,0.1,0.1,0.2,0.2,0.2c0.5,0.6,1.4,0,1.2-0.7
			v0c-0.5,0.1-0.9,0.1-1.4,0.2c0,0,0.1,0.1,0.1,0.1c0.3-0.3,0.6-0.6,0.9-0.9c-0.2,0.1-0.4,0.3-0.6,0.4c0.4-0.2,0.8-0.4,1.1-0.7
			c0,0-0.1,0-0.1-0.1c0.1,0.2,0.2,0.3,0.3,0.5c0,0.1,0,0.1,0,0.2c-0.1,0.2-0.2,0.3-0.3,0.4c-0.1,0-0.3,0-0.4,0
			c0-0.2-0.1-0.4-0.1-0.6c0,0,0,0.1,0,0.1c0.3-0.2,0.6-0.3,0.9-0.5c-0.1,0.2-0.2,0.5-0.2,0.7c-0.2,0-0.4-0.1-0.6-0.1
			c0.4-0.5,0.4-0.8,0-0.9c-0.1-0.1-0.2-0.1-0.1,0.1c-0.5-0.1-0.9-0.2-1.4-0.4c0,0.2,0,0.2,0.3,0.2c-0.2,0-0.4,0-0.6-0.1
			c-0.1-0.1,0,0.6-0.1,0.6c0.1,0,0.2-0.1,0.3-0.1c0-0.1-0.1-0.1-0.1-0.2c-0.1,0.1-0.3,0.2-0.4,0.3c0.5-0.2,0-0.2,0-0.4
			c0-0.4-0.4-0.7-0.8-0.8c-2-0.1-4,0.1-6,0.6c0.3,0.2,0.6,0.3,0.9,0.5c0,0,0,0.1,0,0.1c-0.1,0.2-0.2,0.3-0.3,0.4c0,0,0.1,0,0.1,0
			c-0.2,0-0.4,0.1-0.6,0.1c0,0,0.1,0,0.1,0c-0.2-0.2-0.4-0.3-0.5-0.5c0,0,0,0,0,0.1c0.2-0.3,0.5-0.6,0.7-0.9c-0.1,0-0.2,0-0.3,0
			c-0.6,0-1,0.9-0.5,1.3c0.2-0.8,0.2-0.9,0-0.3c-0.2-0.4-0.5-0.8-0.7-1.2c0.5,0.3,0.8,0.3,0.7,0c-0.4,0.2-0.9,0.3-1.3,0.5
			c0.1,0.2,0.2,0.4,0.3,0.6c0,0.1,0,0.1,0,0.2c-0.1,0.3,0.1,0.4,0.5,0.1c0.1,0.2,0.2,0.3,0.3,0.4c-0.2-0.5-0.1-1,0.2-1.4
			c-0.5-0.1-0.9-0.2-1.4-0.4c0,0.2,0,0.4,0,0.7c0,0.1-0.2,0.5-0.2,0.6c0.1,0.1,0.2,0.1,0.3,0.2c0-0.1,0-0.3,0-0.4
			c0-0.2,0.1-0.5,0.1-0.7c0.2-0.9-1.2-1.3-1.5-0.4c0.2-0.5,0.1-0.3,0,0.4c-0.2,0-0.4,0.1-0.6,0.1c0.2,0,0.6,0.9,0.4,1.1
			c0.2-0.1,0.4-0.2,0.5-0.2c0,0-0.1,0-0.1,0c0.2,0.1,0.4,0.2,0.6,0.4c-0.1-0.2,0.2-0.8,0.2-0.9c-0.5-0.1-0.9-0.2-1.4-0.4
			c0,0.2,0.1,0.3,0,0.5c0,0.2-0.2,0.4,0,0.5c0.2,0.1,0.1,0,0.1-0.2c0.1-0.2,0.1-0.3,0.1-0.5c-0.5-0.1-0.9-0.2-1.4-0.4
			c0-0.1,0.1-0.2,0.1-0.3c0.4,0.3,0.7,0.6,1.1,0.8c0-0.1,0.1-0.3,0.1-0.4c-0.5-0.2-0.9-0.4-1.4-0.6c-0.1,0.4-0.3,0.7-0.5,1
			c-0.4,0.6,0.2,1.3,0.9,1.1c0.7-0.2,1.3-0.2,2-0.2C391.7,67.4,391.7,65.9,390.8,65.9L390.8,65.9z"/>
	</g>
</g>
<circle class="st16" cx="391.8" cy="66.9" r="1.5"/>
<circle class="st16" cx="401.8" cy="66.9" r="1.5"/>
<circle class="st17" cx="381.9" cy="92.4" r="4.8"/>
<circle class="st18" cx="379.5" cy="91" r="0.6"/>
<circle class="st18" cx="384.3" cy="91" r="0.6"/>
<g>
	<g>
		<path d="M378.5,94.3c0.5,1.4,1.9,2,3.3,2.1c1.6,0.1,2.9-0.8,3.7-2c0.4-0.6-0.6-1.2-1-0.6c-0.5,0.8-1.3,1.3-2.2,1.4
			c-0.9,0.1-2.3-0.2-2.6-1.2C379.4,93.3,378.2,93.6,378.5,94.3L378.5,94.3z"/>
	</g>
</g>
<g>
	<g>
		<path d="M379.6,89.2c1.2,0.6,2.4,1.2,3.6,1.9c0.7,0.4,1.3-0.7,0.6-1c-1.2-0.7-2.4-1.3-3.6-1.9C379.5,87.8,378.9,88.8,379.6,89.2
			L379.6,89.2z"/>
	</g>
</g>
<g>
	<g>
		<path d="M384.5,91.7c0.4,0.4,0.9,0.8,1.4,1.1c0.3,0.2,0.7,0.1,0.8-0.2c0.2-0.3,0.1-0.6-0.2-0.8c-0.4-0.3-0.8-0.6-1.1-0.9
			C384.7,90.3,383.9,91.2,384.5,91.7L384.5,91.7z"/>
	</g>
</g>
<text transform="matrix(1.1084 0 0 1 385.5288 105.5472)" class="st19 st20">HACKER</text>
<g>
	<g>
		<path class="st21" d="M301.5,89.5c18.7-1.3,37.4-0.4,55.9,2.9c2.6,0.5,5.4-2.9,2.9-5c-5.1-4.3-10.2-8.6-15.4-12.9
			c-1.4,1.4-2.8,2.8-4.2,4.2c4.8,4,9.7,8,14.5,12c0.2-1.6,0.4-3.1,0.6-4.7c-7.1,3.5-14.4,6.1-22,8c-3.7,0.9-2.2,6.7,1.6,5.8
			c8.1-2,15.9-4.9,23.4-8.6c1.6-0.8,2-3.5,0.6-4.7c-4.8-4-9.7-8-14.5-12c-3-2.4-7.2,1.8-4.2,4.2c5.1,4.3,10.2,8.6,15.4,12.9
			c1-1.7,1.9-3.3,2.9-5c-19-3.4-38.2-4.5-57.5-3.1C297.6,83.8,297.6,89.8,301.5,89.5L301.5,89.5z"/>
	</g>
</g>
<g>
	<g>
		<path class="st3" d="M57.4,116.1c7.7,0,7.7-12,0-12C49.7,104.1,49.7,116.1,57.4,116.1L57.4,116.1z"/>
	</g>
</g>
<g>
	<g>
		<path class="st3" d="M60.2,114c7.7,0,7.7-12,0-12C52.5,102,52.5,114,60.2,114L60.2,114z"/>
	</g>
</g>
</svg>
