<?xml version="1.0" encoding="utf-8"?>
<!-- Generator: Adobe Illustrator 25.4.1, SVG Export Plug-In . SVG Version: 6.00 Build 0)  -->
<svg version="1.1" id="Слой_1" xmlns="http://www.w3.org/2000/svg" xmlns:xlink="http://www.w3.org/1999/xlink" x="0px" y="0px"
	 viewBox="0 0 462 202" style="enable-background:new 0 0 462 202;" xml:space="preserve">
<style type="text/css">
	.st0{fill:#004100;}
	.st1{fill:#AAACFF;}
	.st2{fill:#FFFFE4;}
	.st3{fill:#272A00;}
	.st4{fill:#2A4D5E;}
	.st5{fill:#FAE0C1;}
	.st6{fill:none;stroke:#000000;stroke-width:2;stroke-miterlimit:10;}
	.st7{fill:#007F64;stroke:#080099;stroke-miterlimit:10;}
	.st8{fill:#FAE0C1;stroke:#000000;stroke-width:0.5;stroke-miterlimit:10;}
	.st9{fill:#E6C92D;}
	.st10{stroke:#000000;stroke-miterlimit:10;}
	.st11{font-family:'HACKED';}
	.st12{font-size:8.8595px;}
	.st13{fill:#080099;}
	.st14{fill:#FFD1C9;}
	.st15{font-family:'MyriadPro-Regular';}
	.st16{font-size:12px;}
</style>
<g id="Слой_3">
</g>
<path class="st0" d="M203.8,104.2h-78.6c-1.5,0-2.7-1.2-2.7-2.7V62.9c0-1.5,1.2-2.7,2.7-2.7h78.6c1.5,0,2.7,1.2,2.7,2.7v38.6
	C206.5,103,205.3,104.2,203.8,104.2z"/>
<rect x="124.5" y="62.2" class="st1" width="80" height="40"/>
<rect x="161" y="104.2" class="st0" width="7" height="8"/>
<rect x="157" y="111.2" class="st0" width="15" height="2"/>
<path class="st0" d="M178.9,149.1h-54.2c-2.3,0-4.1-1.8-4.1-4.1v-22.1c0-2.3,1.8-4.1,4.1-4.1h54.2c2.3,0,4.1,1.8,4.1,4.1V145
	C183,147.3,181.2,149.1,178.9,149.1z"/>
<path class="st2" d="M164,147.3h-17.2c-0.7,0-1.2-0.5-1.2-1.2v-2.9c0-0.7,0.5-1.2,1.2-1.2H164c0.7,0,1.2,0.5,1.2,1.2v2.9
	C165.2,146.8,164.6,147.3,164,147.3z"/>
<path class="st2" d="M135.5,140.2h-10.1c-0.7,0-1.2-0.5-1.2-1.2v-3c0-0.7,0.5-1.2,1.2-1.2h10.1c0.7,0,1.2,0.5,1.2,1.2v3
	C136.7,139.7,136.1,140.2,135.5,140.2z"/>
<path class="st2" d="M178.2,140.2h-10.1c-0.7,0-1.2-0.5-1.2-1.2v-3c0-0.7,0.5-1.2,1.2-1.2h10.1c0.7,0,1.2,0.5,1.2,1.2v3
	C179.4,139.7,178.9,140.2,178.2,140.2z"/>
<circle class="st2" cx="126.9" cy="144.6" r="2.7"/>
<circle class="st2" cx="134" cy="144.6" r="2.7"/>
<circle class="st2" cx="141.1" cy="144.6" r="2.7"/>
<circle class="st2" cx="148.3" cy="137.5" r="2.7"/>
<circle class="st2" cx="155.4" cy="137.5" r="2.7"/>
<circle class="st2" cx="162.5" cy="137.5" r="2.7"/>
<circle class="st2" cx="169.6" cy="144.6" r="2.7"/>
<circle class="st2" cx="176.8" cy="144.6" r="2.7"/>
<circle class="st2" cx="126.9" cy="130.4" r="2.7"/>
<circle class="st2" cx="134" cy="130.4" r="2.7"/>
<circle class="st2" cx="141.1" cy="130.4" r="2.7"/>
<circle class="st2" cx="148.3" cy="130.4" r="2.7"/>
<circle class="st2" cx="155.4" cy="130.4" r="2.7"/>
<circle class="st2" cx="162.5" cy="130.4" r="2.7"/>
<circle class="st2" cx="169.6" cy="130.4" r="2.7"/>
<circle class="st2" cx="176.8" cy="130.4" r="2.7"/>
<circle class="st2" cx="126.8" cy="124" r="2.7"/>
<circle class="st2" cx="133.9" cy="124" r="2.7"/>
<circle class="st2" cx="141" cy="124" r="2.7"/>
<circle class="st2" cx="148.1" cy="124" r="2.7"/>
<circle class="st2" cx="155.3" cy="124" r="2.7"/>
<circle class="st2" cx="162.4" cy="124" r="2.7"/>
<circle class="st2" cx="169.5" cy="124" r="2.7"/>
<circle class="st2" cx="176.7" cy="124" r="2.7"/>
<circle class="st2" cx="141.1" cy="137.5" r="2.7"/>
<ellipse class="st3" cx="196" cy="129.2" rx="5.5" ry="8"/>
<ellipse class="st2" cx="196" cy="124.2" rx="0.5" ry="2"/>
<g id="Слой_2_00000133521054083138404290000006745651768255820445_">
	<g>
		<g>
			<path class="st4" d="M308.7,50c0.1,0,0.1,0.1,0.2,0.2C308.8,50.1,308.7,50,308.7,50c1.2,1,2.4,2.2,3.5,3.5
				c0.2,0.3,0.7,0.4,1.1,0.4c0.4,0,0.8-0.2,1.1-0.4c0.3-0.3,0.5-0.7,0.4-1.1c0-0.1,0-0.3-0.1-0.4c-0.1-0.2-0.2-0.5-0.4-0.7
				c-1.2-1.5-2.6-2.8-4.1-3.9c-0.3-0.2-0.8-0.2-1.2-0.1c-0.4,0.1-0.7,0.4-0.9,0.7c-0.2,0.4-0.3,0.8-0.1,1.2c0,0.1,0.1,0.2,0.1,0.4
				C308.3,49.7,308.5,49.9,308.7,50L308.7,50z"/>
		</g>
	</g>
	<g>
		<g>
			<path class="st4" d="M303.4,55.6c-1.8,1.8-3.4,3.9-4.6,6.2c0.9,0.1,1.8,0.2,2.7,0.4c-0.2-1,0.2-1.9,0.6-2.8
				c0.4-0.9,0.8-1.8,1.3-2.7c1-1.8,2.9-2.6,4.5-3.9c2.4-2,6-6.2,9.5-4.1c1.7,1,3.2-1.6,1.5-2.6c-2.2-1.3-4.8-1-7,0
				c-2.3,1-4,2.9-5.9,4.5c-1,0.8-2.1,1.4-3,2.2c-1,0.8-1.8,1.8-2.4,2.9c-1.2,2.2-2.4,4.8-1.9,7.4c0.2,1.3,2.2,1.4,2.7,0.4
				c1.1-2.1,2.5-3.9,4.1-5.6C306.9,56.4,304.8,54.3,303.4,55.6L303.4,55.6z"/>
		</g>
	</g>
	<g>
		<g>
			<path class="st4" d="M302,63.6c4.1-1.7,8.3-2.9,12.7-3.2c2.1-0.2,4.3-0.1,6.4,0.2c1,0.2,2.1,0.4,3.1,0.6c0.8,0.2,2.6,0.5,3.1,1.2
				c1,1.7,3.5,0.2,2.6-1.5c-0.8-1.5-1.6-3-2.3-4.5c-0.6-1.4-1.1-3-1.8-4.4c-1.3-2.6-4.1-4.8-6.9-5.5c-3.4-0.8-5.9,1.6-8.5,3.3
				c-2.7,1.9-5.8,3.6-8.2,6c0.8,0.6,1.6,1.2,2.4,1.8c0.9-1.4,2-2.7,3.3-3.7c-0.7-0.6-1.5-1.1-2.2-1.7c-1,2.8-3.2,5-4.3,7.7
				c-0.7,1.7,1.8,2.4,2.7,1.2c1.7-2.5,3.4-4.9,5.2-7.4c-0.9-0.4-1.8-0.8-2.7-1.2c-0.4,1.7-0.9,3.3-1.7,4.9c-0.8,1.7,1.6,3.2,2.6,1.5
				c0.8-1.4,1.4-2.9,1.9-4.4c0.5-1.6-1.9-2.7-2.7-1.2c-0.8,1.5-1.5,3.1-2.1,4.8c-0.7,1.8,2.2,2.6,2.9,0.8c0.6-1.6,1.3-3.2,1.9-4.7
				c-1-0.3-1.9-0.5-2.9-0.8c-0.5,1.6-0.8,3.3-1.1,5c-0.3,1.9,2.4,2.7,2.9,0.8c0.5-1.8,1-3.5,1.8-5.2c-0.9-0.4-1.8-0.8-2.7-1.2
				c-0.4,2.1-0.7,4.2-1,6.4c-0.2,1.3,1.4,2.7,2.5,1.5c1.8-1.9,1.5-4.4,2.6-6.6c-0.9-0.4-1.8-0.8-2.7-1.2c-0.3,1.1-0.6,2.2-0.9,3.2
				c-0.5,1.9,2.2,2.5,2.9,0.8c0.5-1.3,0.9-2.6,1.1-3.9c-1-0.1-2-0.3-3-0.4c-0.1,1.8-0.2,3.6-0.2,5.4c-0.1,1.5-0.4,2.9,0.7,4.1
				c0.3,0.4,1,0.6,1.5,0.4c1.4-0.6,2-1.7,2.3-3.2c0.4-1.9,0.8-3.8,1-5.7c0.3-1.9-2.4-2.7-2.9-0.8c-0.1,0.5-0.2,0.9-0.3,1.4
				c-0.5,1.9,2.4,2.7,2.9,0.8c0.1-0.5,0.2-0.9,0.3-1.4c-1-0.3-1.9-0.5-2.9-0.8c-0.2,1.3-0.4,2.6-0.7,3.9c-0.1,0.4-0.3,2.8-0.6,2.9
				c0.5,0.1,1,0.3,1.5,0.4c0.2,0.3,0,0.3,0.1,0c0.1-0.3,0-0.7,0-1c0-0.7,0.1-1.5,0.1-2.2c0.1-1.4,0.1-2.8,0.2-4.2
				c0.1-1.7-2.6-2.1-2.9-0.4c-0.2,1.4-0.6,2.6-1.1,3.9c1,0.3,1.9,0.5,2.9,0.8c0.3-1.1,0.6-2.2,0.9-3.2c0.4-1.6-1.9-2.7-2.7-1.2
				c-0.5,1-0.8,2-1.1,3.1c-0.2,1-0.4,2.1-1.1,2.8c0.8,0.5,1.7,1,2.5,1.5c0.3-2.1,0.6-4.2,1-6.4c0.3-1.5-2-2.8-2.7-1.2
				c-0.9,1.9-1.6,3.9-2.1,5.9c1,0.3,1.9,0.5,2.9,0.8c0.3-1.7,0.6-3.3,1.1-5c0.5-1.9-2.2-2.5-2.9-0.8c-0.6,1.6-1.3,3.2-1.9,4.7
				c1,0.3,1.9,0.5,2.9,0.8c0.5-1.4,1.1-2.8,1.8-4.1c-0.9-0.4-1.8-0.8-2.7-1.2c-0.4,1.3-0.9,2.5-1.6,3.7c0.9,0.5,1.7,1,2.6,1.5
				c0.9-1.8,1.5-3.7,2-5.6c0.4-1.7-1.8-2.5-2.7-1.2c-1.7,2.5-3.4,4.9-5.2,7.4c0.9,0.4,1.8,0.8,2.7,1.2c1.1-2.7,3.3-4.8,4.3-7.7
				c0.4-1.2-1.2-2.5-2.2-1.7c-1.8,1.3-3.2,2.9-4.4,4.8c-0.9,1.5,1.1,3,2.4,1.8c2-2,4.5-3.4,6.8-4.9c1.3-0.9,2.5-1.7,3.8-2.6
				c1.2-0.8,2.2-1.4,3.6-0.9c2.5,0.8,4.2,2.7,5.1,5.1c1,2.7,2.1,5.3,3.6,7.8c0.9-0.5,1.7-1,2.6-1.5c-1.1-1.9-4.1-2.5-6.2-2.9
				c-2.5-0.5-5.1-0.8-7.6-0.7c-5.1,0.2-10.1,1.5-14.9,3.4C299.4,61.4,300.2,64.3,302,63.6L302,63.6z"/>
		</g>
	</g>
	<g>
		<g>
			<path class="st4" d="M314.7,50.2c-0.3,1.9-0.6,3.7-1.1,5.6c1,0.1,2,0.3,2.9,0.4c0-1.7,0-3.5,0-5.2c0-0.7-0.5-1.3-1.1-1.5
				c-0.6-0.2-1.4,0.1-1.7,0.7c-0.9,1.9-1.5,3.9-1.8,6.1c1,0.1,2,0.3,3,0.4c0.1-2,0.1-3.9,0.2-5.9c0.1-1.7-2.5-2-2.9-0.4
				c-0.3,1.3-0.5,2.7-0.5,4.1c0,0.7,0,1.4,0.2,2.1c0.4,0.8,1.2,1.4,2.2,1.2c1.5-0.4,1.6-2.3,1.9-3.6c0.3-1.4,0.6-2.7,0.9-4
				c-1,0-1.9,0-2.9,0c0.2,1.1,0,2.4-0.1,3.5c-0.1,1.3-0.1,2.6,0.3,3.9c0.3,0.9,1.4,1.4,2.2,0.9c1.3-0.8,1.4-2.2,1.5-3.6
				c0.1-1.4,0.1-2.7,0.1-4.1c0-0.8-0.7-1.5-1.5-1.5c-0.9,0-1.5,0.7-1.5,1.5c-0.1,2.6-0.2,5.3,1.1,7.6c0.3,0.6,1.1,0.9,1.7,0.7
				c0.7-0.2,1-0.8,1.1-1.5c0.3-2.4,0.4-4.8,0.3-7.2c0-0.8-0.7-1.5-1.5-1.5c-0.8,0-1.5,0.7-1.5,1.5c0.1,2.5,0.3,5,1.4,7.3
				c0.5,1.1,2,0.8,2.6,0c0.8-1.1,0.6-2.7,0.5-4c-0.1-1.5-0.3-2.9-0.6-4.3c-0.1-0.8-1.1-1.2-1.9-1c-0.9,0.2-1.2,1-1,1.9
				c0.3,2.5,1.1,4.9,2.2,7.1c0.6,1.2,2.4,0.8,2.7-0.4c0.7-2.3,0-4.6-0.7-6.8c-0.2-0.6-0.8-1.1-1.4-1.1c-0.6,0-1.3,0.5-1.5,1.1
				c-0.6,3-0.2,6,1.1,8.7c0.4,0.9,1.7,0.9,2.4,0.3c1-0.9,0.9-2.4,0.9-3.6c0-1.3,0-2.7,0.1-4c-1,0.1-2,0.3-3,0.4
				c0.9,2.4,1.9,4.7,2.8,7.1c0.3,0.8,1,1.3,1.9,1c0.8-0.2,1.2-1,1.1-1.8c-0.2-0.9-0.5-1.9-0.7-2.8c-0.2-0.8-1.1-1.3-1.9-1
				c-0.8,0.2-1.2,1-1,1.9c0.2,0.9,0.4,1.9,0.7,2.8c1-0.3,1.9-0.5,2.9-0.8c-0.9-2.4-1.9-4.7-2.8-7c-0.3-0.7-0.9-1.2-1.6-1.1
				c-0.7,0.1-1.3,0.7-1.3,1.5c0,1.1,0,2.2,0,3.4c0,0.6,0,1.1,0,1.7c0,0.1,0,0.6,0,0.4c0,0.2,0,0.2,0,0.1c0.1-0.1,0.1-0.1,0,0
				c0.8,0.1,1.6,0.2,2.4,0.3c-1-2-1.2-4.3-0.8-6.4c-1,0-1.9,0-2.9,0c0.6,1.7,1.2,3.5,0.7,5.2c0.9-0.1,1.8-0.2,2.7-0.4
				c-1-2-1.6-4.2-1.9-6.4c-1,0.3-1.9,0.5-2.9,0.8c0.2,1.1,0.4,2.2,0.5,3.3c0.1,0.5,0.1,1.1,0.1,1.7c0,0.6,0.1,0.7-0.2,1
				c0.9,0,1.7,0,2.6,0c-0.9-1.8-0.9-3.8-0.9-5.8c-1,0-2,0-3,0c0.1,2.4,0,4.8-0.3,7.2c0.9-0.2,1.9-0.5,2.8-0.8c-1-1.8-0.8-4-0.7-6.1
				c-1,0-2,0-3,0c0,1.1,0,2.2,0,3.2c0,0.5-0.1,1-0.1,1.6c0,0.2,0,0.2,0,0c0,0.1,0,0.2-0.1,0.3c-0.1,0.3,0,0,0.1-0.1
				c0.7,0.3,1.5,0.6,2.2,0.9c-0.3-1.1-0.2-2.3-0.1-3.5c0.1-1.3,0.2-2.6,0-3.9c-0.1-0.6-0.9-1.1-1.4-1.1c-0.6,0-1.3,0.5-1.5,1.1
				c-0.2,1.1-0.5,2.1-0.7,3.2c-0.1,0.5-0.2,1-0.4,1.5c-0.1,0.3-0.1,0.5-0.2,0.8c0,0.1-0.1,0.3-0.1,0.4c-0.1,0.2-0.1,0.3,0,0.1
				c0.2-0.2,0.4-0.4,0.5-0.5c0.1,0,0.1,0,0.1-0.1c0.3,0,0.5,0,0.8,0c0.4,0.1,0.6,0.4,0.6,0.7c0-0.1,0-0.1,0-0.2c0-0.2,0-0.4,0-0.6
				c0-0.4,0-0.8,0.1-1.2c0.1-0.8,0.2-1.5,0.4-2.3c-1-0.1-2-0.3-3-0.4c-0.1,2-0.1,3.9-0.2,5.9c0,0.7,0.6,1.4,1.3,1.5
				c0.7,0.1,1.5-0.3,1.6-1.1c0.3-1.8,0.8-3.7,1.5-5.3c-0.9-0.2-1.9-0.5-2.8-0.8c0,1.7,0,3.5,0,5.2c0,1.7,2.5,2,3,0.4
				c0.5-1.8,0.9-3.7,1.1-5.5c0.1-0.8-0.2-1.6-1-1.9C315.8,48.9,314.8,49.3,314.7,50.2L314.7,50.2z"/>
		</g>
	</g>
	<g>
		<g>
			<path class="st4" d="M309.7,88.6c-1.4,0.1-3,0.5-3.4,2.1c-0.2,0.8,0.2,1.6,1,1.9c0.3,0.1,0.6,0.2,1,0.3c0.6,0.1,1.3,0.2,2,0.1
				c0.7-0.1,1.4-0.2,2.1-0.4c0.7-0.2,1.4-0.5,2-0.9c0.5-0.4,0.7-1.1,0.6-1.8c-0.1-0.5-0.5-0.9-0.9-1.2c-0.5-0.3-1.2-0.5-1.8-0.6
				c-1.4-0.3-2.9-0.4-4.4-0.4c-0.8,0-1.5,0.7-1.5,1.5c0,0.8,0.7,1.5,1.5,1.5c1,0,1.9,0,2.9,0.1c0.3,0-0.3-0.1,0,0
				c0.1,0,0.2,0,0.4,0.1c0.2,0,0.4,0.1,0.6,0.1c0.2,0.1,0.5,0.1,0.7,0.2c0,0,0.5,0.1,0.2,0.1c-0.1-0.1-0.1-0.1,0,0
				c0.3,0.2,0.1,0-0.5-0.6c-0.1-0.6,0.1-1,0.5-1.3c0,0,0,0-0.1,0c-0.1,0-0.2,0.2-0.3,0.2c0.2-0.1,0.2-0.1,0.1,0
				c-0.1,0-0.1,0-0.1,0.1c-0.1,0-0.2,0.1-0.3,0.1c-0.4,0.2-0.9,0.3-1.3,0.4c-0.1,0-0.1,0-0.2,0c-0.2,0-0.1,0,0.1,0c0,0-0.3,0-0.3,0
				c-0.2,0-0.5,0-0.7,0c-0.1,0-0.2,0-0.3,0c0.2,0,0.3,0,0.1,0c-0.1,0-0.1,0-0.2,0c-0.1,0-0.2,0-0.3-0.1c-0.1,0-0.1,0-0.2-0.1
				c-0.3-0.1-0.1,0,0.4,0.2c0.1,0.2,0.3,0.4,0.4,0.7c0,0,0-0.1,0-0.1c0,0.3,0,0.5,0,0.8c0-0.3-0.2,0.3,0,0.1
				c-0.2,0.2-0.2,0.2-0.1,0.1c0,0,0,0,0-0.1c-0.2,0.2-0.2,0.2-0.1,0.1c0,0,0,0,0.1,0c0.2-0.2-0.4,0.1,0,0c0.1-0.1,0.3-0.1,0.5-0.1
				s-0.4,0.1-0.1,0c0.1,0,0.2,0,0.3,0c0.8-0.1,1.5-0.7,1.5-1.5C311.1,89.3,310.5,88.6,309.7,88.6L309.7,88.6z"/>
		</g>
	</g>
	<g>
		<g>
			<path class="st4" d="M304.3,85.1c-0.1,2.5,0.7,5.3,2.9,6.7c1,0.7,2.4,1,3.5,0.3c1.3-0.9,1-2.5,0.4-3.7c-0.6-1.1-1.6-2.4-2.9-2.6
				c-1.6-0.2-2.4,1.2-2.7,2.5c-0.4,1.4-0.2,3,0.9,4c0.9,0.9,2.4,1.2,3.6,0.5c2.2-1.2,3.5-4.9,1.4-6.7c-2.2-1.8-5.8,1.1-5.3,3.6
				c0.6,3,4.9,2,6-0.1c1.5-2.8-1.6-5.3-4-5.9c-1.4-0.4-3.4,0-3.7,1.6c-0.3,1.5,1.3,2.7,2.7,2c3.2-1.5-0.7-6.2-2.6-7.1
				c-0.4,0.9-0.8,1.8-1.2,2.7c2.4,0.6,3.2-2,2.1-3.7c-0.4-0.6-1-0.9-1.7-0.7c-1.3,0.3-2.1,1.8-1.5,3.1c0.7,1.4,2.5,1.4,3.4,0.3
				c0.4-0.5,0.6-1.1,0.4-1.7c0-0.2-0.8-1.3-0.9-1.2c-0.2,0.7,2.9,1.9,3.5,2.1c1.5,0.6,3.1,0.8,4.7,1.1c2,0.3,4,0.5,6,0.1
				c3.1-0.7,6-1.4,9.2-0.2c3.1,1.2,4.6,4,5.7,6.9c0.5,1.4,1,2.8,1.6,4.2c0.3,0.8,0.7,1.6,0.8,2.5c0.1,1.1-0.3,2.1-0.9,3
				c-0.3,0.5-0.6,1.3-1.1,1.7c-0.6,0.5-1.5,0.5-2.3,0.6c-2.1,0.2-4.2,0.5-6.4,0.6c-3.9,0.2-7.9-0.3-11.8-0.1
				c-4.4,0.2-8.7,0.6-13.1,0.1c-2.1-0.2-4.1-0.5-6.2-0.9c-0.9-0.2-1.2-0.4-1.6-1.3c-0.4-1-0.8-2.1-1.2-3.1c-0.7-1.8-3.6-1-2.9,0.8
				c0.6,1.6,1.1,3.6,2.2,5c1.1,1.4,2.9,1.5,4.5,1.8c4.1,0.6,8.3,1.2,12.4,1c4.3-0.2,8.5-0.6,12.8-0.3c4.1,0.2,8.3-0.1,12.4-0.6
				c1.8-0.2,3.2-0.9,4.2-2.4c1-1.5,1.9-3.3,2-5.1c0.1-1.9-0.8-3.6-1.4-5.3c-0.6-1.6-1.1-3.3-1.8-4.9c-1.4-3.2-3.5-5.6-6.8-6.9
				c-3.2-1.2-6.6-1-9.9-0.2c-2.3,0.6-4.4,0.4-6.8,0c-2-0.4-4-0.9-5.6-2c-1.4-0.9-3.1-1.4-4.4,0c-0.5,0.6-0.8,1.3-0.8,2.1
				c0,1.1,0.9,2.7,2.3,2.3c-0.6-0.2-1.1-0.5-1.7-0.7c0.3,0.7,0.8,0.5,1.3-0.7c-1.6-0.4-2.7,2-1.2,2.7c0.6,0.3,1,0.7,1.5,1.3
				c0.2,0.2,0.3,0.5,0.5,0.8c0.1,0.1,0.1,0.2,0.2,0.3c0.3,0.8,1,0.7,2-0.3c0,0.4,0.1,0.8,0.1,1.2c-0.4,0.3-0.4,0.5,0,0.5
				c0.2,0,0.4,0.1,0.6,0.2c0.4,0.2,0.9,0.4,1.2,0.8c0.2,0.2,0.3,0.3,0.3,0.6c0,0.2-0.2,0.3-0.3,0.3c-0.1,0.1-0.3,0.1-0.5,0.1
				c0.3,0.6,0.5,0.7,0.7,0.3c0.1-0.2,0.3-0.3,0.5-0.4c-0.4-0.2-0.5-0.2-0.3,0.1c-0.3,0.3-0.4,1-0.7,1.3c-0.3,0.4-0.2,0.5-0.4,0.1
				c-0.1-0.2,0-1.4,0.2-1.5c-0.4,0-0.8,0.1-1.2,0.2c0.3,0,0.6,0.3,0.8,0.6c0.1,0.1,0.4,0.9,0.5,0.9c0.2-0.2,0.4-0.5,0.7-0.7
				c-0.1-0.1-0.2-0.1-0.4-0.2c-0.1-0.2-0.5-0.4-0.6-0.6c-0.8-1-0.9-2.4-0.9-3.6C307.4,83.2,304.4,83.2,304.3,85.1L304.3,85.1z"/>
		</g>
	</g>
	<g>
		<g>
			<path class="st4" d="M291.4,96.7c-0.2-1.2-0.3-2.2,0.6-3.1c0.9-0.8,1.9-1.4,2.7-2.3c1.6-1.8,2.6-4,3.5-6.1
				c0.5-1.2-0.3-2.5-1.7-2.2c-3,0.7-4.3,4.5-5.2,7c1,0.1,2,0.3,2.9,0.4c-0.3-2.5,1.9-4.1,3.4-5.7c1.5-1.6,3-3.8,5.4-3.6
				c-0.5-0.6-1-1.3-1.4-1.9c-0.5,2.1-1.1,4.2-1.6,6.3c1,0.1,2,0.3,2.9,0.4c-0.1-1.5-0.3-2.9-0.6-4.3c-0.4-1.6-2.4-1.2-2.9,0
				c-0.9,2.1-1.5,4.3-1.9,6.6c1,0.1,2,0.3,3,0.4c0.1-2.3,0.1-4.6,0-6.9c-0.1-1.7-2.4-2-2.9-0.4c-0.9,2.7-1.4,5.4-1.7,8.2
				c-0.1,1.7,2.5,2,2.9,0.4c0.3-1.3,0.5-2.6,0.6-3.9c0.1-1.5-2.1-2-2.8-0.8c-0.6,1.1-1.2,2.2-1.6,3.4c-0.2,0.5-0.3,1.1-0.5,1.6
				c-0.1,0.3-0.1,0.7-0.2,1c0,0.1,0,0.3-0.1,0.4c-0.1,0.3,0,0.3,0.3-0.1c0.4-0.1,0.8-0.1,1.2-0.2c-3-0.8-4.4,3.5-4.9,5.8
				c1,0,1.9,0,2.9,0c-0.4-1.1-0.9-2.2-1.3-3.4c-0.5-1.3-1.9-1.4-2.7-0.4c-1.3,1.7,0.9,4.3,1.7,5.8c0.5,0.8,0.9,1.9,1.5,2.6
				c0.7,0.8,1.7,0.7,2.7,0.7c5,0.2,10,0.2,15,0.2c5,0,10-0.2,15-0.3c3.5-0.1,10.4,0.6,10.7-4.4c0-0.7-0.5-1.3-1.1-1.4
				c-5-1.4-10.2-0.6-15.3-0.3c-5.3,0.2-10.7,0.1-16-0.1c-1.2-0.1-2.5-0.1-3.7-0.2c-0.7,0-1.3-0.1-2-0.1c-0.7,0-1.8,0.1-2.4-0.2
				c-0.8-0.4-1.1-1.8-1.1-2.6c-0.1-1.2,0.4-1.6,1.6-1.7c2.5,0,3.9,1.9,5.6,3.3s3.7,2.5,5.8,3.3c2,0.8,4.2,1.2,6.3,1.2
				c2,0.1,4.4-0.1,6.1-1.2c3.9-2.6,1.2-7.8-2.2-9.3c-4.2-1.9-8.6-0.2-12.3,2.1c-0.9,0.5-1.7,1.2-2.7,1.6c-0.3,0.1-1,0.4-1.4,0.2
				c-0.4-0.2-0.4-0.9-0.4-1.3c0-0.9,0.4-1.8,0.9-2.6c0.3-0.4,0.6-0.7,1-1c0.5-0.3,0.7-0.5,1.1-0.2c0.8,0.6,1.4,1.9,1.9,2.8
				c0.6,1,1.1,1.9,1.9,2.8c1.5,1.9,3.8,3.2,5.8,1.1c1.4-1.5,2.9-4.3,2.3-6.3c-0.7-2.5-3.4-2.5-5.4-1.8c-1.8,0.7-1,3.6,0.8,2.9
				c0.4-0.1,0.8-0.3,1.2-0.3c0.5,0,0.4-0.1,0.5,0.3c0,0.9-0.8,2.2-1.3,2.8c-0.4,0.6-0.4,0.6-0.9,0.2c-0.4-0.4-0.7-0.7-1-1.1
				c-0.6-0.9-1.1-1.8-1.7-2.7c-0.9-1.6-2.2-3.8-4.2-3.8c-1.9,0-3.6,1.6-4.6,3c-1.1,1.6-1.6,3.9-1,5.8c0.6,2.1,2.8,2.8,4.8,2.3
				c2.1-0.5,3.9-2.2,5.8-3.2c1.9-1,4-1.7,6.1-1.3c1.7,0.3,3.8,1.3,3.9,3.2c0.2,2.2-3.4,2.1-4.8,2.1c-4.6-0.1-8.5-2.1-11.9-5.1
				c-1.6-1.5-3.4-2.6-5.7-2.7c-2-0.1-4.1,0.6-4.8,2.6c-0.7,1.9-0.1,4.4,1,6c1.4,2,4,1.7,6.2,1.8c6,0.3,12,0.6,18,0.5
				c5.6-0.1,11.6-1.4,17.2,0.1c-0.4-0.5-0.7-1-1.1-1.4c-0.1,1.4-3.3,1.2-4.2,1.2c-2,0.1-4,0.2-6,0.2c-4,0.1-8,0.2-12,0.2
				c-4,0-8,0-12-0.1c-1,0-2-0.1-3-0.1c-0.4,0-0.9-0.2-1.2,0c-0.5-0.1-0.4,0.1,0.3,0.3c-0.1-0.2-0.2-0.4-0.4-0.6
				c-0.5-0.8-0.9-1.7-1.4-2.5c-0.2-0.4-0.5-0.8-0.7-1.3c-0.1-0.2-0.2-0.4-0.4-0.6c-0.1-0.3-0.1-0.3-0.1,0.2
				c-0.9-0.1-1.8-0.2-2.7-0.4c0.4,1.1,0.9,2.2,1.3,3.4c0.5,1.2,2.6,1.6,2.9,0c0.1-0.6,0.3-1.2,0.5-1.8c0.2-0.6,0.7-1.1,0.9-1.7
				c0.1-0.1,0.2-0.2,0.2-0.3c-0.2,0-0.5,0.1-0.7,0.1c0,0.1,0.7,0.1,0.8,0.1c0.5-0.1,1-0.4,1.3-0.8c0.6-0.8,0.5-2.1,0.8-3.1
				c0.4-1.3,0.9-2.5,1.6-3.7c-0.9-0.2-1.9-0.5-2.8-0.8c-0.1,1.1-0.2,2.1-0.5,3.1c1,0.1,2,0.3,3,0.4c0.2-2.5,0.8-5,1.5-7.4
				c-1-0.1-2-0.3-2.9-0.4c0.1,2.3,0.1,4.6,0,6.9c-0.1,1.7,2.7,2.1,3,0.4c0.4-2.3,1-4.5,1.9-6.6c-1,0-1.9,0-2.9,0
				c0.3,1.2,0.4,2.3,0.5,3.5c0.1,1.6,2.5,2.1,3,0.4c0.5-2.1,1.1-4.2,1.6-6.3c0.3-1-0.5-1.8-1.5-1.9c-3.3-0.2-5.5,2.2-7.5,4.5
				c-2.1,2.2-4.7,4.5-4.3,7.8c0.2,1.7,2.3,2,3,0.4c0.5-1.4,1.5-4.5,3.1-4.9c-0.6-0.7-1.1-1.5-1.7-2.2c-1.1,2.6-2.2,5.1-4.5,6.9
				c-1,0.8-2,1.6-2.5,2.9c-0.5,1.3-0.3,2.8-0.1,4.2C288.8,99.4,291.7,98.6,291.4,96.7L291.4,96.7z"/>
		</g>
	</g>
	<g>
		<g>
			<path class="st4" d="M295.1,88.2c-1,2.6-2,5.2-3,7.7c-0.2,0.6,0.2,1.4,0.7,1.7c3.3,2,4.1-4.9,4.4-6.7c0.3-1.9-2.4-2.7-2.9-0.8
				c-0.8,3.4-1.1,6.8-1,10.2c1-0.1,2-0.3,2.9-0.4c-0.4-2.7-0.1-5.3,0.6-7.9c-1-0.1-2-0.3-3-0.4c0.2,2.7,0.5,5.3,0.8,8
				c0.2,1.7,2.3,2,3,0.4c1.2-3.2,0.5-6.6,1.4-9.8c-1-0.3-1.9-0.5-2.9-0.8c-0.5,3.3-0.8,6.7-0.7,10c0,1.3,1.6,1.9,2.6,1.1
				c1.3-1.2,1.3-3.3,1.6-4.9c0.3-2,0.6-4.1,0.9-6.1c-1,0-2,0-3,0c-0.2,3.4-0.4,6.7-0.2,10.1c0.1,1.6,2.6,2.2,3,0.4
				c0.6-2.9,1-5.8,1.3-8.8c0.1-1.7-2.5-2-2.9-0.4c-0.7,2.7-0.7,5.4-0.1,8.2c0.3,1.4,2.6,1.4,2.9,0c0.7-3,1-6.1,1.1-9.2
				c0-1.9-2.9-1.9-3,0c-0.1,1.9-0.2,3.8-0.4,5.7c-0.1,1.7-0.3,3.2,0.5,4.7c0.6,1.2,2.4,0.8,2.7-0.4c0.9-3.1,1.4-6.3,1.5-9.5
				c0.1-2-2.8-1.9-3,0c-0.2,2.3-0.3,4.6-0.3,6.9c0,1.7,2.5,2.1,3,0.4c1-3.5,0.9-7.2,0.8-10.8c-0.1-1.9-3-1.9-3,0
				c0,1.1,0.3,2.1,0.7,3.1c0.5,1.2,2.5,0.8,2.7-0.4c0.3-1.2,0.4-2.4,0.2-3.6c-0.2-1.9-2.9-2-3,0c-0.1,1.7-0.6,6.3,2.3,5.8
				c2.5-0.4,2-4.1,1.3-5.7c-0.5-1.2-2.5-0.8-2.7,0.4c-0.3,1.5-0.3,2.9,0.1,4.3c0.4,1.4,2.5,1.4,2.9,0c0.5-2-0.5-3.5-0.8-5.4
				c-0.2-1,0.4-1.6,0.9-2.4c0.7-1,1.3-2,2-3.1c-0.9-0.2-1.9-0.5-2.8-0.8c0,2.4,0.4,4.9,1.1,7.2c0.4,1.3,2.6,1.6,2.9,0
				c0.3-1.8,0.5-3.6,0.7-5.4c-1,0-2,0-3,0c0,1,0.2,1.8,0.7,2.6c0.5,1,2.1,1,2.6,0c0.4-0.8,0.6-1.6,0.7-2.6c0.1-1.4-2.2-2.1-2.8-0.8
				c-1,2.1-0.4,4.3,1.5,5.7c0.7,0.5,2.1,0,2.2-0.9c0.2-1,0.3-2,0.5-3c-1-0.1-2-0.3-2.9-0.4c-0.1,1.6-0.2,3.3-0.1,4.9
				c0.1,1.4,1.5,1.9,2.6,1.1c1.8-1.4,2-3.7,2.1-5.8c-1,0-2,0-3,0c0,1.8-0.8,5.9,2,6.1c2.6,0.2,3.2-4.1,3.3-5.9c-1,0-2,0-3,0
				c-0.1,1.8-0.2,3.6-0.3,5.4c-0.1,1.2,1.3,1.8,2.3,1.3c2.3-1.2,2.9-4.8,3.4-7.1c-1-0.3-1.9-0.5-2.9-0.8c-0.3,1.7-0.4,3.5-0.3,5.2
				c0.1,1.5,2,2,2.8,0.8c1-1.6,1.5-3.4,2-5.2c-1-0.1-2-0.3-2.9-0.4c0,1.4,0,2.7,0,4.1c0,1.1,0.1,2.2,1.2,2.7c2.5,1,3.3-3.3,3.5-4.8
				c0.2-1.7-2.7-2.1-3-0.4c-0.3,1.7-0.6,5.5,2.3,4.7c2.1-0.6,2.9-3.7,1.8-5.4c-0.6,0.7-1.1,1.5-1.7,2.2c0.9,0.1,1.6,0.6,2.5,0.4
				c0.8-0.2,1.4-0.8,1.6-1.6c0.4-1.8-1.8-3.1-3.2-1.8c-1.3,1.2-0.6,3.3,0.8,4.1c1.4,0.8,3.2,0.2,4-1.2c0.8-1.3,0.3-3.4-1.4-3.8
				c-1.9-0.4-3.1,1.7-2.8,3.3c0.8,3.9,6.2,3.1,6.3-0.6c0.1-1.6-2-1.9-2.8-0.8c-0.6,0.8-0.5,1.9,0.1,2.7c0.6,0.9,1.7,1.1,2.7,1.2
				c1.1,0.1,1.6-1,1.4-1.9c-0.2-1.2-0.9-2-1.8-2.7c-0.6-0.4-1.8-0.2-2.1,0.5c-1.5,3.5,2.6,6.7,5.9,5.8c1.5-0.4,2.6-2,2.1-3.5
				c-0.5-1.6-2.4-2.1-3.8-1.2c-3.4,2.1,1.4,7.2,3.4,3.9c0.8-1.4-0.1-3.2-1.5-3.6c-1.7-0.5-3.2,1-3.2,2.6c1-0.1,2-0.3,3-0.4
				c-0.1-0.7-0.4-1.2-0.9-1.7c-0.7-0.9-2.3-0.4-2.5,0.7c-0.3,1.3-0.1,2.6,0.6,3.7c0.4,0.5,0.8,1,1.3,1.3c0.4,0.3,1.2,0.4,1.6,0.8
				c0.7,0.8,0.1,2.7,0,3.6c-0.1,1.4,0.2,2.6,1.1,3.8c1,1.2,2.8-0.1,2.5-1.5c-0.3-1.3-0.6-2.7-1-4c-1,0.3-1.9,0.5-2.9,0.8
				c0.6,2.4,1.8,4.6,3.5,6.5c1,1.1,3-0.1,2.5-1.5c-1-2.9-2.1-5.8-3.1-8.7c-0.4-1.1-2.1-1.6-2.7-0.4c-1.2,2.4-1.8,5-1.7,7.6
				c0,0.8,0.7,1.5,1.5,1.5c1.9,0.1,2.2-1.9,2.3-3.3c0.2-2,0-3.9-0.3-5.8c-0.3-1.4-2.6-1.4-2.9,0c-0.5,2.4-0.9,4.8-1.3,7.3
				c-0.3,1.9,2.5,2.7,2.9,0.8c0.5-2.6,0.3-5.3-0.7-7.7c-0.6-1.3-2.4-1.5-2.9,0c-0.6,1.6-1,3.3-1.2,5c-0.2,1.3-0.1,2.6,1.4,3.1
				c0.7,0.2,1.7-0.3,1.9-1.1c0.5-2.5,0.4-5.1-0.4-7.6c-0.5-1.5-2.4-1.4-2.9,0c-0.6,1.8-0.9,3.7-0.7,5.6c0.2,1.6,2.4,2.1,3,0.4
				c0.7-2.4,0.7-4.9-0.2-7.3c-0.3-0.9-1.3-1.4-2.2-0.9c-1.3,0.7-1.3,2.2-1.5,3.5c-0.3,1.7-0.5,3.4-0.8,5.1c-0.3,1.9,2.1,2.6,2.9,0.8
				c1.1-2.8,1.3-5.8,0.6-8.7c-0.4-1.4-2.5-1.4-2.9,0c-0.7,2.8-1.2,5.5-1.6,8.3c1,0,2,0,3,0c0.2-2.6,0.1-5.2-0.3-7.8
				c-0.2-1.6-2.5-1.3-2.9,0c-0.7,2.3-1.2,4.7-1.5,7.1c-0.1,1,1,1.7,1.9,1.4c1.7-0.5,2.3-2.1,2.6-3.7c0.4-2,0.3-4,0-6.1
				c-0.3-1.4-2.7-1.4-2.9,0c-0.3,2-0.6,4-0.8,6c0,0.6,0.5,1.4,1.1,1.4c3.4,0.5,3.3-5,3-7.2c-0.1-0.9-0.6-1.4-1.5-1.5
				c-0.7-0.1-1.7,0.4-2,1.1c0,0-0.2,0.2-0.2,0.3c-0.1-0.2,1.4,0.5,1-0.2c-0.2-0.4-0.9-0.7-1.3-0.9c-1.8-0.8-3.8-0.4-5.2,0.9
				c-1.3,1.2,0.4,3.1,1.8,2.4c0.9-0.5,1.8-0.9,2.7-1.4c1.5-0.8,0.5-3.1-1.2-2.7c-3.2,0.8-6.3,1.9-9.2,3.4c-1.5,0.8-0.4,3.4,1.2,2.7
				c2.5-1,5.1-1.7,7.7-2.2c-0.6-0.7-1.1-1.5-1.7-2.2c-1.2,2.2-1.9,4.6-1.7,7.1c0.1,1.7,2.5,2.1,2.9,0.4c0.6-2,0.9-4.1,1-6.1
				c0.1-1.7-2.7-2.1-3-0.4c-0.4,2.5-0.7,5,0,7.4c0.4,1.3,2.6,1.5,2.9,0c0.4-2.2,0.8-4.4,1.2-6.7c0.3-1.9-2.4-2.7-2.9-0.8
				c-0.6,2.2-0.8,4.5-0.8,6.8c0,0.7,0.5,1.3,1.1,1.4c2.8,0.8,2.9-3.3,3.1-5.1c-1-0.1-2-0.3-3-0.4c-0.1,1.9,0.2,3.9,0.8,5.7
				c0.5,1.4,2.4,1.4,2.9,0c0.7-2,1-4,1-6.1c0-1.7-2.5-2-2.9-0.4c-0.8,2.6-1.1,5.2-0.9,7.9c0.1,1.9,3,2,3,0c0-2.6-1.6-5.3-4.4-5.6
				c-1.6-0.2-3.1,0.5-4.6,0.8c-1.7,0.4-3.4,0.3-5.1-0.2c-0.1,1-0.3,2-0.4,2.9c2.4,0.3,3.6-2.8,1.9-4.3c-0.9-0.7-2.1-0.8-3-0.2
				c-1.1,0.6-1.4,1.7-2.2,2.5c0.8,0.2,1.7,0.4,2.5,0.7c-0.2-1.3-1.3-2.8-2.9-2.3c-1.6,0.5-2,2.5-1.9,3.9c0.1,1.1,1.2,2,2.3,1.3
				c1.3-0.9,2.2-2.1,2.4-3.6c-1,0-1.9,0-2.9,0c0.6,3.2,4.9,3.7,6.4,1c0.7-1.2-0.4-2.5-1.7-2.2c-1.9,0.4-3.1,2.1-3.1,4
				c0,1.1,0.9,1.6,1.9,1.4c2-0.3,3.5-2.2,3.4-4.2c-0.1-1.4-1.6-1.9-2.6-1.1c-1.1,0.9-1.7,2.4-1.6,3.8c0.1,0.7,0.6,1.6,1.5,1.5
				c2.4-0.3,4.4-2.2,4.2-4.8c-0.1-1.2-1.6-2.2-2.6-1.1c-1.6,1.8-1.3,4.9,1.3,5.7c2.6,0.7,4.3-2,3.3-4.2c-0.5-1.1-2.5-0.9-2.7,0.4
				c-0.3,1.6,0.7,3.8,2.8,3.3c1.9-0.5,1.6-2.9,0-3.5c-0.6-0.2-1.4,0.1-1.7,0.7c-0.5,1-0.4,2.2,0.6,2.9c1,0.8,2.2,0.4,3.2-0.1
				c-0.7-0.6-1.5-1.1-2.2-1.7c0,0.1,0,0.1,0,0.2c0.2-0.3,0.5-0.6,0.7-0.9c1.3,0.6,1.7,0.6,1.2-0.1c-0.2-0.2-0.3-0.5-0.5-0.7
				c-0.2-0.3-0.5-0.6-0.8-0.9c-0.7-0.7-1.4-1.3-2.2-1.9c0,0.9,0,1.7,0,2.6c0.8-0.5,1.6-0.9,2.5-1.2c-0.3-1-0.5-1.9-0.8-2.9
				c-3.1,1.1-5.3,3.3-7.7,5.4c-0.5,0.4-1.1,1.1-1.8,1.4c-0.7,0.3-1.8,0-2.6,0.1c-1.7,0.2-3.3,1.1-4.8,1.9c-1.1,0.6-0.9,2.4,0.4,2.7
				c2.5,0.6,5.2-0.1,7.8-0.2c2.7-0.1,5.4-0.1,8.1-0.1c5.5,0,10.9,0,16.4,0c1.9,0,1.9-3,0-3c-5.3,0-10.6,0-15.9,0c-2.6,0-5.2,0-7.9,0
				c-1.3,0-2.6,0.1-3.9,0.2c-1.3,0.1-2.5,0.4-3.8,0.1c0.1,0.9,0.2,1.8,0.4,2.7c1.5-0.9,2.9-1.6,4.7-1.5c1.7,0,2.8-0.5,4.1-1.6
				c2.3-1.9,4.4-4.3,7.3-5.4c1.8-0.7,1.1-3.5-0.8-2.9c-1.1,0.4-2.2,0.8-3.2,1.5c-1,0.6-0.9,1.9,0,2.6c0.7,0.5,1.3,1.1,1.9,1.7
				c0.5,0.5,0.8,1.2,1.3,1.7c0.9,0.8,2.7,0.5,2.9-0.9c0.2-1.3-0.9-2.3-2.2-1.7c-0.6,0.2-0.5,0.7,0.3,1.4c-0.6,0.2-1.1,0.5-1.7,0.7
				c0.1,0,0.1,0,0.2,0.1c-0.3-0.2-0.6-0.5-0.9-0.7c0-0.3,0-0.7,0-1c0.3-0.2,0.6-0.5,0.9-0.7c0.3,0.2,0.5,0.3,0.8,0.4
				c-0.9,0.1-1.8,0.2-2.7,0.4c0-0.1,0-0.3,0-0.3c0-0.2-0.1-0.4,0.1-0.6c-0.9-0.3-1.7-0.7-2.6-1.1c0.1,0.8-0.3,1.7-1.2,1.8
				c0.5,0.5,1,1,1.5,1.5c-0.1-0.8,0.1-1.2,0.7-1.7c-0.9-0.3-1.7-0.7-2.6-1.1c0,0.8-0.4,1.2-1.1,1.3c0.6,0.5,1.3,1,1.9,1.4
				c0-0.6,0.2-1,0.9-1.1c-0.6-0.7-1.1-1.5-1.7-2.2c-0.4,0.7-0.8,0.4-0.9-0.2c-0.3-1.4-2.7-1.4-2.9,0c-0.1,0.8-0.4,1.4-1.1,1.8
				c0.8,0.4,1.5,0.9,2.3,1.3c0,0,0.1-1.2,0.1-1.1c-0.4,0-0.9-0.1-1.3-0.1c0,0.2,0.1,0.3,0.1,0.5c0.2,1.1,1.8,1.4,2.5,0.7
				c0.3-0.4,0.6-0.7,0.9-1.1c0.2-0.3,1.4-1.9,0.4-2c-1.7-0.2-2,2.5-0.4,2.9c2.5,0.7,5.1,0.7,7.5-0.1c0.9-0.3,2.2-0.9,3.1-0.3
				c0.9,0.5,1.2,1.6,1.2,2.5c1,0,2,0,3,0c-0.2-2.4,0.1-4.8,0.7-7.1c-1-0.1-2-0.3-3-0.4c0,1.8-0.3,3.6-0.9,5.3c1,0,1.9,0,2.9,0
				c-0.6-1.6-0.8-3.2-0.7-4.9c0.1-1.7-2.7-2.1-2.9-0.4c-0.1,0.6-0.2,1.2-0.3,1.8c0,0.2-0.3,1.4-0.1,1.3c0.4-0.1,0.8-0.1,1.2-0.2
				c-0.1,0-0.1,0-0.2-0.1c0.4,0.5,0.7,1,1.1,1.4c0-2,0.2-4,0.7-6c-1-0.3-1.9-0.5-2.9-0.8c-0.4,2.2-0.8,4.4-1.2,6.7c1,0,1.9,0,2.9,0
				c-0.5-1.9-0.3-3.9,0-5.8c-1-0.1-2-0.3-2.9-0.4c-0.1,1.8-0.4,3.6-0.9,5.3c1,0.1,2,0.3,2.9,0.4c-0.1-2,0.3-3.8,1.3-5.6
				c0.7-1.2-0.4-2.5-1.7-2.2c-2.6,0.5-5.2,1.3-7.7,2.2c0.4,0.9,0.8,1.8,1.2,2.7c2.7-1.4,5.5-2.4,8.5-3.1c-0.4-0.9-0.8-1.8-1.2-2.7
				c-0.9,0.5-1.8,0.9-2.7,1.4c0.6,0.8,1.2,1.6,1.8,2.4c1.3-1.2,2.1,0.3,3.3,0.7c0.6,0.2,1.2,0.2,1.8-0.2c0.2-0.2,0.4-0.3,0.6-0.6
				c0.1-0.2,0.3-0.3,0.4-0.5c0.2-0.2,0.1-0.1-0.5,0.2c-0.5-0.5-1-1-1.5-1.5c0.1,0.9,0.2,1.7,0.1,2.6c0,0.4-0.1,0.9-0.2,1.3
				c0,0.1-0.1,0.3-0.1,0.4c-0.1,0.4-0.1,0.4,0.1,0.1c0.4-0.1,0.8-0.1,1.2-0.2c-0.1,0-0.1,0-0.2,0c0.4,0.5,0.7,1,1.1,1.4
				c0.1-1.8,0.4-3.5,0.6-5.2c-1,0-1.9,0-2.9,0c0.2,1.2,0.3,2.3,0.2,3.5c0,0.4-0.2,2.5-0.6,2.6c0.6,0.5,1.3,1,1.9,1.4
				c0.3-2.1,0.7-4.2,1.4-6.3c-1,0-1.9,0-2.9,0c0.4,2.3,0.4,4.6,0.2,7c-0.1,0.8,0.7,1.5,1.5,1.5c0.9,0,1.4-0.7,1.5-1.5
				c0.3-2.5,0.9-5.1,1.5-7.5c-1,0-1.9,0-2.9,0c0.6,2.4,0.3,4.8-0.6,7.1c1,0.3,1.9,0.5,2.9,0.8c0.2-1.3,0.4-2.6,0.6-3.9
				c0.1-0.6,0.2-1.3,0.3-1.9c0.1-0.3,0.1-0.6,0.1-1c0.1-0.4,0.1-0.4-0.2,0c-0.7-0.3-1.5-0.6-2.2-0.9c0.7,1.9,0.7,3.8,0.2,5.7
				c1,0.1,2,0.3,2.9,0.4c-0.2-1.7,0-3.2,0.6-4.8c-1,0-1.9,0-2.9,0c0.6,2,0.8,3.9,0.4,6c0.6-0.3,1.2-0.7,1.9-1.1
				c-0.1,0-0.1-0.1-0.2-0.1c0.3,0.2,0.6,0.5,0.9,0.7c-0.2-0.3,0.3-1.9,0.4-2.4c0.2-0.9,0.5-1.8,0.8-2.7c-1,0-1.9,0-2.9,0
				c0.8,2,1.1,4,0.7,6.2c1,0.3,1.9,0.5,2.9,0.8c0.4-2.4,0.8-4.9,1.3-7.3c-1,0-1.9,0-2.9,0c0.2,1.1,0.3,2.1,0.3,3.2
				c0,0.4,0.1,2.4-0.2,2.7c0.4-0.2,0.7-0.3,1.1-0.4c-0.1,0-0.1,0-0.2,0c0.5,0.5,1,1,1.5,1.5c-0.1-2.1,0.3-4.2,1.3-6.1
				c-0.9-0.1-1.8-0.2-2.7-0.4c1,2.9,2,5.8,3.1,8.7c0.8-0.5,1.7-1,2.5-1.5c-1.4-1.5-2.2-3.2-2.8-5.2c-0.5-1.9-3.3-1.1-2.9,0.8
				c0.3,1.3,0.6,2.7,1,4c0.8-0.5,1.7-1,2.5-1.5c-0.6-0.7-0.1-2.2,0-3.1c0.1-1,0.1-2.1-0.3-3c-0.4-1-1.1-1.6-2-2.1
				c-0.9-0.4-1.7-0.9-1.4-2.1c-0.8,0.2-1.7,0.4-2.5,0.7c0,0.1,0.1,0.3,0.1,0.4c0.3,1.7,3,1.3,2.9-0.4c0.3-0.8,0.3-1,0.1-0.6
				c-0.2,0.5-0.5,0.3-0.9-0.5c-0.2-0.1-0.8-0.1-1-0.2c-0.3-0.1-1.8-0.6-1.5-1.2c-0.7,0.2-1.4,0.4-2,0.5c0.3,0.2,0.4,0.6,0.4,0.9
				c0.5-0.6,1-1.3,1.4-1.9c-0.5-0.1-0.5,0.1-0.2,0.7c-0.9-0.2-1.9-0.5-2.8-0.8c0,0.3-0.2,0.2-0.3,0.2c0,0-0.1-0.1-0.1-0.1
				c-0.1-0.3-0.3-0.3-0.7-0.2c-0.7-0.2-0.9-0.3-0.6-0.2c0.4,0.2,0.2,0.5-0.7,0.9c-0.4-0.2-0.7-0.3-1.1-0.4c0.8-1,0.9-1.6,0.1-1.8
				c-0.2-0.1-0.4-0.2-0.7-0.2c-1.2-0.2-2.5,1-1.7,2.2c0.6,0.9-1.1,0.8,0.5,1.5c1,0.4,0.7,0.4,0.8-0.3c0-0.4,0.1-0.7,0.1-1.1
				c-1-0.1-2-0.3-2.9-0.4c-0.1,0.9-0.4,1.9-0.9,2.6c0.3-0.2,0.6-0.5,0.9-0.7c-0.1,0-0.2,0.1-0.3,0.1c0.4,0,0.8,0.1,1.2,0.2
				c-0.1,0-0.1-0.1-0.2-0.1c0.2,0.3,0.5,0.6,0.7,0.9c-0.2-0.6-0.1-1.6-0.1-2.2c0-0.9,0-1.8,0-2.7c0-1.7-2.5-2-2.9-0.4
				c-0.4,1.6-0.9,3.1-1.7,4.5c0.9,0.2,1.9,0.5,2.8,0.8c-0.1-1.5,0-3,0.2-4.4c0.3-1.9-2.5-2.7-2.9-0.8c-0.2,1-0.4,2-0.8,2.9
				c-0.2,0.8-0.5,2-1.2,2.3c0.8,0.4,1.5,0.9,2.3,1.3c0.1-1.8,0.2-3.6,0.3-5.4c0.1-1.9-2.9-1.9-3,0c0,0.6-0.1,1.2-0.3,1.8
				c-0.1,0.3-0.2,0.6-0.3,0.9c-0.5,0.7-0.1,0.9,1.2,0.5c0.2-0.3,0-1.2,0-1.6c0-0.6,0-1.3,0-1.9c0.1-1.9-2.9-1.9-3,0
				c-0.1,1.4-0.1,2.8-1.3,3.7c0.9,0.3,1.7,0.7,2.6,1.1c-0.1-1.7-0.1-3.3,0.1-4.9c0.2-1.7-2.7-2.1-3-0.4c-0.2,1-0.3,2-0.5,3
				c0.7-0.3,1.5-0.6,2.2-0.9c-0.5-0.3-0.7-1.1-0.5-1.6c-0.9-0.2-1.9-0.5-2.8-0.8c0,0.4-0.1,0.7-0.3,1.1c0.9,0,1.7,0,2.6,0
				c-0.2-0.4-0.2-0.7-0.2-1.1c-0.1-1.9-2.9-1.9-3,0c-0.1,1.6-0.3,3.1-0.6,4.7c1,0,1.9,0,2.9,0c-0.7-2.1-1.1-4.2-1-6.4
				c0-1.5-2-2-2.8-0.8c-1.1,1.8-3,3.8-3.3,6c-0.1,1,0.1,1.9,0.4,2.8c0.3,0.9,0.8,1.8,0.5,2.8c1,0,1.9,0,2.9,0
				c-0.2-0.9-0.3-1.8-0.1-2.7c-0.9,0.1-1.8,0.2-2.7,0.4c0.1,0.3,0.4,1.4,0.1,1.7c0.4-0.2,0.7-0.3,1.1-0.4c-0.1,0-0.2,0-0.3,0
				c0.4,0.2,0.7,0.3,1.1,0.4c0.2,0.2,0.1-1.2,0.1-1.4c0-0.6,0-1.3,0-1.9c-1,0-2,0-3,0c0.1,0.9,0.1,1.8-0.1,2.8
				c0.9-0.1,1.8-0.2,2.7-0.4c-0.2-0.5-0.3-1-0.3-1.5c-1,0-2,0-3,0c0.1,3.4,0.2,6.8-0.7,10c1,0.1,2,0.3,3,0.4c-0.1-2.3,0-4.6,0.3-6.9
				c-1,0-2,0-3,0c-0.1,3-0.6,5.9-1.4,8.7c0.9-0.1,1.8-0.2,2.7-0.4c-0.5-1.1-0.1-3,0-4.2c0.1-1.6,0.2-3.2,0.3-4.8c-1,0-2,0-3,0
				c-0.1,2.8-0.4,5.7-1,8.4c1,0,1.9,0,2.9,0c-0.5-2.2-0.5-4.4,0.1-6.6c-1-0.1-2-0.3-2.9-0.4c-0.2,2.7-0.6,5.3-1.1,8
				c1,0.1,2,0.3,2.9,0.4c-0.2-3.4,0-6.7,0.2-10.1c0.1-2-2.8-1.9-3,0c-0.2,1.6-0.4,3.2-0.7,4.8c-0.1,0.7-0.2,1.4-0.4,2.1
				c-0.1,0.5-0.1,1.6-0.5,1.9c0.9,0.3,1.7,0.7,2.6,1.1c0-3.1,0.1-6.2,0.6-9.2c0.3-1.9-2.4-2.7-2.9-0.8c-0.9,3.2-0.1,6.7-1.4,9.8
				c1,0.1,2,0.3,2.9,0.4c-0.2-2.7-0.5-5.3-0.8-8c-0.1-1.6-2.4-2.1-2.9-0.4c-0.9,3.1-1.1,6.3-0.6,9.5c0.2,1.7,3,1.3,3-0.4
				c-0.1-3.2,0.2-6.3,0.9-9.4c-1-0.3-1.9-0.5-2.9-0.8c-0.1,0.9-0.3,1.8-0.5,2.7c-0.1,0.4-0.2,0.9-0.4,1.3c-0.1,0.2-0.5,1-0.1,0.9
				c0.4,0.1,0.8,0.1,1.2,0.2c-0.1,0-0.1-0.1-0.2-0.1c0.2,0.6,0.5,1.1,0.7,1.7c1-2.6,2-5.2,3-7.7C298.8,87.2,295.9,86.4,295.1,88.2
				L295.1,88.2z"/>
		</g>
	</g>
	<g>
		<g>
			<path class="st4" d="M298.9,64.4c-0.2,0.8-0.4,1.7-0.6,2.5c1,0.1,2,0.3,3,0.4c-0.1-0.7-0.1-1.4-0.2-2.1c-0.6,0.5-1.3,1-1.9,1.4
				c0.3,0.1,0.4,0.6,0.5,0.8c0.4,0.7,1.1,1,1.9,1c1.7-0.1,2.3-1.7,2.3-3.1c-1,0-2,0-3,0c0,0.9,0.1,1.8,0.2,2.6
				c0.1,1.4,2,2.1,2.8,0.8c0.7-1.2,0.7-2.6,0.1-3.8c-0.5-1.1-2-0.9-2.6,0c-0.7,1.1-0.9,2.5-0.5,3.7c0.3,1,1.7,1.6,2.5,0.7
				c0.7-0.8,0.9-1.7,0.8-2.7c-0.1-0.5-0.2-0.9-0.2-1.3c0-0.1,0.1-0.4,0-0.3c-0.8-0.2-1.7-0.4-2.5-0.7c0.3,1.5,0.3,3.1,0.2,4.7
				c-0.1,1.6-0.2,3,0.5,4.5c0.4,0.7,1.2,0.9,1.9,0.6c0.7-0.3,1-1,0.9-1.8c-0.2-1-0.4-2-0.5-2.9c-0.9,0.4-1.8,0.8-2.7,1.2
				c1.2,2.6,2.4,5.1,3.7,7.6c0.6,1.1,2.5,0.9,2.7-0.4c0.2-1.3,0.3-2.6,0.2-4c-1,0.1-2,0.3-3,0.4c0,0.2,0.1,0.4,0.1,0.6
				c0.2,0.8,1.1,1.2,1.9,1.1c0.8-0.2,1.2-1.1,1.1-1.8c-0.2-1.2-0.7-2.3-1.8-3c-0.6-0.4-1.5-0.2-1.9,0.4c-0.5,0.6-0.4,1.4,0.1,2
				c1,1.2,1.5,2.7,1.8,4.2c0.1,0.8,1.1,1.2,1.9,1.1c0.9-0.2,1.2-1,1.1-1.8c-0.4-2.1-1.3-3.9-2.6-5.5c-0.6,0.8-1.2,1.6-1.8,2.4
				c0.2,0.2,0.3,0.8,0.4,1.2c1-0.3,1.9-0.5,2.9-0.8c0-0.2-0.1-0.4-0.1-0.6c-0.3-1.6-3.1-1.3-2.9,0.4c0.1,1.1,0.1,2.1-0.1,3.2
				c0.9-0.1,1.8-0.2,2.7-0.4c-1.3-2.5-2.5-5.1-3.7-7.6c-0.3-0.7-1.2-0.9-1.9-0.6c-0.7,0.3-1,1-0.9,1.8c0.2,1,0.4,2,0.5,2.9
				c0.9-0.4,1.8-0.8,2.7-1.2c-0.6-1.1-0.2-2.5-0.1-3.6c0.1-1.6-0.1-3.2-0.4-4.8c-0.2-1.1-1.8-1.4-2.5-0.7c-0.7,0.7-0.9,1.7-0.8,2.6
				c0,0.5,0.2,0.9,0.2,1.3c0,0,0,0.5,0.1,0.3c0.8,0.2,1.7,0.4,2.5,0.7c-0.2-0.5-0.1-0.9,0.2-1.4c-0.9,0-1.7,0-2.6,0
				c0.1,0.3,0,0.5-0.1,0.8c0.9,0.2,1.9,0.5,2.8,0.8c-0.1-0.9-0.1-1.7-0.2-2.6c-0.1-1.9-3-1.9-3,0c0,0.1-0.1,0.3,0,0.4
				c-0.1-0.3,1.1,0,0.7-0.1c0.7,0.1,0.7,0.2,0.5-0.2c-0.1-0.2-0.1-0.3-0.2-0.4c-0.5-0.7-1.1-1.1-1.9-1.4c-0.9-0.3-2,0.5-1.9,1.5
				c0.1,0.7,0.1,1.4,0.2,2.1c0.1,0.7,0.5,1.4,1.3,1.5c0.7,0.1,1.5-0.3,1.6-1.1c0.2-0.8,0.4-1.7,0.6-2.5c0.2-0.8-0.2-1.6-1.1-1.8
				C299.9,63.1,299,63.6,298.9,64.4L298.9,64.4z"/>
		</g>
	</g>
	<g>
		<g>
			<path class="st4" d="M319.6,74.2c0.1,0.7,0.3,1.4,0.5,2c0.2,0.7,0.3,1.6,0.8,2.1c1.2,1.2,2.8,0.2,3.8-0.8
				c1.7-1.7,2.4-4.1,3.1-6.3c0.4-1.4,0.8-2.8,1.2-4.1c0.4-1.3,1.4-3.3,0.3-4.5c-0.8-0.9-2.4-1.2-3.5-0.8c-0.7,0.2-1.3,0.8-1.5,1.5
				c-0.2,0.7-0.1,1.5-0.2,2.2c-0.2,3-1.4,5.9-2.6,8.6c-0.3,0.7-0.2,1.6,0.5,2c0.6,0.4,1.7,0.2,2-0.5c0.9-2.2,1.9-4.4,2.5-6.7
				c0.3-1.2,0.5-2.3,0.5-3.5c0-0.2,0-0.5,0-0.8c0-0.2,0-0.3,0-0.5c-0.1,0.2-0.2,0.4-0.4,0.5c-0.1,0-0.1,0,0,0c0.1,0,0.1,0,0,0
				c0.1,0,0.2,0,0.4,0.1c0.2,0.1,0.2,0.1,0,0c-0.1-0.2-0.3-0.4-0.4-0.7c0-0.2,0-0.2-0.1,0.1c-0.1,0.2-0.1,0.3-0.2,0.5
				c-0.1,0.3-0.2,0.7-0.3,1c-0.2,0.6-0.4,1.2-0.6,1.8c-0.4,1.3-0.8,2.6-1.2,3.9c-0.3,0.9-0.6,1.8-1,2.7c-0.2,0.4-0.4,0.7-0.7,1.1
				c-0.1,0.1-0.3,0.3-0.4,0.4c-0.1,0.1-0.2,0.2-0.3,0.2c-0.2,0.1-0.2,0.1,0.1,0c0.4,0.2,0.7,0.3,1.1,0.4c0,0-0.1-0.1-0.1-0.1
				c0.1,0.2,0.3,0.4,0.4,0.7c-0.5-1.1-0.7-2.3-1-3.5c-0.2-0.8-1.1-1.2-1.9-1.1C319.8,72.6,319.4,73.4,319.6,74.2L319.6,74.2z"/>
		</g>
	</g>
	<g>
		<g>
			<path class="st5" d="M306.6,62.8c-0.6,1.6-1.1,3.3-1.5,5c1,0,1.9,0,2.9,0c-0.2-0.9-0.1-1.9,0.2-2.8c-1,0-1.9,0-2.9,0
				c0.4,1.4,0.8,2.7,1.1,4.1c0.5,1.7,2.8,1.2,3-0.4c0.1-1.1,0.1-2.2,0-3.4c-0.1-0.8-0.6-1.5-1.5-1.5c-0.8,0-1.5,0.7-1.5,1.5
				c0,1,0.1,2.1,0.2,3.1c0.1,1,0.1,2.3,0.6,3.2c0.6,1,1.6,1,2.6,1.2s2,0.5,2.9,0.9c0.1-1,0.3-2,0.4-3c-1.9,0.1-2.8,2.3-1.5,3.7
				c1.2,1.2,3.1,1.1,4.6,0.6c3-1.2,5.6-3.1,6.7-6.2c0.4-1.3,0.6-2.8,0.5-4.1c0-0.7,0-1.6-0.4-2.3c-0.5-0.9-1.4-1-2.3-1
				c-3.6,0.3-7.2,0.6-10.7,0.8c-0.9,0.1-2,0.1-2.5,1c-0.5,0.8-0.4,1.8-0.5,2.7c-0.1,1.7-0.4,3.7,1.3,4.8c0.8,0.5,2,0.1,2.2-0.9
				c0.2-1.4,0.5-2.8,0.7-4.3c-1-0.3-1.9-0.5-2.9-0.8c-0.3,2.2-0.2,4.4,0.5,6.6c0.4,1.2,2.1,1.5,2.7,0.4c0.9-1.6,1.5-3.4,1.8-5.2
				c-1-0.1-2-0.3-3-0.4c0.1,1.5,0.1,3,0.2,4.5c0.1,1.2,1.7,2.1,2.6,1.1c1.2-1.5,1.6-3.3,1.9-5.2c0.1-0.8-0.2-1.6-1-1.8
				c-0.7-0.2-1.7,0.2-1.9,1c-0.4,2.5-0.1,4.8,1.1,7.1c0.5,1.1,2,0.9,2.6,0c0.6-0.9,0.9-2,1-3.1c0.1-1.4-1.6-1.9-2.6-1.1
				c-0.8,0.7-1.5,1.7-1.2,2.8c0.2,1.2,1.3,2.1,2.5,1.8c1.1-0.2,1.8-1.1,2.5-1.9c0.7-0.9,1.2-1.8,1.7-2.8c0.3-0.7,0.2-1.6-0.5-2.1
				c-0.7-0.4-1.7-0.2-2,0.5c-0.7,1.3-2.3,3.4-1,4.7c0.6,0.7,1.7,0.7,2.5,0.2c0.7-0.4,1.1-1.3,1.4-2c0.6-1.3,1.6-3.4,1-4.9
				c-0.8-1.8-3.2-1.6-4.6-0.9c0.4,0,0.8-0.1,1.2-0.2c-1.2-0.5-2.7-0.1-3.6,0.8c-1.1,1.1-1.1,2.8-0.5,4.1c0.6,1.2,2.4,0.8,2.7-0.4
				c0.4-1.1,0.4-2.3,0-3.5c-0.2-0.7-0.9-1.2-1.6-1.1c-0.7,0.1-1.4,0.7-1.3,1.5c0.2,1.3,0.7,2.4,1.7,3.2c1.1,0.9,2.8,0.7,3.3-0.8
				c0.5-1.6-1.9-2.7-2.7-1.2c-0.5,0.8-0.6,1.7-0.7,2.7c-0.1,0.8,0,1.6-0.3,2.3c-0.5,1.4-1.8,2.4-2.8,3.3c-0.7,0.7-1.4,1.6-0.8,2.6
				c0.5,0.8,1.4,1.1,2.3,1.2c1.9,0.3,3.8-0.1,5.3-1.1c1.6-1.1,0.1-3.7-1.5-2.6c-1,0.7-2.9,1.3-4,0.5c0.2,0.2,0.4,0.4,0.5,0.5
				c0,0,0-0.1-0.1-0.1c0.1,0.2,0.1,0.5,0.2,0.8c0-0.1,0-0.1,0-0.2c-0.1,0.2-0.1,0.5-0.2,0.8c0.2-0.3,0.6-0.6,0.9-0.8
				c0.3-0.3,0.7-0.6,1-1c0.6-0.7,1.2-1.4,1.6-2.2c0.5-0.9,0.7-1.8,0.8-2.9c0.1-0.8,0-1.8,0.4-2.5c-0.9-0.4-1.8-0.8-2.7-1.2
				c0,0,0,0.1,0,0.1c0.1-0.2,0.3-0.4,0.4-0.7c0,0-0.1,0-0.1,0.1c0.2-0.1,0.4-0.3,0.7-0.4c0.1,0,0.5,0.1,0.5,0.1c0,0-0.3-0.3-0.3-0.3
				c-0.1-0.1-0.2-0.3-0.2-0.5c-1,0.1-2,0.3-3,0.4c0.2,0.7,0.2,1.2,0,1.9c0.9-0.1,1.8-0.2,2.7-0.4c-0.1-0.3,0-0.6,0.3-0.6
				c0.2,0,0.6,0.2,0.8,0.2c0.4,0,0.7-0.3,1.1-0.3c0.1,0,0.2,0,0.3,0c-0.2-0.8-0.3-1-0.4-0.6c0,0.1,0,0.3-0.1,0.4
				c-0.1,0.4-0.2,0.8-0.3,1.2c-0.1,0.4-0.3,0.8-0.5,1.1c-0.1,0.2-0.2,0.4-0.3,0.6c0,0.1-0.1,0.2-0.1,0.2c-0.2,0.3-0.1,0.2,0.2-0.1
				c0.3,0,0.5,0,0.8,0c0,0,0,0,0,0c0.2,0.2,0.4,0.4,0.5,0.5c0,0-0.1-0.1-0.1-0.2c0.1,0.2,0.1,0.5,0.2,0.8c0,0.3,0.1-0.2,0.2-0.2
				c0.1-0.2,0.2-0.4,0.3-0.6c0.2-0.4,0.4-0.8,0.6-1.2c-0.9-0.5-1.7-1-2.6-1.5c-0.3,0.7-0.7,1.4-1.1,2c-0.2,0.2-0.4,0.5-0.6,0.7
				c-0.1,0.2-0.3,0.3-0.4,0.5c-0.2,0.2,0.2,0-0.2,0.1c0.3,0,0.5,0,0.8,0c0.3,0.2,0.4,0.4,0.4,0.7c0,0.2,0,0.3,0,0.2
				c0.1,0,0.4-0.4,0.5-0.5c-0.9-0.3-1.7-0.7-2.6-1.1c0,0.6-0.2,1.1-0.6,1.6c0.9,0,1.7,0,2.6,0c-0.7-1.5-1-3.1-0.8-4.8
				c-1-0.1-2-0.3-3-0.4c-0.1,1.1-0.3,2.5-1.1,3.4c0.9,0.3,1.7,0.7,2.6,1.1c-0.1-1.5-0.1-3-0.2-4.5c0-0.7-0.6-1.4-1.3-1.5
				c-0.7-0.1-1.5,0.3-1.6,1.1c-0.2,1.6-0.7,3.1-1.5,4.5c0.9,0.1,1.8,0.2,2.7,0.4c-0.5-1.6-0.8-3.3-0.5-5c0.1-0.8-0.2-1.6-1-1.8
				c-0.7-0.2-1.7,0.2-1.9,1c-0.2,1.4-0.5,2.8-0.7,4.3c0.7-0.3,1.5-0.6,2.2-0.9c0.2,0.1,0,0.3,0.1,0.1c0,0.1-0.1-0.3,0-0.2
				c0-0.4,0-0.8,0.1-1.1c0-0.4,0.1-0.8,0.1-1.3c0-0.2,0-0.4,0-0.6c0-0.1,0-0.3,0-0.4c0-0.3,0-0.2-0.1,0.3c-0.2,0.1-0.4,0.3-0.7,0.4
				c0.2-0.1,0.7-0.1,1.1-0.1c0.5,0,1.1-0.1,1.6-0.1c1-0.1,2.1-0.2,3.1-0.2s2.1-0.2,3.1-0.2c0.5,0,1-0.1,1.5-0.1c0.3,0,0.6,0,0.9-0.1
				c0.3,0,0.9,0.1,0.3-0.2c-0.2-0.2-0.4-0.4-0.5-0.5c0.2,0.3,0.1,1.1,0.1,1.4c0,0.5,0,1.1-0.1,1.6c-0.2,1-0.5,2-1.1,2.8
				c-0.7,0.9-1.8,1.5-2.8,2.1c-0.6,0.3-1.2,0.7-1.9,0.8c-0.2,0-0.5-0.1-0.7,0c0,0-0.4,1.3,0.1,0.9c-0.2,0.1-0.4,0.3-0.7,0.4
				c0,0-0.1,0-0.1,0c0.7,0,1.4-0.6,1.5-1.3c0.1-0.8-0.4-1.3-1.1-1.7c-0.7-0.3-1.5-0.6-2.2-0.8c-0.5-0.1-1.6-0.2-1.9-0.4
				c0.2,0.2,0.4,0.4,0.5,0.5c-0.1-0.2-0.1-0.8-0.2-1c-0.1-0.4-0.1-0.8-0.1-1.3c-0.1-0.9-0.1-1.8-0.1-2.7c-1,0-2,0-3,0
				c0.1,1.1,0.1,2.2,0,3.4c1-0.1,2-0.3,3-0.4c-0.4-1.4-0.8-2.7-1.1-4.1c-0.4-1.4-2.5-1.4-2.9,0c-0.4,1.5-0.5,2.9-0.2,4.4
				c0.3,1.5,2.6,1.4,2.9,0c0.4-1.7,0.9-3.4,1.5-5c0.3-0.8-0.3-1.6-1.1-1.8C307.6,61.5,306.9,62,306.6,62.8L306.6,62.8z"/>
		</g>
	</g>
</g>
<g>
	<g>
		<g>
			<path d="M299.4,65c0.5-2.2,1-4.5,1.6-6.6c0.6-2.2,2-3.7,3.6-5.3c2.8-2.8,5.9-5.7,9.9-6.6c2.3-0.6,4.1,0.9,5.9,2.2
				c1.8,1.3,3.2,2.9,4.4,4.8c1.1,1.7,1.9,3.6,2.7,5.4c0.9,2.1,1.8,4.2,2.2,6.5c0.2,1.4,2.4,0.8,2.2-0.6c-0.4-2-1.2-3.9-1.9-5.8
				c-0.7-1.7-1.4-3.3-2.2-4.9c-1.8-3.4-4.2-6-7.4-8.1c-1.5-1-3.1-2.1-5-1.9c-1.7,0.1-3.4,0.8-4.9,1.5c-3.2,1.6-5.8,4.2-8.3,6.8
				c-1.5,1.5-2.7,3.1-3.3,5.2c-0.6,2.2-1.1,4.6-1.6,6.9C296.9,65.8,299.1,66.4,299.4,65L299.4,65z"/>
		</g>
	</g>
	<g>
		<g>
			<path d="M298.7,66.2c4.7-2.4,10.1-3.1,15.3-3.8c2.8-0.4,5.5-0.4,8.3,0.2c2.2,0.4,5.6,0.9,7.1,2.8c0.9,1.2,2.8,0,1.9-1.1
				c-1.7-2.2-4.4-2.9-7-3.6c-3-0.7-6.1-1-9.2-0.7c-5.9,0.7-12.1,1.5-17.5,4.2C296.3,64.9,297.4,66.9,298.7,66.2L298.7,66.2z"/>
		</g>
	</g>
	<g>
		<g>
			<path d="M297.1,64.9c0.1,1.2,0.7,2.3,1.3,3.3c0.6,1,1,2.1,1.5,3.2c0.9,2.2,1.7,4.5,3.1,6.4c0.4,0.5,1,0.7,1.5,0.4
				c0.5-0.3,0.8-1.1,0.4-1.5c-1.3-1.8-2.1-3.8-2.9-5.9c-0.4-1-0.8-2.1-1.4-3.1c-0.5-0.9-1.2-1.8-1.3-2.8c-0.1-0.6-0.5-1.1-1.1-1.1
				C297.7,63.8,297.1,64.3,297.1,64.9L297.1,64.9z"/>
		</g>
	</g>
	<g>
		<g>
			<path d="M300.3,80c2.2-0.8,5-2.3,7.4-1.7c2.1,0.5,3.8,1.9,5.9,2.4c1,0.2,2,0.3,3,0c1.3-0.3,2.4-1,3.6-1.4c2.7-0.8,5.6,0,8.1,1.1
				c1.3,0.6,2.5-1.4,1.1-1.9c-2.5-1.1-5.3-1.9-8.1-1.6c-2.6,0.3-4.8,2.3-7.4,1.6c-2.2-0.6-4-2.1-6.3-2.5c-2.7-0.5-5.5,1-8,1.8
				C298.4,78.3,298.9,80.5,300.3,80L300.3,80z"/>
		</g>
	</g>
	<g>
		<g>
			<path d="M324.6,78.7c2.3-1.1,3.5-3.5,4.4-5.8c1.1-3,2.1-6,3.1-9.1c0.5-1.4-1.7-2-2.2-0.6c-1,2.8-1.9,5.7-2.9,8.5
				c-0.7,2-1.6,4.1-3.5,5C322.2,77.4,323.3,79.3,324.6,78.7L324.6,78.7z"/>
		</g>
	</g>
	<g>
		<g>
			<path d="M328.9,80.7c0.5,0,0.9,0,1.4,0.1c-0.1,0-0.2,0-0.3,0c0.3,0,0.5,0.1,0.8,0.2c0.1,0,0.3,0.1,0.4,0.1c0.1,0,0.1,0,0.2,0
				c0,0,0.1,0,0.1,0c-0.2-0.1-0.2-0.1-0.1,0c0.1,0.1-0.2-0.2-0.2-0.2c0,0,0.1,0.1,0.1,0.1c0.1,0.1,0.2,0.2,0.2,0.4
				c0.2,0.3,0.5,0.5,0.8,0.7c0.5,0.3,1.3,0.1,1.5-0.4c0.3-0.6,0.1-1.2-0.4-1.5c-0.1-0.1,0.1,0.1,0.1,0.1c0,0-0.1-0.1-0.1-0.1
				c0,0-0.1-0.1-0.1-0.1c0,0-0.1-0.2,0,0c0.1,0.2,0-0.1-0.1-0.1c0-0.1-0.1-0.1-0.1-0.2c-0.2-0.3-0.5-0.6-0.9-0.7
				c-0.2-0.1-0.4-0.1-0.6-0.2c-0.9-0.2-1.8-0.3-2.6-0.3c-0.6,0-1.1,0.5-1.1,1.1C327.8,80.2,328.3,80.7,328.9,80.7L328.9,80.7z"/>
		</g>
	</g>
	<g>
		<g>
			<path d="M331.7,81.7c1.2,1.4,2.5,2.7,3.4,4.3c1,1.5,1.7,3.2,2.1,5c0.1,0.6,0.8,0.9,1.4,0.8c0.6-0.2,0.9-0.8,0.8-1.4
				c-0.4-2-1.2-3.8-2.3-5.5c-1.1-1.7-2.4-3.2-3.8-4.7c-0.4-0.4-1.2-0.4-1.6,0C331.3,80.5,331.3,81.2,331.7,81.7L331.7,81.7z"/>
		</g>
	</g>
	<g>
		<g>
			<path d="M299.5,78.2c-1.4,0.9-2.9,1.8-4.2,2.9c-1.3,1.2-2.4,2.5-3.2,4.1c-0.9,1.7-1.8,3.3-2.7,5c-0.5,0.8-0.9,1.7-1.4,2.5
				c-0.4,0.8-0.8,1.7-0.4,2.6c0.5,1.3,2.7,0.8,2.2-0.6c-0.2-0.6,0.6-1.5,0.8-2c0.4-0.7,0.8-1.4,1.2-2.1c0.8-1.5,1.6-3,2.4-4.4
				c0.7-1.3,1.6-2.4,2.7-3.4c1.1-1,2.4-1.7,3.7-2.5C301.9,79.4,300.7,77.4,299.5,78.2L299.5,78.2z"/>
		</g>
	</g>
	<g>
		<g>
			<path d="M299.3,80.7c1.1-0.7,2.3-1.3,3.5-1.8c1.3-0.5,2.5-0.8,3.9-0.9c0.6,0,1.1-0.5,1.1-1.1c0-0.6-0.5-1.2-1.1-1.1
				c-1.6,0.1-3,0.4-4.5,1c-1.4,0.5-2.8,1.2-4,2c-0.5,0.3-0.7,1-0.4,1.5C298,80.8,298.8,81,299.3,80.7L299.3,80.7z"/>
		</g>
	</g>
	<g>
		<g>
			<path d="M288.6,95.8c1.4,0,1.4-2.2,0-2.2C287.1,93.6,287.1,95.8,288.6,95.8L288.6,95.8z"/>
		</g>
	</g>
	<g>
		<g>
			<path d="M293.3,105.3c1.5,0,1.5-2.2,0-2.2C291.9,103,291.9,105.3,293.3,105.3L293.3,105.3z"/>
		</g>
	</g>
	<g>
		<g>
			<path d="M293.5,105.2c1.4,0,1.4-2.2,0-2.2C292,103,292,105.2,293.5,105.2L293.5,105.2z"/>
		</g>
	</g>
	<g>
		<g>
			<path d="M336.4,105.4c1.5,0,1.5-2.2,0-2.2C334.9,103.1,334.9,105.4,336.4,105.4L336.4,105.4z"/>
		</g>
	</g>
	<g>
		<g>
			<path d="M337.3,91.6c1.5,1.2,2.3,3.5,1.4,5.3c-1.1,2.2-2.4,4.3-3.6,6.4c-0.7,1.3,1.2,2.4,1.9,1.1c0.7-1.3,1.4-2.5,2.1-3.8
				c0.7-1.2,1.5-2.4,1.9-3.8c0.8-2.4-0.3-5.3-2.2-6.9c-0.5-0.4-1.1-0.5-1.6,0C336.9,90.4,336.8,91.2,337.3,91.6L337.3,91.6z"/>
		</g>
	</g>
	<g>
		<g>
			<path d="M303.8,64c0,1.7-0.4,3.7,0.1,5.3c0.5,1.7,2.1,2.8,3.4,3.9c1.2,1.1,2.5,2.5,4,3.2c1.5,0.8,3.2,0.8,4.9,0.6
				c3-0.5,5.6-2.2,7.4-4.7c2.1-2.9,2.1-6.6,2.1-10c-0.1-1.9-3.1-1.9-3,0c0.1,2.7,0.2,5.6-1.4,8c-1.2,1.9-3.2,3.2-5.3,3.6
				c-1.1,0.2-2.4,0.2-3.4-0.3c-1.2-0.6-2.1-1.7-3.1-2.6c-0.5-0.5-1-0.9-1.6-1.4c-0.5-0.4-1-0.8-1.1-1.5c-0.2-1.3,0-2.9,0.1-4.3
				C306.8,62.1,303.8,62.1,303.8,64L303.8,64z"/>
		</g>
	</g>
	<g>
		<g>
			<path d="M308.4,75c0.1,0.3,0.1,0.7,0.2,1c0-0.1,0-0.3,0-0.4c0.1,0.5,0.1,1.1,0.1,1.6c0,0.4,0.2,0.8,0.4,1.1
				c0.3,0.3,0.7,0.5,1.1,0.4c0.4,0,0.8-0.1,1.1-0.4c0.3-0.3,0.4-0.7,0.4-1.1c0-1-0.1-2-0.4-3c-0.1-0.4-0.4-0.7-0.7-0.9
				c-0.3-0.2-0.8-0.3-1.2-0.2c-0.4,0.1-0.7,0.3-0.9,0.7C308.3,74.2,308.3,74.6,308.4,75L308.4,75z"/>
		</g>
	</g>
	<g>
		<g>
			<path d="M318.4,75.1c0,0.7,0.1,1.4,0.1,2.1c0,0.4,0.1,0.8,0.4,1.1c0.1,0.2,0.3,0.2,0.5,0.3c0.2,0.1,0.4,0.1,0.6,0.1
				c0.4,0,0.8-0.1,1.1-0.4c0.3-0.3,0.5-0.7,0.4-1.1c0-0.7-0.1-1.4-0.1-2.1c0-0.4-0.1-0.8-0.4-1.1c-0.1-0.2-0.3-0.2-0.5-0.3
				c-0.2-0.1-0.4-0.1-0.6-0.1c-0.4,0-0.8,0.1-1.1,0.4C318.6,74.4,318.4,74.7,318.4,75.1L318.4,75.1z"/>
		</g>
	</g>
	<g>
		<g>
			<path d="M287.2,95.5c1.4,3,2.9,6.1,4.3,9.1c0.3,0.7,1.4,0.9,2,0.5c0.7-0.5,0.9-1.3,0.5-2.1c-1.4-3-2.9-6.1-4.3-9.1
				c-0.3-0.7-1.4-0.9-2.1-0.5C287,93.9,286.9,94.7,287.2,95.5L287.2,95.5z"/>
		</g>
	</g>
	<line class="st6" x1="293.6" y1="104" x2="336.6" y2="104"/>
</g>
<path class="st7" d="M336,108.5h-43.8c-2.8,0-5.1-2.3-5.1-5.1V84.7c0-2.8,2.3-5.1,5.1-5.1H336c2.8,0,5.1,2.3,5.1,5.1v18.8
	C341.1,106.2,338.8,108.5,336,108.5z"/>
<g>
	<g>
		<path d="M305.6,65.8c0.5,1.2,1.9,1.6,3.1,1.6c1.2,0,2.5-0.5,3.4-1.3c0.5-0.5,0.9-1.2,0.7-1.9c-0.2-0.6-0.8-1.1-1.3-1.4
			c-1.2-0.7-2.6-0.8-3.9-0.6c-0.7,0.1-1.5,0.3-2,0.7c-0.7,0.6-0.6,1.4-0.1,2.1c0.5,0.8,1.8,0.1,1.3-0.8c-0.1-0.1-0.1-0.4-0.2-0.2
			c0-0.1,0.3-0.2,0.4-0.2c0.6-0.2,1.2-0.3,1.8-0.3c0.5,0,1.1,0.1,1.6,0.3c0.2,0.1,0.4,0.2,0.6,0.3c0.2,0.1,0.3,0.3,0.4,0.4
			c0.1,0.1-0.1,0.1,0-0.1c0,0.1,0,0.1-0.1,0.2c-0.1,0.2-0.4,0.3-0.5,0.5c-0.4,0.3-0.9,0.4-1.4,0.5c-0.4,0.1-0.9,0.1-1.4,0
			c-0.2-0.1-0.4-0.1-0.6-0.2c-0.1-0.1-0.3-0.2-0.3-0.3c-0.1-0.4-0.5-0.6-0.9-0.5C305.8,65,305.5,65.5,305.6,65.8L305.6,65.8z"/>
	</g>
</g>
<g>
	<g>
		<path d="M320.4,62.6c-1.2,0.1-2.5-0.2-3.7,0.2c-1.2,0.4-2.3,1.5-1.7,2.9c0.5,1.1,1.8,1.5,2.9,1.6c1.2,0.1,2.5,0.2,3.4-0.7
			c0.5-0.5,0.8-1.2,0.7-1.9c-0.1-0.7-0.7-1.1-1.2-1.5c-0.3-0.2-0.8-0.1-1,0.3c-0.2,0.4-0.1,0.8,0.3,1c0.1,0.1,0.3,0.2,0.4,0.3
			c0.1,0.1,0.2,0.2,0.2,0.2c0-0.1,0,0,0,0c0,0.1,0,0.1-0.1,0.2c-0.1,0.2-0.1,0.2-0.3,0.3c-0.2,0.2-0.6,0.2-0.9,0.2
			c-0.4,0-0.8,0-1.2,0c-0.6,0-1.3-0.2-1.7-0.7c-0.1-0.1-0.1-0.2-0.1-0.3c0-0.1,0.1-0.2,0.2-0.3c0.2-0.2,0.5-0.3,0.9-0.4
			c0.4-0.1,0.9-0.1,1.3-0.1c0.6,0,1.1,0.1,1.7,0c0.4,0,0.8-0.3,0.8-0.7C321.2,63,320.8,62.5,320.4,62.6L320.4,62.6z"/>
	</g>
</g>
<g>
	<g>
		<path d="M312.2,65.6c0.3,0,0.6,0.1,0.9,0c0.2,0,0.4-0.1,0.6-0.1c0.1,0,0.1,0,0.2-0.1c0.1,0,0,0,0,0c-0.1,0-0.1,0,0,0
			c0.6,0.2,1.2,0.3,1.7-0.1c0.4-0.3,0.5-0.8,0.1-1.2c-0.2-0.2-0.5-0.4-0.8-0.5c-0.1,0-0.2,0-0.3-0.1c-0.1,0-0.2,0-0.3,0
			c0,0-0.2,0-0.1,0c0.1,0-0.1,0-0.1,0c-0.1,0-0.1,0-0.2,0c0,0-0.1,0-0.1,0c0,0,0,0,0.1,0c0,0-0.1,0-0.1-0.1
			c-0.3-0.2-0.5-0.3-0.8-0.4c-0.1,0.5-0.1,1-0.2,1.5c0.1,0,0.3,0,0.4,0c0.4,0,0.7-0.3,0.7-0.7c0-0.4-0.2-0.7-0.5-0.8
			c-0.4-0.1-0.9-0.2-1.3-0.4c-0.1,0.5-0.3,1-0.4,1.5c1.4,0.4,2.8,0.5,4.2,0.5c0.4,0,0.8-0.3,0.8-0.7c0-0.4-0.3-0.8-0.8-0.8
			c-0.7,0-1.3,0-2-0.1c-0.2,0,0.1,0-0.1,0c-0.1,0-0.1,0-0.2,0c-0.2,0-0.4-0.1-0.5-0.1c-0.3-0.1-0.6-0.1-1-0.2
			c-0.4-0.1-0.8,0.1-0.9,0.5c-0.1,0.4,0.1,0.8,0.5,0.9c0.4,0.1,0.9,0.2,1.3,0.4c0.1-0.5,0.1-1,0.2-1.5c-0.1,0-0.3,0-0.4,0
			c-0.4,0-0.7,0.3-0.7,0.7c-0.1,0.3,0.2,0.8,0.5,0.8c0.1,0,0.2,0.1,0.1,0c0.1,0,0.1,0.1,0.2,0.1c0.1,0.1,0.2,0.1,0.3,0.2
			c0.2,0.1,0.5,0.2,0.7,0.2c0.1,0,0.3,0,0.5,0.1c0.1,0,0.2,0.1,0,0c0.1,0,0.1,0,0.2,0c0.1,0,0.1,0,0.1,0c0,0,0,0,0.1,0
			c0.1,0,0.1,0,0,0c0,0,0.1,0,0.1,0.1c0,0,0,0-0.1,0c0,0,0.1,0.1,0.1,0.1c0.1-0.4,0.1-0.8,0.1-1.2c0,0-0.2,0.1-0.1,0.1
			c0.1,0,0.1,0,0,0c0,0,0.1,0,0.1,0c0,0-0.1,0-0.1,0c0,0-0.2,0,0,0c-0.2-0.1-0.5-0.1-0.7-0.2c-0.3,0-0.5,0.1-0.8,0.2c0,0,0,0-0.1,0
			c0.1,0,0.1,0,0,0c-0.1,0-0.1,0-0.2,0c-0.1,0-0.1,0-0.1,0c0,0-0.2,0-0.1,0c-0.2,0-0.4,0-0.6,0.1c-0.2,0.1-0.3,0.3-0.3,0.5
			C311.6,65.1,311.8,65.6,312.2,65.6L312.2,65.6z"/>
	</g>
</g>
<g>
	<g>
		<path d="M312.4,66.9c0.9,0.1,1.9,0,2.8-0.2c0.5-0.1,0.7-0.9,0.3-1.2c-0.2-0.2-0.5-0.4-0.8-0.4c-0.3-0.1-0.6-0.1-0.9,0
			c-0.2,0-0.4,0.2-0.5,0.3c-0.1,0.2-0.1,0.4-0.1,0.6c0.1,0.2,0.2,0.4,0.3,0.5c0.2,0.1,0.4,0.1,0.6,0.1c0,0,0,0,0,0
			c-0.1,0-0.1,0-0.2,0c0.1,0,0.2,0,0.3,0c-0.1,0-0.1,0-0.2,0c0,0,0.1,0,0.2,0c0,0,0,0,0.1,0c0.1,0,0.1,0-0.1,0c0,0,0.1,0,0.1,0.1
			c0.1,0,0,0-0.1-0.1c0,0,0,0,0.1,0.1c0.1-0.4,0.2-0.8,0.3-1.2c-0.3,0.1-0.5,0.1-0.8,0.1c0.1,0,0.1,0,0.2,0c-0.6,0.1-1.2,0.1-1.8,0
			c-0.4,0-0.8,0.4-0.8,0.8C311.7,66.6,312,66.9,312.4,66.9L312.4,66.9z"/>
	</g>
</g>
<g>
	<g>
		<path d="M321.7,66.2c0.2,0,0.4,0.1,0.6,0c0.1,0,0.3-0.1,0.4-0.2c0.2-0.2,0.4-0.4,0.4-0.7c0-0.2-0.1-0.5-0.4-0.7
			c-0.3-0.1-0.5-0.3-0.8-0.4c0.1,0.5,0.1,0.9,0.2,1.4c0.3-0.2,0.7-0.4,1-0.6c0.3-0.2,0.4-0.5,0.4-0.8c0-0.1-0.1-0.2-0.1-0.3
			c-0.1-0.1-0.2-0.2-0.4-0.3c-0.3-0.1-0.7-0.3-1-0.4c0.1,0,0.1,0,0.2,0.1c-0.4-0.2-0.8-0.3-1.1-0.5c-0.1,0.5-0.2,0.9-0.4,1.4
			c0.5-0.1,1-0.1,1.6,0c0-0.5,0-1,0-1.5c-0.1,0-0.2,0-0.4,0c0,0.5,0,1,0,1.5c0.1,0,0.3,0,0.5,0c0.4,0,0.8-0.3,0.8-0.7
			c0-0.4-0.3-0.8-0.8-0.8c-0.1,0-0.3,0-0.5,0c-0.4,0-0.8,0.3-0.8,0.8c0,0.4,0.3,0.7,0.8,0.7c0.1,0,0.2,0,0.4,0
			c0.4,0,0.8-0.3,0.8-0.8c0-0.4-0.3-0.7-0.8-0.8c-0.5,0-1.1,0-1.6,0c-0.2,0-0.3,0-0.5,0.2c-0.1,0.1-0.2,0.2-0.3,0.4
			c-0.1,0.3,0,0.7,0.3,0.8c0.8,0.4,1.5,0.7,2.3,1c-0.1-0.5-0.1-0.9-0.2-1.4c-0.4,0.2-0.7,0.4-1,0.6c-0.3,0.2-0.4,0.4-0.4,0.8
			c0,0.3,0.2,0.5,0.5,0.6c0.1,0,0.2,0.1,0.3,0.1c-0.1,0-0.1,0-0.2-0.1c0.1,0.1,0.3,0.1,0.4,0.2c0-0.4,0-0.9,0-1.3
			c0,0-0.1,0.1-0.1,0.1c0.1,0,0.1,0,0.2-0.1c-0.1,0-0.1,0-0.2,0.1c0.1,0,0.1,0,0.2,0c-0.1,0-0.1,0-0.2,0c0.1,0,0.1,0,0.2,0
			c0,0,0,0,0,0c-0.2,0-0.4,0-0.6,0.1c-0.2,0.1-0.3,0.3-0.3,0.4c0,0.2,0,0.4,0.1,0.6C321.4,66,321.6,66.1,321.7,66.2L321.7,66.2z"/>
	</g>
</g>
<g>
	<g>
		<path d="M311.6,67c1.4,0.3,2.8,0.2,4.2-0.1c0.4-0.1,0.6-0.5,0.5-0.8c0-0.4-0.4-0.6-0.7-0.7c-1.6,0-3.2,0-4.8,0.3
			c-0.4,0.1-0.6,0.6-0.5,0.9c0.1,0.4,0.5,0.6,0.9,0.5c0.7-0.2,1.4-0.2,2.1-0.2c0.8,0,1.5,0,2.2,0c-0.1-0.5-0.1-1-0.2-1.5
			c-0.6,0.2-1.1,0.2-1.7,0.2c-0.3,0-0.6,0-0.9,0c-0.3,0-0.5,0-0.8-0.1c-0.4-0.1-0.8,0.1-0.9,0.5C311,66.5,311.2,67,311.6,67
			L311.6,67z"/>
	</g>
</g>
<g>
	<g>
		<path d="M306.7,67.5c2.9,0.4,5.8,0.5,8.7,0.5c2.5,0,5.2,0.2,7.5-1c0.8-0.5,0.1-1.8-0.8-1.3c-2.1,1.2-5,0.8-7.4,0.8
			c-2.7,0-5.4-0.1-8.1-0.5C305.7,65.9,305.7,67.4,306.7,67.5L306.7,67.5z"/>
	</g>
</g>
<g>
	<g>
		<path d="M311.8,64.4c4.2-0.3,8.5-1,12.6-0.1c0.9,0.2,1.3-1.2,0.4-1.5c-4.3-0.9-8.7-0.3-13,0C310.9,63,310.8,64.5,311.8,64.4
			L311.8,64.4z"/>
	</g>
</g>
<g>
	<g>
		<path d="M311.1,63.6c3.6-0.2,7.2-0.4,10.8-0.7c1-0.1,1-1.6,0-1.5c-3.6,0.3-7.2,0.5-10.8,0.7C310.2,62.2,310.2,63.7,311.1,63.6
			L311.1,63.6z"/>
	</g>
</g>
<g>
	<g>
		<path d="M308.5,64c-0.8,0-1.6,0.1-2.4,0.3c0.3,0.4,0.6,0.7,0.9,1.1c0.3-0.4,0.5-0.9,0.6-1.4c0.3-0.8-0.9-1.3-1.4-0.6
			c-0.1,0.2-0.2,0.5-0.3,0.7c-0.1,0.6,0.5,1.2,1.1,0.8c0.4-0.2,0.6-0.6,0.6-1c0-0.7-1.1-1.1-1.4-0.4c-0.4,0.9-0.7,2.5,0.7,2.8
			c1.4,0.3,2-1.3,1.9-2.4c-0.1-0.7-1-1.1-1.4-0.4c-0.4,0.7-1,3.1,0.6,2.8c1.4-0.2,0.9-2.3,0.4-3.1c-0.3-0.4-0.8-0.9-1.4-0.7
			c-0.5,0.1-0.8,0.7-0.7,1.2c0.3,1.3,2.4,1.4,2.8,0.1c-0.5-0.1-1-0.3-1.4-0.4c-0.2,1-0.4,2.8,1.1,2.8c1.4,0,1.7-1.7,1.6-2.8
			c-0.1-0.7-1-1.1-1.4-0.4c-0.4,0.8-1,3.6,0.9,3.2c1.5-0.4,0.8-2.6,0.2-3.4c-0.5-0.6-1.2,0-1.3,0.5c-0.1,1.1,1,1.9,1.8,1.1
			c0.6-0.5,0-1.5-0.7-1.2c-1.2,0.4-1.2,2.1,0,2.5c0.5,0.2,1.1,0.1,1.5-0.2c0.5-0.4,0.5-1.2,0-1.6c-0.2,0.4-0.4,0.8-0.5,1.3
			c0.1,0,0.2,0,0.3,0c0.4,0,0.9-0.5,0.7-1c-0.2-0.5-0.6-0.8-1.1-0.6c-0.5,0.2-0.6,0.7-0.5,1.2c0.1,0.4,0.6,0.6,0.9,0.5
			c1.8-0.4,3.7-0.6,5.6-0.6c-0.2-0.2-0.5-0.5-0.8-0.8c0,1,1,1.7,1.9,1.6c1-0.2,1.4-1.2,0.8-2.1c-0.5-0.8-1.9-1-2.3,0.1
			c-0.3,0.8,0.4,1.9,1.2,2.1c1.2,0.3,1.7-0.9,1.6-1.9c0-0.5-0.2-1.1-0.7-1.3c-0.4-0.2-0.9-0.1-1.2,0.3c-0.6,0.7-0.4,2.1,0.6,2.4
			c1,0.3,1.6-0.7,1.6-1.5c0-0.7-1-1-1.4-0.4c-1.1,2,2.7,3.2,2.8,1.2c0-0.9-1.1-1.3-1.6-0.7c-0.6,0.7-0.1,1.8,0.8,1.9
			c0.4,0.1,0.8-0.1,0.9-0.5c0.3-0.8-0.6-1.6-1.4-1.4c-0.8,0.2-0.9,1.3-0.2,1.7c0.4,0.3,1.2-0.1,1.1-0.7c-0.1-0.8-1-1.5-1.8-0.9
			c-0.7,0.6-0.4,1.7,0.5,1.9c0.5,0.1,1.2-0.4,0.9-0.9c-0.1-0.2-0.1-0.3-0.2-0.5c-0.4-0.5-1.2-0.5-1.4,0.2c-0.1,0.3-0.1,0.5,0,0.8
			c0.4-0.2,0.8-0.5,1.2-0.7c-0.1-0.1-0.1-0.2-0.2-0.2c-0.2,0.4-0.5,0.8-0.7,1.2c0.3,0,0.5,0,0.8-0.1c0.8-0.5,0.1-1.8-0.8-1.3
			c0,0-0.1,0-0.1,0.1c0.2,0,0.4-0.1,0.6-0.1c0,0-0.1,0-0.1,0c-0.7-0.1-1.3,0.7-0.7,1.2c0.1,0.1,0.1,0.2,0.2,0.2
			c0.5,0.6,1.5,0,1.2-0.7v0c-0.5,0.1-0.9,0.1-1.4,0.2c0,0,0.1,0.1,0.1,0.1c0.3-0.3,0.6-0.6,0.9-0.9c-0.2,0.1-0.4,0.3-0.6,0.4
			c0.4-0.2,0.8-0.4,1.1-0.7c0,0-0.1,0-0.1,0c0.1,0.2,0.2,0.3,0.3,0.4c0,0.1,0,0.1,0,0.2c-0.1,0.2-0.2,0.3-0.3,0.5
			c-0.1,0-0.3,0-0.4,0c0-0.2,0-0.4-0.1-0.6c0,0,0,0.1,0,0.1c0.3-0.2,0.6-0.3,0.9-0.5c-0.1,0.2-0.2,0.5-0.2,0.7c-0.2,0-0.4,0-0.6-0.1
			c0.4-0.5,0.4-0.8,0-0.9c-0.1-0.1-0.2-0.1-0.1,0.1c-0.5-0.1-0.9-0.2-1.4-0.4c0,0.2,0.1,0.2,0.3,0.2c-0.2,0-0.4-0.1-0.6-0.1
			c-0.1-0.1,0,0.6-0.1,0.6c0.1,0,0.2-0.1,0.3-0.1c-0.1-0.1-0.1-0.1-0.1-0.2c-0.1,0.1-0.3,0.2-0.5,0.3c0.5-0.2,0-0.2,0.1-0.4
			c0-0.4-0.4-0.7-0.8-0.8c-2-0.1-4,0.1-6,0.6c0.3,0.2,0.6,0.3,0.9,0.5c0,0.1,0,0.1,0,0.1c-0.1,0.2-0.2,0.3-0.3,0.5c0,0,0,0,0.1,0
			c-0.2,0-0.4,0-0.6,0.1c0,0,0,0,0.1,0c-0.2-0.2-0.4-0.3-0.5-0.5c0,0,0,0,0,0.1c0.2-0.3,0.5-0.6,0.7-1c-0.1,0-0.2,0-0.3,0
			c-0.6,0-1,0.9-0.5,1.3c0.2-0.8,0.2-0.9,0-0.3c-0.2-0.4-0.5-0.8-0.7-1.2c0.5,0.3,0.8,0.3,0.7,0c-0.4,0.2-0.9,0.3-1.3,0.5
			c0.1,0.2,0.2,0.4,0.3,0.6c0,0.1,0,0.1,0,0.2c-0.1,0.3,0.1,0.4,0.5,0.1c0.1,0.2,0.2,0.3,0.3,0.5c-0.2-0.5-0.1-1,0.2-1.4
			c-0.5-0.1-0.9-0.2-1.4-0.4c0,0.2,0,0.4,0,0.7c0,0.1-0.2,0.5-0.2,0.6c0.1,0.1,0.2,0.1,0.3,0.2c0-0.1,0-0.3,0-0.4
			c0-0.2,0.1-0.5,0.1-0.7c0.2-0.9-1.2-1.3-1.4-0.4c0.2-0.5,0.1-0.3,0,0.4c-0.2,0-0.4,0-0.6,0.1c0.2,0,0.6,0.9,0.4,1.1
			c0.2-0.1,0.4-0.2,0.5-0.2c0,0-0.1,0-0.1,0c0.2,0.1,0.4,0.2,0.6,0.4c-0.1-0.2,0.2-0.8,0.2-0.9c-0.5-0.1-0.9-0.2-1.4-0.4
			c0,0.2,0,0.3,0,0.5c0,0.2-0.2,0.4,0,0.5c0.2,0.1,0.1,0,0.1-0.2s0.1-0.3,0.1-0.5c-0.5-0.1-0.9-0.2-1.4-0.4c0.1-0.1,0.1-0.2,0.1-0.3
			c0.4,0.3,0.7,0.6,1.1,0.8c0-0.1,0.1-0.3,0.1-0.4c-0.5-0.2-0.9-0.4-1.4-0.6c-0.1,0.4-0.3,0.7-0.5,1c-0.4,0.6,0.2,1.3,0.9,1.1
			c0.7-0.2,1.3-0.2,2-0.2C309.5,65.5,309.5,64,308.5,64L308.5,64z"/>
	</g>
</g>
<circle class="st8" cx="309.6" cy="65" r="1.5"/>
<circle class="st8" cx="319.6" cy="65" r="1.5"/>
<circle class="st9" cx="299.7" cy="90.6" r="4.8"/>
<circle class="st10" cx="297.3" cy="89.1" r="0.6"/>
<circle class="st10" cx="302.1" cy="89.1" r="0.6"/>
<g>
	<g>
		<path d="M296.2,92.5c0.5,1.4,1.9,2,3.3,2.1c1.6,0.1,2.9-0.8,3.7-2c0.4-0.6-0.6-1.2-1-0.6c-0.5,0.8-1.3,1.3-2.2,1.4
			c-0.9,0.1-2.3-0.2-2.6-1.2C297.1,91.4,296,91.8,296.2,92.5L296.2,92.5z"/>
	</g>
</g>
<g>
	<g>
		<path d="M297.4,87.3c1.2,0.6,2.4,1.2,3.6,1.9c0.7,0.4,1.3-0.7,0.6-1c-1.2-0.7-2.4-1.3-3.6-1.9C297.3,86,296.7,87,297.4,87.3
			L297.4,87.3z"/>
	</g>
</g>
<g>
	<g>
		<path d="M302.3,89.9c0.4,0.4,0.9,0.8,1.4,1.1c0.3,0.2,0.7,0.1,0.8-0.2c0.2-0.3,0.1-0.6-0.2-0.8c-0.4-0.3-0.8-0.6-1.1-0.9
			C302.5,88.5,301.7,89.3,302.3,89.9L302.3,89.9z"/>
	</g>
</g>
<text transform="matrix(1.1084 0 0 1 303.3167 103.6982)" class="st11 st12">HACKER</text>
<g>
	<g>
		<path class="st13" d="M219.3,87.7c18.7-1.3,37.4-0.4,55.9,2.9c2.6,0.5,5.4-2.9,2.9-5c-5.1-4.3-10.2-8.6-15.4-12.9
			c-1.4,1.4-2.8,2.8-4.2,4.2c4.8,4,9.7,8,14.5,12c0.2-1.6,0.4-3.1,0.6-4.7c-7.1,3.5-14.4,6.1-22,8c-3.7,0.9-2.2,6.7,1.6,5.8
			c8.1-2,15.9-4.9,23.4-8.6c1.6-0.8,2-3.5,0.6-4.7c-4.8-4-9.7-8-14.5-12c-3-2.4-7.2,1.8-4.2,4.2c5.1,4.3,10.2,8.6,15.4,12.9
			c1-1.7,1.9-3.3,2.9-5c-19-3.4-38.2-4.5-57.5-3.1C215.4,82,215.4,88,219.3,87.7L219.3,87.7z"/>
	</g>
</g>
<path class="st14" d="M283.3,67.5h-67.1c-2.1,0-3.8-1.7-3.8-3.8V51.9c0-2.1,1.7-3.8,3.8-3.8h67.1c2.1,0,3.8,1.7,3.8,3.8v11.8
	C287,65.8,285.3,67.5,283.3,67.5z"/>
<text transform="matrix(1 0 0 1 219.7448 61.2625)" class="st15 st16">DATABASE</text>
</svg>
