<?xml version="1.0" encoding="utf-8"?>
<!-- Generator: Adobe Illustrator 25.4.1, SVG Export Plug-In . SVG Version: 6.00 Build 0)  -->
<svg version="1.1" id="Слой_1" xmlns="http://www.w3.org/2000/svg" xmlns:xlink="http://www.w3.org/1999/xlink" x="0px" y="0px"
	 viewBox="0 0 462 202" style="enable-background:new 0 0 462 202;" xml:space="preserve">
<style type="text/css">
	.st0{fill:#004100;}
	.st1{fill:#BF2B00;}
	.st2{fill:#FFFFE4;}
	.st3{fill:#272A00;}
	.st4{fill:#B4F9FF;}
	.st5{font-family:'MyriadPro-Regular';}
	.st6{font-size:29.2845px;}
	.st7{font-size:12px;}
</style>
<g id="Слой_3">
</g>
<path class="st0" d="M319.9,107.1H172.2c-2.8,0-5.1-2.3-5.1-5.1V29.5c0-2.8,2.3-5.1,5.1-5.1h147.7c2.8,0,5.1,2.3,5.1,5.1V102
	C325,104.8,322.8,107.1,319.9,107.1z"/>
<rect x="170.9" y="28.1" class="st1" width="150.4" height="75.2"/>
<rect x="239.5" y="107.1" class="st0" width="13.2" height="15"/>
<rect x="232" y="120.2" class="st0" width="28.2" height="3.8"/>
<path class="st0" d="M273.2,191.5H171.4c-4.3,0-7.7-3.4-7.7-7.7v-41.5c0-4.3,3.4-7.7,7.7-7.7h101.8c4.3,0,7.7,3.4,7.7,7.7v41.5
	C280.9,188.1,277.5,191.5,273.2,191.5z"/>
<path class="st2" d="M245.2,188.2h-32.3c-1.2,0-2.3-1-2.3-2.3v-5.5c0-1.2,1-2.3,2.3-2.3h32.3c1.2,0,2.3,1,2.3,2.3v5.5
	C247.4,187.2,246.4,188.2,245.2,188.2z"/>
<path class="st2" d="M191.6,174.8h-19c-1.2,0-2.2-1-2.2-2.2V167c0-1.2,1-2.2,2.2-2.2h19c1.2,0,2.2,1,2.2,2.2v5.6
	C193.8,173.8,192.8,174.8,191.6,174.8z"/>
<path class="st2" d="M272,174.8h-19c-1.2,0-2.2-1-2.2-2.2V167c0-1.2,1-2.2,2.2-2.2h19c1.2,0,2.2,1,2.2,2.2v5.6
	C274.2,173.8,273.2,174.8,272,174.8z"/>
<circle class="st2" cx="175.4" cy="183.2" r="5"/>
<circle class="st2" cx="188.8" cy="183.2" r="5"/>
<circle class="st2" cx="202.2" cy="183.2" r="5"/>
<circle class="st2" cx="215.6" cy="169.8" r="5"/>
<circle class="st2" cx="229" cy="169.8" r="5"/>
<circle class="st2" cx="242.4" cy="169.8" r="5"/>
<circle class="st2" cx="255.8" cy="183.2" r="5"/>
<circle class="st2" cx="269.2" cy="183.2" r="5"/>
<circle class="st2" cx="175.4" cy="156.4" r="5"/>
<circle class="st2" cx="188.8" cy="156.4" r="5"/>
<circle class="st2" cx="202.2" cy="156.4" r="5"/>
<circle class="st2" cx="215.6" cy="156.4" r="5"/>
<circle class="st2" cx="229" cy="156.4" r="5"/>
<circle class="st2" cx="242.4" cy="156.4" r="5"/>
<circle class="st2" cx="255.8" cy="156.4" r="5"/>
<circle class="st2" cx="269.2" cy="156.4" r="5"/>
<circle class="st2" cx="175.2" cy="144.4" r="5"/>
<circle class="st2" cx="188.6" cy="144.4" r="5"/>
<circle class="st2" cx="202" cy="144.4" r="5"/>
<circle class="st2" cx="215.4" cy="144.4" r="5"/>
<circle class="st2" cx="228.8" cy="144.4" r="5"/>
<circle class="st2" cx="242.2" cy="144.4" r="5"/>
<circle class="st2" cx="255.6" cy="144.4" r="5"/>
<circle class="st2" cx="269" cy="144.4" r="5"/>
<circle class="st2" cx="202.2" cy="169.8" r="5"/>
<ellipse class="st3" cx="305.3" cy="154.1" rx="10.3" ry="15"/>
<ellipse class="st2" cx="305.3" cy="144.7" rx="0.9" ry="3.8"/>
<text transform="matrix(1 0 0 1 181.3612 53.8545)" class="st4 st5 st6">LOCKED!!</text>
<text transform="matrix(1 0 0 1 195.5879 68.8936)"><tspan x="0" y="0" class="st5 st7">PAY 100000$ кидать</tspan><tspan x="32.2" y="14.4" class="st5 st7">на сбер</tspan><tspan x="18.1" y="28.8" class="st5 st7">89887364656</tspan></text>
</svg>
